<svg xmlns="http://www.w3.org/2000/svg" xmlns:xlink="http://www.w3.org/1999/xlink" width="1080" zoomAndPan="magnify" viewBox="0 0 810 809.999993" height="1080" preserveAspectRatio="xMidYMid meet" version="1.0"><defs><clipPath id="f09b94ee18"><path d="M 13.1875 30.820312 L 796.9375 30.820312 L 796.9375 779.320312 L 13.1875 779.320312 Z M 13.1875 30.820312 " clip-rule="nonzero"/></clipPath></defs><g clip-path="url(#f09b94ee18)"><path fill="#363633" d="M 744.367188 659.867188 L 744.367188 204.160156 C 773.867188 199.894531 796.578125 174.574219 796.578125 143.941406 C 796.578125 113.3125 773.867188 87.992188 744.367188 83.726562 L 744.367188 48.222656 C 744.367188 38.652344 736.535156 30.820312 726.964844 30.820312 C 717.390625 30.820312 709.558594 38.652344 709.558594 48.222656 L 709.558594 83.03125 L 100.441406 83.03125 L 100.441406 48.222656 C 100.441406 38.652344 92.609375 30.820312 83.035156 30.820312 C 73.464844 30.820312 65.632812 38.652344 65.632812 48.222656 L 65.632812 83.726562 C 36.132812 87.992188 13.421875 113.3125 13.421875 143.941406 C 13.421875 174.574219 36.132812 199.894531 65.632812 204.160156 L 65.632812 659.867188 C 40.484375 667.4375 22.125 690.757812 22.125 718.257812 C 22.125 751.84375 49.449219 779.167969 83.035156 779.167969 C 116.625 779.167969 143.949219 751.84375 143.949219 718.257812 C 143.949219 690.757812 125.585938 667.4375 100.441406 659.867188 L 100.441406 617.402344 L 405 510.371094 L 709.558594 617.402344 L 709.558594 659.867188 C 684.410156 667.351562 666.050781 690.671875 666.050781 718.257812 C 666.050781 751.84375 693.375 779.167969 726.964844 779.167969 C 760.550781 779.167969 787.875 751.84375 787.875 718.257812 C 787.875 690.757812 769.515625 667.4375 744.367188 659.867188 Z M 100.441406 309.277344 L 709.558594 309.277344 L 709.558594 361.484375 L 100.441406 361.484375 Z M 709.558594 204.855469 L 709.558594 274.46875 L 100.441406 274.46875 L 100.441406 204.855469 Z M 624.890625 396.292969 L 405 473.5625 L 185.105469 396.292969 Z M 100.441406 580.59375 L 100.441406 403.429688 L 352.527344 492.011719 Z M 457.472656 492.011719 L 709.558594 403.429688 L 709.558594 580.507812 Z M 457.472656 492.011719 " fill-opacity="1" fill-rule="nonzero"/></g></svg>