<svg xmlns="http://www.w3.org/2000/svg" xmlns:xlink="http://www.w3.org/1999/xlink" width="1080" zoomAndPan="magnify" viewBox="0 0 810 809.999993" height="1080" preserveAspectRatio="xMidYMid meet" version="1.0"><defs><clipPath id="bb2916148b"><path d="M 14.863281 119.136719 L 794.863281 119.136719 L 794.863281 690.636719 L 14.863281 690.636719 Z M 14.863281 119.136719 " clip-rule="nonzero"/></clipPath></defs><g clip-path="url(#bb2916148b)"><path fill="#000000" d="M 224.882812 421.074219 L 236.839844 421.074219 C 269.621094 421.074219 298.648438 434.570312 323.90625 461.542969 C 349.164062 488.515625 361.789062 519.3125 361.789062 553.992188 C 361.789062 592.546875 347.214844 624.921875 318.097656 651.113281 C 288.945312 677.308594 252.742188 690.394531 209.527344 690.394531 C 153.914062 690.394531 107.582031 668.878906 70.511719 625.824219 C 33.40625 582.769531 14.898438 528.929688 14.898438 464.324219 C 14.898438 382.820312 42.40625 311.410156 97.414062 250.097656 C 152.425781 188.785156 228.355469 145.234375 325.179688 119.414062 L 325.179688 168.929688 C 254.78125 218.042969 219.605469 282.527344 219.605469 362.347656 L 224.917969 421.054688 Z M 758.238281 119.414062 L 758.238281 166.609375 C 726.550781 185.066406 701.03125 212.5 681.671875 248.964844 C 662.3125 285.429688 652.644531 323.96875 652.644531 364.648438 C 652.644531 384.609375 654.398438 403.433594 657.957031 421.074219 C 699.578125 423.394531 732.804688 436.695312 757.617188 460.976562 C 782.429688 485.257812 794.847656 516.25 794.847656 553.992188 C 794.847656 591.730469 779.632812 624.921875 749.1875 651.113281 C 718.742188 677.308594 680.574219 690.394531 634.683594 690.394531 C 577.316406 690.394531 530.789062 670.027344 495.066406 629.261719 C 459.308594 588.527344 441.472656 535.835938 441.472656 471.230469 C 441.472656 419.726562 453.996094 369.660156 479.074219 321.046875 C 504.117188 272.429688 537.785156 233.007812 580.046875 202.8125 C 622.269531 172.613281 681.652344 144.808594 758.21875 119.414062 Z M 758.238281 119.414062 " fill-opacity="1" fill-rule="nonzero"/></g></svg>