<svg xmlns="http://www.w3.org/2000/svg" xmlns:xlink="http://www.w3.org/1999/xlink" width="1080" zoomAndPan="magnify" viewBox="0 0 810 809.999993" height="1080" preserveAspectRatio="xMidYMid meet" version="1.0"><defs><clipPath id="30df4e3081"><path d="M 283.5 522.75 L 287.25 522.75 L 287.25 526.5 L 283.5 526.5 Z M 283.5 522.75 " clip-rule="nonzero"/></clipPath></defs><path fill="#ffffff" d="M 693.164062 451.980469 C 683.230469 246.953125 585.636719 137.09375 477.25 107.558594 C 583.480469 155.058594 647.90625 310.429688 662.417969 487.132812 C 649.460938 499.914062 630.375 510.707031 630.375 510.707031 C 623.121094 347.996094 569.054688 200.140625 481.484375 141.414062 C 443.480469 115.9375 404.617188 98.835938 356.6875 92.1875 C 342.003906 93.222656 312.984375 100.046875 298.996094 102.722656 C 311.085938 105.660156 323.089844 109.546875 334.664062 114.296875 C 473.796875 171.902344 499.707031 507.253906 503.679688 578.246094 C 486.40625 583.515625 464.726562 588.089844 464.726562 588.089844 C 456.4375 402.40625 407.554688 187.101562 319.636719 150.65625 C 284.054688 135.886719 245.707031 132.171875 210.46875 135.367188 C 125.746094 184.683594 66.671875 283.742188 57.691406 450.425781 C 46.980469 457.59375 39.296875 463.035156 37.136719 465.28125 C 1.8125 501.640625 -0.34375 518.65625 108.820312 572.285156 C 217.984375 626.003906 306.765625 655.542969 362.472656 678.257812 C 418.089844 700.96875 498.667969 718.761719 673.558594 672.730469 C 868.394531 633.953125 787.039062 546.894531 693.164062 451.980469 Z M 693.164062 451.980469 " fill-opacity="1" fill-rule="nonzero"/><g clip-path="url(#30df4e3081)"><path fill="#ffffff" d="M 283.5 522.75 L 287.25 522.75 L 287.25 526.5 L 283.5 526.5 Z M 283.5 522.75 " fill-opacity="1" fill-rule="nonzero"/></g></svg>