<svg xmlns="http://www.w3.org/2000/svg" xmlns:xlink="http://www.w3.org/1999/xlink" width="1080" zoomAndPan="magnify" viewBox="0 0 810 809.999993" height="1080" preserveAspectRatio="xMidYMid meet" version="1.0"><defs><clipPath id="812fe9fbbe"><path d="M 14 15 L 796.996094 15 L 796.996094 795.988281 L 14 795.988281 Z M 14 15 " clip-rule="nonzero"/></clipPath></defs><g clip-path="url(#812fe9fbbe)"><path fill="#363633" d="M 633.785156 132.921875 C 633.785156 137.246094 633.683594 141.574219 633.804688 145.894531 C 634.03125 153.960938 638.429688 158.253906 646.328125 158.574219 C 654.246094 158.898438 657.984375 155.132812 659.539062 146.910156 C 661.023438 139.054688 664.960938 131.609375 668.257812 124.179688 C 669.019531 122.464844 671.449219 120.929688 673.359375 120.539062 C 674.21875 120.363281 676.039062 123.050781 676.828125 124.71875 C 680.410156 132.265625 683.191406 140.257812 687.378906 147.433594 C 691.855469 155.097656 693.332031 162.359375 690.320312 170.925781 C 687.199219 179.808594 684.632812 188.9375 682.597656 198.128906 C 680.835938 206.078125 684.0625 212.378906 692.199219 214.503906 C 700.226562 216.601562 705.417969 213.003906 708.695312 205.136719 C 711.347656 198.769531 715.132812 192.730469 719.242188 187.152344 C 723.734375 181.054688 726.730469 183.46875 728.425781 189.769531 C 730.453125 197.316406 732.296875 204.976562 735.15625 212.21875 C 738.152344 219.824219 737.675781 226.554688 733.742188 233.613281 C 728.957031 242.191406 724.304688 250.894531 720.410156 259.894531 C 717.144531 267.4375 717.796875 274.828125 726.179688 279.070312 C 734.742188 283.40625 739.703125 278.816406 744.671875 271.964844 C 749.179688 265.75 755.039062 260.355469 760.949219 255.367188 C 765.527344 251.511719 768.144531 254.265625 768.261719 259.511719 C 768.480469 269.175781 769.109375 278.890625 768.371094 288.492188 C 767.945312 294.023438 766.257812 300.089844 763.230469 304.648438 C 757.828125 312.792969 750.554688 319.679688 744.929688 327.703125 C 742.484375 331.195312 740.160156 337.042969 741.507812 340.253906 C 742.699219 343.097656 749.132812 345.230469 753.132812 345.050781 C 758.640625 344.796875 764.183594 342.433594 769.4375 340.304688 C 774.136719 338.402344 778.300781 335.203125 782.996094 333.292969 C 788.402344 331.085938 790.191406 333.871094 789.367188 339.109375 C 787.859375 348.714844 786.824219 358.421875 784.746094 367.902344 C 783.792969 372.253906 781.921875 377.996094 778.605469 379.957031 C 765.421875 387.746094 764.859375 399.550781 765.417969 412.632812 C 765.75 420.363281 765.792969 425.429688 775.484375 419.652344 C 779.691406 417.140625 785.144531 416.546875 790.132812 415.601562 C 792.207031 415.207031 794.535156 416.167969 796.75 416.511719 C 796.378906 418.734375 796.417969 421.128906 795.5625 423.148438 C 792.253906 430.988281 789.210938 439.023438 784.984375 446.359375 C 782.03125 451.496094 778.082031 456.816406 773.222656 459.929688 C 764.332031 465.625 754.269531 469.441406 745.019531 474.621094 C 737.808594 478.65625 735.578125 485.597656 739.097656 492.851562 C 742.632812 500.144531 748.894531 501.972656 757.015625 499.058594 C 763.1875 496.847656 769.898438 495.953125 776.449219 495.082031 C 778.855469 494.761719 781.492188 496.1875 784.023438 496.816406 C 783.25 499.28125 782.910156 502.007812 781.617188 504.160156 C 777.785156 510.53125 773.023438 516.386719 769.660156 522.976562 C 765.75 530.636719 760.027344 534.960938 751.792969 536.835938 C 742.222656 539.015625 732.664062 541.359375 723.289062 544.25 C 715.527344 546.644531 711.257812 552.484375 713.683594 560.527344 C 715.910156 567.917969 721.296875 571.589844 729.96875 570.792969 C 737.21875 570.121094 744.699219 571.160156 751.988281 572.128906 C 754.152344 572.417969 756.6875 574.699219 757.703125 576.738281 C 758.160156 577.65625 755.542969 580.492188 753.902344 581.996094 C 748.195312 587.21875 742.675781 592.777344 736.367188 597.175781 C 731.222656 600.761719 725.296875 604.210938 719.269531 605.335938 C 709.683594 607.128906 699.71875 606.859375 689.925781 607.605469 C 680.332031 608.332031 674.5625 613.347656 674.652344 620.632812 C 674.753906 628.527344 681.03125 633.871094 689.980469 635.117188 C 696.871094 636.074219 703.738281 637.910156 710.3125 640.222656 C 715.941406 642.199219 715.179688 645.457031 710.53125 648.402344 C 703.644531 652.769531 696.464844 656.792969 690.082031 661.808594 C 683.726562 666.800781 677.34375 668.8125 669.335938 667.097656 C 659.75 665.046875 650.03125 663.519531 640.308594 662.222656 C 631.789062 661.085938 625.042969 664.386719 623.644531 673.265625 C 622.308594 681.78125 626.953125 686.949219 635.4375 689.488281 C 641.339844 691.253906 646.984375 694.269531 652.300781 697.464844 C 655.078125 699.136719 656.898438 702.402344 659.152344 704.945312 C 655.742188 706.183594 652.355469 707.492188 648.910156 708.628906 C 646.347656 709.476562 643.28125 709.46875 641.175781 710.917969 C 625.082031 721.964844 609.394531 718.902344 593.625 710.253906 C 590.546875 708.5625 587.121094 707.480469 583.804688 706.261719 C 576.625 703.628906 569.746094 703.246094 564.890625 710.460938 C 560.636719 716.777344 562.890625 724.832031 570.289062 731.117188 C 575.363281 735.429688 580.683594 739.480469 585.480469 744.082031 C 587.15625 745.691406 587.597656 748.59375 588.601562 750.902344 C 586.117188 751.8125 583.703125 753.144531 581.140625 753.542969 C 575.039062 754.492188 568.667969 754.257812 562.773438 755.855469 C 553.671875 758.320312 546.058594 756.957031 538.445312 751.300781 C 530.265625 745.226562 521.632812 739.625 512.691406 734.746094 C 505.082031 730.59375 498.925781 734.105469 495.035156 741.21875 C 491.425781 747.8125 493.597656 752.320312 499.570312 757.214844 C 505.726562 762.257812 510.199219 769.449219 514.980469 776.015625 C 516.011719 777.429688 515.855469 780.503906 515.003906 782.191406 C 514.519531 783.152344 511.492188 783.21875 509.667969 783.042969 C 501.726562 782.273438 493.78125 780.386719 485.878906 780.566406 C 476.046875 780.792969 468.484375 777.925781 462.09375 770.359375 C 456.273438 763.46875 449.855469 757.019531 443.207031 750.910156 C 437.113281 745.3125 429.953125 745.261719 424.230469 751.199219 C 418.625 757.019531 418.683594 763.082031 424.59375 769.894531 C 429.035156 775.011719 431.40625 782.007812 434.257812 788.363281 C 435.082031 790.207031 435.242188 793.554688 434.136719 794.722656 C 433.039062 795.878906 429.847656 795.648438 427.773438 795.171875 C 420.566406 793.507812 413.542969 790.878906 406.277344 789.726562 C 396.988281 788.253906 390.476562 783.941406 385.910156 775.636719 C 381.375 767.386719 376.34375 759.328125 370.746094 751.765625 C 366.140625 745.546875 359.632812 742.558594 352.265625 747.550781 C 345.164062 752.363281 345.152344 758.460938 348.699219 766.085938 C 351.773438 772.695312 353.164062 780.164062 354.691406 787.378906 C 355.179688 789.683594 353.714844 792.402344 353.144531 794.929688 C 350.667969 794.191406 347.960938 793.871094 345.761719 792.640625 C 340.066406 789.445312 334.988281 784.621094 328.945312 782.683594 C 317.046875 778.863281 311.269531 770.59375 307.6875 759.492188 C 305.042969 751.292969 302.242188 743.027344 298.375 735.363281 C 294.945312 728.566406 288.382812 726.265625 281.308594 729.726562 C 274.480469 733.070312 272.4375 738.199219 275.074219 746.300781 C 277.285156 753.097656 277.308594 760.878906 276.960938 768.160156 C 276.660156 774.402344 272.652344 774.816406 268.070312 771.101562 C 262.910156 766.917969 258.097656 762.125 252.429688 758.800781 C 241.953125 752.660156 236.914062 744.164062 236.304688 731.988281 C 235.855469 723.050781 234.21875 714.019531 231.867188 705.371094 C 229.703125 697.433594 222.761719 696.085938 215.609375 697.683594 C 208.570312 699.253906 207.554688 704.035156 207.699219 711.054688 C 207.867188 719.402344 205.871094 727.984375 203.59375 736.125 C 201.925781 742.082031 198.015625 740.222656 195.042969 736.433594 C 189.601562 729.496094 184.617188 722.15625 178.722656 715.636719 C 173.015625 709.320312 170.761719 702.824219 171.9375 694.191406 C 173.25 684.503906 173.109375 674.589844 173.203125 664.769531 C 173.277344 656.859375 168.992188 651.949219 161.089844 651.664062 C 153.167969 651.375 149.570312 655.898438 148.144531 663.867188 C 146.863281 671.003906 143.804688 677.953125 140.6875 684.589844 C 137.996094 690.332031 134.304688 689.597656 131.40625 684.292969 C 127.464844 677.082031 123.933594 669.621094 119.609375 662.652344 C 115.152344 655.46875 113.980469 648.414062 116.730469 640.269531 C 119.871094 630.980469 122.558594 621.5 124.773438 611.945312 C 126.472656 604.617188 124.164062 598.289062 116.203125 596.308594 C 108.386719 594.363281 103.160156 596.359375 100.578125 605.691406 C 98.828125 612.027344 93.378906 617.566406 88.878906 622.863281 C 84.257812 628.300781 80.761719 625.953125 78.996094 620.003906 C 77.4375 614.738281 76.90625 609.019531 74.554688 604.164062 C 67.402344 589.398438 71.980469 577.085938 80.664062 564.761719 C 84.410156 559.445312 86.636719 552.945312 88.925781 546.75 C 91.554688 539.632812 87.964844 534.054688 82.074219 530.984375 C 75.695312 527.660156 70.109375 529.589844 66.34375 536.464844 C 64.109375 540.542969 61.234375 544.597656 57.714844 547.554688 C 54.035156 550.648438 49.238281 552.417969 44.929688 554.765625 C 43.9375 550.335938 42.742188 545.945312 42.011719 541.472656 C 41.378906 537.609375 41.621094 533.589844 40.878906 529.753906 C 38.316406 516.527344 43.527344 506.136719 52.035156 496.613281 C 57 491.054688 61.710938 485.210938 65.960938 479.097656 C 70.539062 472.515625 69.175781 465.882812 62.8125 461.5625 C 56.71875 457.425781 51.007812 457.976562 45.308594 464.429688 C 40.878906 469.449219 34.164062 472.585938 28.136719 475.984375 C 26.054688 477.160156 22.992188 476.601562 20.378906 476.832031 C 20.269531 473.839844 19.695312 470.777344 20.148438 467.871094 C 21.292969 460.523438 23.800781 453.285156 24.101562 445.933594 C 24.480469 436.640625 28.714844 430.691406 35.96875 425.589844 C 43.34375 420.402344 50.363281 414.632812 57.0625 408.589844 C 63.125 403.125 64.390625 396.105469 58.804688 389.761719 C 53.472656 383.703125 47.726562 385.117188 41.121094 389.601562 C 35.488281 393.429688 28.378906 395.425781 21.644531 397.191406 C 14.710938 399.011719 13.265625 395.195312 15.492188 389.179688 C 17.246094 384.445312 19.535156 379.804688 20.511719 374.90625 C 23.269531 361.050781 30.476562 351.597656 44.15625 346.71875 C 51.488281 344.105469 58.503906 340.199219 65.066406 335.949219 C 71.953125 331.488281 73.601562 324.628906 69.292969 317.445312 C 65.234375 310.675781 60.125 311.949219 53.191406 314.578125 C 45.832031 317.363281 37.144531 317.316406 29.042969 317.273438 C 22.820312 317.246094 23.648438 312.929688 26.296875 309.039062 C 30.035156 303.554688 34.804688 298.570312 37.507812 292.636719 C 42.554688 281.558594 50.410156 275.59375 62.4375 273.777344 C 70.535156 272.550781 78.480469 269.976562 86.320312 267.460938 C 94.617188 264.796875 96.828125 258.160156 94.8125 250.476562 C 92.8125 242.847656 87.308594 241.695312 79.976562 243.519531 C 75.148438 244.722656 69.746094 244.742188 64.796875 244.003906 C 60.878906 243.417969 57.257812 240.871094 53.503906 239.195312 C 55.664062 236.164062 57.789062 233.101562 60.007812 230.109375 C 61.410156 228.21875 63.128906 226.550781 64.417969 224.589844 C 73.894531 210.15625 86.773438 203.214844 104.363281 205.429688 C 109.765625 206.113281 115.417969 205.804688 120.835938 205.070312 C 129.144531 203.945312 135.625 196.75 134.445312 189.949219 C 133.015625 181.734375 128.117188 178.75 119.296875 178.980469 C 112.570312 179.15625 105.613281 176.210938 99.015625 173.917969 C 92.519531 171.65625 92.21875 168.039062 98.210938 164.261719 C 105.464844 159.6875 112.9375 155.40625 119.847656 150.359375 C 126.292969 145.648438 132.578125 143.578125 140.695312 145.71875 C 149.777344 148.109375 159.171875 149.453125 168.503906 150.714844 C 176.523438 151.796875 182.6875 148.503906 184.46875 140.28125 C 186.296875 131.847656 182.136719 127.519531 173.722656 125.203125 C 166.71875 123.273438 159.988281 119.605469 153.804688 115.65625 C 148.21875 112.089844 150.382812 108.730469 155.773438 106.667969 C 161.550781 104.457031 167.625 102.707031 172.929688 99.648438 C 183.300781 93.671875 193.152344 92.640625 204.152344 98.34375 C 212.125 102.476562 220.785156 105.550781 229.453125 107.972656 C 236.960938 110.074219 242.628906 106.125 245.132812 98.949219 C 247.398438 92.464844 244.78125 88.363281 238.433594 84.796875 C 232.164062 81.273438 226.992188 75.601562 221.855469 70.367188 C 219.9375 68.414062 219.480469 65.023438 218.355469 62.289062 C 221.554688 61.675781 224.738281 60.96875 227.953125 60.476562 C 230.597656 60.070312 233.519531 60.507812 235.914062 59.558594 C 251.699219 53.285156 265.617188 55.644531 278.101562 67.410156 C 281.484375 70.597656 285.625 73.296875 289.882812 75.15625 C 294.011719 76.957031 299.257812 79.117188 303.058594 77.96875 C 307.207031 76.71875 311.867188 72.390625 313.238281 68.363281 C 314.195312 65.546875 310.4375 60.667969 308.007812 57.261719 C 303.96875 51.601562 299.046875 46.5625 295.039062 40.875 C 293.632812 38.878906 293.832031 35.75 293.292969 33.136719 C 296.195312 32.640625 299.085938 31.867188 302.003906 31.714844 C 306.644531 31.476562 311.394531 32.238281 315.941406 31.542969 C 328.84375 29.574219 338.726562 33.722656 346.890625 43.964844 C 352.242188 50.679688 358.441406 56.949219 365.164062 62.28125 C 371.597656 67.386719 378.6875 66.003906 384 59.6875 C 388.902344 53.855469 387.148438 49.261719 382.222656 43.320312 C 377.214844 37.28125 374.53125 29.042969 371.894531 21.398438 C 370.183594 16.441406 372.984375 14.03125 378.421875 15.777344 C 385.714844 18.117188 392.925781 21.152344 400.417969 22.335938 C 410.230469 23.890625 416.898438 28.582031 421.71875 37.097656 C 426.359375 45.296875 431.300781 53.402344 436.945312 60.921875 C 441.46875 66.953125 448.199219 68.414062 454.765625 64.128906 C 461.324219 59.851562 462.132812 54.238281 458.542969 46.792969 C 455.390625 40.25 454.113281 32.742188 452.523438 25.550781 C 452.109375 23.6875 453.050781 20.285156 454.402344 19.59375 C 455.972656 18.785156 458.851562 19.777344 460.847656 20.6875 C 467.171875 23.566406 473.152344 27.296875 479.632812 29.722656 C 489.207031 33.3125 495.292969 39.28125 498.089844 49.363281 C 500.5 58.039062 503.859375 66.523438 507.59375 74.730469 C 511.007812 82.226562 517.738281 85.019531 525.28125 81.898438 C 532.886719 78.753906 534.46875 72.910156 532.089844 64.457031 C 530.171875 57.636719 530.914062 49.871094 531.484375 42.605469 C 532.117188 34.488281 536.128906 36.140625 540.59375 40.289062 C 545.425781 44.773438 549.972656 49.894531 555.570312 53.152344 C 565.90625 59.164062 569.785156 67.867188 570.625 79.277344 C 571.28125 88.222656 572.785156 97.257812 575.253906 105.871094 C 577.488281 113.679688 584.386719 115.117188 591.597656 113.414062 C 598.5 111.78125 600.5 107.097656 599.863281 100.050781 C 599.386719 94.746094 600.246094 89.117188 601.609375 83.917969 C 602.636719 79.992188 605.398438 76.519531 607.386719 72.847656 C 609.902344 75.839844 612.375 78.871094 614.957031 81.804688 C 616.242188 83.269531 617.632812 84.671875 619.140625 85.898438 C 631.542969 95.96875 639.140625 107.8125 634.316406 124.699219 C 633.589844 127.242188 634.214844 130.171875 634.214844 132.921875 C 634.074219 132.921875 633.929688 132.921875 633.785156 132.921875 Z M 473.375 406.558594 C 473.554688 366.257812 443.902344 336.199219 403.875 336.105469 C 365.417969 336.019531 333.398438 367.964844 334.402344 407.257812 C 335.378906 445.617188 363.148438 476.21875 403.609375 475.308594 C 443.375 475.375 473.199219 445.984375 473.375 406.558594 Z M 473.375 406.558594 " fill-opacity="1" fill-rule="nonzero"/></g></svg>