<svg xmlns="http://www.w3.org/2000/svg" xmlns:xlink="http://www.w3.org/1999/xlink" width="1080" zoomAndPan="magnify" viewBox="0 0 810 809.999993" height="1080" preserveAspectRatio="xMidYMid meet" version="1.0"><defs><clipPath id="5494e396ea"><path d="M 12.164062 20 L 798.164062 20 L 798.164062 803.1875 L 12.164062 803.1875 Z M 12.164062 20 " clip-rule="nonzero"/></clipPath></defs><g clip-path="url(#5494e396ea)"><path fill="#000000" d="M 476.855469 493.6875 C 513.003906 482.203125 529.136719 496.398438 538.125 511.40625 C 571.117188 502.953125 584.328125 518.230469 591.03125 525.480469 C 592.355469 526.367188 595.820312 531.113281 602.855469 529.925781 C 628.796875 525.582031 646.074219 543.066406 646.578125 559.878906 L 651.132812 711.277344 C 651.464844 722.394531 649.804688 731.929688 646.210938 742.445312 L 632.554688 782.253906 C 628.183594 795.003906 616.71875 803.1875 603.234375 803.1875 L 435.957031 803.1875 C 424.734375 803.1875 415.109375 797.726562 409.351562 788.09375 L 359.933594 705.386719 C 353.644531 694.859375 349.199219 685.335938 345.199219 673.765625 L 305.882812 560.257812 C 284.078125 507.003906 345.359375 485.148438 366.695312 530.941406 L 408.46875 618.03125 L 393.367188 345.871094 C 389.867188 302.433594 442.417969 297.964844 447.316406 340.066406 L 464.394531 486.804688 C 465.316406 494.792969 472.867188 494.953125 476.855469 493.6875 Z M 672.128906 225.933594 C 741.683594 225.933594 798.066406 282.28125 798.066406 351.796875 C 798.066406 421.300781 741.683594 477.648438 672.128906 477.648438 C 602.574219 477.648438 546.191406 421.300781 546.191406 351.796875 C 546.191406 282.28125 602.574219 225.933594 672.128906 225.933594 Z M 138.199219 225.933594 C 207.746094 225.933594 264.136719 282.28125 264.136719 351.796875 C 264.136719 421.300781 207.746094 477.648438 138.199219 477.648438 C 68.644531 477.648438 12.265625 421.300781 12.265625 351.796875 C 12.265625 282.28125 68.644531 225.933594 138.199219 225.933594 Z M 437.761719 24.675781 C 504.9375 42.667969 544.804688 111.691406 526.804688 178.824219 C 508.804688 245.972656 439.753906 285.816406 372.566406 267.828125 C 305.390625 249.839844 265.523438 180.824219 283.523438 113.679688 C 301.523438 46.53125 370.578125 6.6875 437.761719 24.675781 Z M 360.410156 126.160156 L 387.078125 157.058594 L 452.707031 90.117188 C 455.554688 87.222656 460.34375 87.40625 463.152344 90.339844 L 478.402344 106.230469 C 481.226562 109.164062 481.042969 113.800781 478.183594 116.671875 L 399.097656 195.929688 C 389.730469 204.914062 379.882812 204.140625 372.160156 195.207031 L 332.550781 150.222656 C 329.875 147.179688 330.242188 142.464844 333.3125 139.804688 L 349.972656 125.398438 C 351.519531 124.058594 353.328125 123.457031 355.351562 123.617188 C 357.390625 123.765625 359.085938 124.613281 360.410156 126.160156 Z M 360.410156 126.160156 " fill-opacity="1" fill-rule="evenodd"/></g></svg>