<svg xmlns="http://www.w3.org/2000/svg" xmlns:xlink="http://www.w3.org/1999/xlink" width="1080" zoomAndPan="magnify" viewBox="0 0 810 809.999993" height="1080" preserveAspectRatio="xMidYMid meet" version="1.0"><defs><clipPath id="6e6e509c55"><path d="M 283.5 522.75 L 287.25 522.75 L 287.25 526.5 L 283.5 526.5 Z M 283.5 522.75 " clip-rule="nonzero"/></clipPath></defs><g clip-path="url(#6e6e509c55)"><path fill="#ffffff" d="M 283.5 522.75 L 287.25 522.75 L 287.25 526.5 L 283.5 526.5 Z M 283.5 522.75 " fill-opacity="1" fill-rule="nonzero"/></g><path fill="#ffffff" d="M 186.226562 181.007812 C 187.550781 179.519531 188.804688 177.972656 189.984375 176.363281 C 191.164062 174.753906 192.265625 173.09375 193.285156 171.382812 C 194.308594 169.667969 195.246094 167.910156 196.097656 166.109375 C 196.949219 164.304688 197.714844 162.464844 198.390625 160.589844 C 199.070312 158.714844 199.65625 156.808594 200.148438 154.878906 C 200.644531 152.945312 201.046875 150.996094 201.355469 149.023438 C 201.664062 147.054688 201.875 145.074219 201.996094 143.082031 C 202.113281 141.09375 202.136719 139.101562 202.066406 137.109375 C 201.992188 135.113281 201.828125 133.128906 201.566406 131.152344 C 201.304688 129.175781 200.949219 127.214844 200.5 125.273438 C 200.050781 123.328125 199.511719 121.414062 198.878906 119.519531 C 198.246094 117.628906 197.527344 115.773438 196.714844 113.949219 C 195.90625 112.128906 195.011719 110.347656 194.03125 108.609375 C 193.050781 106.875 191.992188 105.1875 190.851562 103.550781 C 189.707031 101.917969 188.492188 100.339844 187.199219 98.820312 C 185.910156 97.300781 184.546875 95.847656 183.117188 94.457031 L 140.554688 51.894531 C 139.816406 51.15625 139.140625 50.363281 138.523438 49.523438 C 137.90625 48.679688 137.351562 47.800781 136.863281 46.878906 C 136.371094 45.953125 135.953125 45 135.605469 44.019531 C 135.257812 43.035156 134.980469 42.03125 134.78125 41.003906 C 134.578125 39.980469 134.453125 38.949219 134.402344 37.90625 C 134.355469 36.863281 134.382812 35.820312 134.484375 34.78125 C 134.589844 33.742188 134.769531 32.71875 135.023438 31.707031 C 135.277344 30.691406 135.605469 29.703125 136.003906 28.738281 C 136.402344 27.777344 136.871094 26.84375 137.40625 25.949219 C 137.945312 25.054688 138.542969 24.203125 139.203125 23.394531 C 139.867188 22.585938 140.582031 21.832031 141.355469 21.128906 C 142.128906 20.429688 142.949219 19.785156 143.816406 19.203125 C 144.683594 18.621094 145.585938 18.109375 146.527344 17.660156 C 147.472656 17.210938 148.441406 16.832031 149.441406 16.527344 C 150.4375 16.21875 151.453125 15.988281 152.484375 15.832031 C 153.515625 15.675781 154.554688 15.59375 155.597656 15.589844 C 158.410156 15.535156 161.21875 15.5625 164.027344 15.675781 C 166.835938 15.789062 169.636719 15.984375 172.433594 16.265625 C 175.230469 16.550781 178.015625 16.914062 180.789062 17.363281 C 183.5625 17.8125 186.320312 18.347656 189.0625 18.964844 C 191.804688 19.578125 194.527344 20.277344 197.226562 21.058594 C 199.925781 21.835938 202.597656 22.699219 205.246094 23.636719 C 207.894531 24.578125 210.511719 25.601562 213.097656 26.699219 C 215.6875 27.796875 218.238281 28.972656 220.753906 30.226562 C 223.269531 31.480469 225.746094 32.804688 228.179688 34.207031 C 230.617188 35.609375 233.007812 37.082031 235.355469 38.628906 C 237.699219 40.175781 240 41.792969 242.25 43.476562 C 244.5 45.160156 246.695312 46.910156 248.839844 48.726562 C 250.984375 50.546875 253.070312 52.425781 255.101562 54.367188 C 257.132812 56.308594 259.101562 58.3125 261.011719 60.375 C 262.921875 62.4375 264.769531 64.554688 266.550781 66.726562 C 268.332031 68.898438 270.046875 71.121094 271.695312 73.398438 C 273.34375 75.675781 274.921875 78 276.429688 80.371094 C 277.941406 82.742188 279.375 85.15625 280.738281 87.613281 C 282.101562 90.074219 283.386719 92.570312 284.601562 95.105469 C 285.8125 97.640625 286.949219 100.210938 288.003906 102.8125 C 289.0625 105.417969 290.039062 108.050781 290.9375 110.714844 C 291.835938 113.375 292.65625 116.0625 293.390625 118.777344 C 294.128906 121.488281 294.78125 124.21875 295.355469 126.972656 C 295.925781 129.722656 296.414062 132.488281 296.820312 135.269531 C 297.226562 138.050781 297.546875 140.84375 297.78125 143.640625 C 298.019531 146.441406 298.171875 149.246094 298.242188 152.058594 C 298.308594 154.867188 298.292969 157.675781 298.191406 160.484375 C 298.089844 163.292969 297.902344 166.097656 297.632812 168.894531 C 297.363281 171.691406 297.007812 174.476562 296.570312 177.253906 C 296.132812 180.027344 295.609375 182.789062 295.003906 185.535156 C 294.398438 188.277344 293.714844 191.003906 292.945312 193.707031 C 292.175781 196.410156 291.324219 199.085938 290.394531 201.738281 L 404.101562 315.441406 L 350.59375 368.949219 L 331.261719 349.613281 C 330.207031 348.558594 329.101562 347.558594 327.945312 346.609375 C 326.789062 345.664062 325.59375 344.777344 324.351562 343.945312 C 323.109375 343.117188 321.828125 342.351562 320.511719 341.648438 C 319.195312 340.945312 317.847656 340.308594 316.46875 339.738281 C 315.089844 339.167969 313.683594 338.664062 312.253906 338.230469 C 310.824219 337.800781 309.378906 337.4375 307.914062 337.148438 C 306.449219 336.855469 304.976562 336.636719 303.488281 336.492188 C 302.003906 336.347656 300.515625 336.273438 299.019531 336.273438 C 297.527344 336.273438 296.039062 336.347656 294.554688 336.496094 C 293.066406 336.640625 291.59375 336.859375 290.128906 337.152344 C 288.664062 337.441406 287.21875 337.804688 285.789062 338.238281 C 284.359375 338.671875 282.957031 339.175781 281.578125 339.746094 C 280.195312 340.320312 278.847656 340.957031 277.53125 341.660156 C 276.214844 342.363281 274.9375 343.128906 273.695312 343.960938 C 272.453125 344.789062 271.257812 345.679688 270.101562 346.625 C 268.949219 347.574219 267.84375 348.574219 266.789062 349.628906 L 266.449219 349.96875 L 204.390625 287.910156 C 201.726562 288.847656 199.035156 289.699219 196.320312 290.46875 C 193.601562 291.242188 190.867188 291.929688 188.105469 292.535156 C 185.347656 293.140625 182.574219 293.660156 179.785156 294.097656 C 176.996094 294.535156 174.195312 294.886719 171.382812 295.15625 C 168.574219 295.425781 165.753906 295.605469 162.933594 295.703125 C 160.109375 295.800781 157.289062 295.8125 154.464844 295.742188 C 151.644531 295.667969 148.824219 295.507812 146.011719 295.265625 C 143.199219 295.019531 140.394531 294.691406 137.601562 294.277344 C 134.808594 293.863281 132.027344 293.367188 129.265625 292.785156 C 126.503906 292.203125 123.757812 291.539062 121.035156 290.789062 C 118.3125 290.042969 115.613281 289.214844 112.941406 288.300781 C 110.269531 287.390625 107.625 286.402344 105.011719 285.328125 C 102.402344 284.257812 99.824219 283.109375 97.277344 281.882812 C 94.734375 280.65625 92.230469 279.351562 89.765625 277.972656 C 87.304688 276.59375 84.882812 275.144531 82.503906 273.617188 C 80.128906 272.09375 77.800781 270.496094 75.519531 268.832031 C 73.242188 267.164062 71.011719 265.429688 68.839844 263.628906 C 66.664062 261.828125 64.542969 259.964844 62.480469 258.035156 C 60.417969 256.105469 58.417969 254.117188 56.476562 252.066406 C 54.535156 250.015625 52.65625 247.910156 50.839844 245.746094 C 49.027344 243.582031 47.28125 241.363281 45.601562 239.09375 C 43.917969 236.824219 42.308594 234.507812 40.769531 232.140625 C 39.230469 229.773438 37.761719 227.359375 36.371094 224.90625 C 34.976562 222.449219 33.65625 219.953125 32.414062 217.417969 C 31.171875 214.882812 30.007812 212.308594 28.917969 209.703125 C 27.832031 207.097656 26.824219 204.460938 25.898438 201.792969 C 24.96875 199.125 24.125 196.433594 23.359375 193.714844 C 22.59375 190.996094 21.914062 188.257812 21.3125 185.5 C 20.714844 182.738281 20.199219 179.964844 19.769531 177.171875 C 19.339844 174.382812 18.992188 171.582031 18.730469 168.769531 C 18.46875 165.957031 18.292969 163.140625 18.203125 160.316406 C 18.113281 157.496094 18.109375 154.671875 18.1875 151.847656 C 18.238281 150.828125 18.363281 149.8125 18.558594 148.808594 C 18.757812 147.804688 19.023438 146.820312 19.363281 145.855469 C 19.703125 144.890625 20.109375 143.953125 20.585938 143.046875 C 21.0625 142.140625 21.597656 141.273438 22.199219 140.445312 C 22.800781 139.617188 23.457031 138.835938 24.171875 138.101562 C 24.886719 137.367188 25.648438 136.6875 26.460938 136.066406 C 27.273438 135.441406 28.125 134.882812 29.019531 134.382812 C 29.910156 133.882812 30.835938 133.449219 31.792969 133.082031 C 32.746094 132.71875 33.726562 132.421875 34.722656 132.199219 C 35.722656 131.972656 36.730469 131.824219 37.75 131.746094 C 38.773438 131.664062 39.792969 131.660156 40.8125 131.730469 C 41.835938 131.800781 42.847656 131.941406 43.847656 132.160156 C 44.847656 132.375 45.828125 132.660156 46.785156 133.019531 C 47.746094 133.375 48.671875 133.800781 49.570312 134.292969 C 50.46875 134.785156 51.324219 135.339844 52.140625 135.953125 C 52.960938 136.570312 53.730469 137.242188 54.449219 137.96875 L 98.832031 182.351562 C 99.550781 183.070312 100.285156 183.769531 101.039062 184.449219 C 101.792969 185.132812 102.5625 185.792969 103.347656 186.4375 C 104.136719 187.082031 104.9375 187.703125 105.753906 188.304688 C 106.570312 188.910156 107.40625 189.492188 108.25 190.050781 C 109.097656 190.613281 109.957031 191.152344 110.832031 191.671875 C 111.707031 192.1875 112.59375 192.683594 113.492188 193.15625 C 114.390625 193.632812 115.300781 194.082031 116.21875 194.511719 C 117.140625 194.9375 118.074219 195.34375 119.015625 195.726562 C 119.957031 196.105469 120.90625 196.464844 121.863281 196.796875 C 122.824219 197.132812 123.792969 197.441406 124.765625 197.726562 C 125.742188 198.011719 126.722656 198.273438 127.710938 198.511719 C 128.699219 198.746094 129.691406 198.957031 130.691406 199.144531 C 131.6875 199.332031 132.691406 199.492188 133.699219 199.628906 C 134.703125 199.765625 135.714844 199.875 136.726562 199.960938 C 137.738281 200.046875 138.75 200.109375 139.765625 200.144531 C 140.78125 200.179688 141.796875 200.191406 142.8125 200.175781 C 143.828125 200.160156 144.84375 200.117188 145.855469 200.050781 C 146.871094 199.984375 147.882812 199.894531 148.890625 199.777344 C 149.898438 199.660156 150.90625 199.515625 151.90625 199.347656 C 152.910156 199.183594 153.90625 198.988281 154.898438 198.773438 C 155.890625 198.554688 156.875 198.3125 157.855469 198.046875 C 158.835938 197.78125 159.808594 197.488281 160.773438 197.171875 C 161.742188 196.859375 162.699219 196.519531 163.648438 196.15625 C 164.59375 195.792969 165.535156 195.40625 166.464844 194.996094 C 167.394531 194.585938 168.3125 194.152344 169.21875 193.695312 C 170.125 193.238281 171.023438 192.761719 171.90625 192.257812 C 172.789062 191.757812 173.660156 191.234375 174.515625 190.691406 C 175.375 190.144531 176.21875 189.582031 177.046875 188.992188 C 177.875 188.40625 178.691406 187.800781 179.488281 187.171875 C 180.285156 186.542969 181.070312 185.898438 181.835938 185.230469 C 182.601562 184.5625 183.351562 183.878906 184.082031 183.171875 C 184.816406 182.46875 185.527344 181.746094 186.226562 181.007812 Z M 785.785156 693.53125 C 785.25 695.539062 784.667969 697.53125 784.035156 699.507812 C 783.398438 701.488281 782.71875 703.449219 781.988281 705.394531 C 781.257812 707.339844 780.480469 709.265625 779.65625 711.171875 C 778.832031 713.078125 777.960938 714.960938 777.046875 716.824219 C 776.128906 718.691406 775.164062 720.53125 774.160156 722.347656 C 773.152344 724.164062 772.101562 725.953125 771.003906 727.71875 C 769.910156 729.484375 768.769531 731.21875 767.589844 732.929688 C 766.410156 734.636719 765.1875 736.316406 763.925781 737.964844 C 762.660156 739.613281 761.359375 741.230469 760.015625 742.816406 C 758.671875 744.402344 757.292969 745.953125 755.875 747.46875 C 754.453125 748.984375 753 750.46875 751.507812 751.914062 C 750.015625 753.359375 748.488281 754.765625 746.929688 756.136719 C 745.367188 757.507812 743.773438 758.839844 742.148438 760.132812 C 740.523438 761.421875 738.867188 762.675781 737.179688 763.886719 C 735.488281 765.097656 733.773438 766.265625 732.027344 767.390625 C 730.285156 768.519531 728.511719 769.601562 726.714844 770.640625 C 724.914062 771.679688 723.09375 772.675781 721.246094 773.625 C 719.398438 774.574219 717.527344 775.480469 715.636719 776.335938 C 713.746094 777.195312 711.832031 778.007812 709.902344 778.769531 C 707.972656 779.535156 706.023438 780.25 704.054688 780.917969 C 702.089844 781.589844 700.105469 782.207031 698.109375 782.777344 C 696.113281 783.351562 694.101562 783.871094 692.078125 784.34375 C 690.058594 784.816406 688.023438 785.238281 685.980469 785.609375 C 683.9375 785.984375 681.886719 786.304688 679.828125 786.578125 C 677.765625 786.847656 675.703125 787.070312 673.632812 787.238281 C 671.5625 787.410156 669.488281 787.53125 667.414062 787.597656 C 665.335938 787.667969 663.261719 787.683594 661.183594 787.648438 C 659.105469 787.617188 657.03125 787.53125 654.960938 787.394531 C 652.886719 787.261719 650.820312 787.074219 648.753906 786.835938 C 646.691406 786.601562 644.636719 786.3125 642.585938 785.972656 C 640.535156 785.636719 638.496094 785.246094 636.464844 784.808594 C 634.4375 784.371094 632.417969 783.882812 630.410156 783.34375 C 628.40625 782.808594 626.414062 782.222656 624.433594 781.585938 C 622.457031 780.949219 620.496094 780.265625 618.554688 779.535156 C 616.609375 778.804688 614.683594 778.023438 612.777344 777.199219 C 610.871094 776.371094 608.988281 775.5 607.125 774.578125 C 605.261719 773.660156 603.425781 772.695312 601.609375 771.6875 C 599.792969 770.679688 598.003906 769.625 596.238281 768.527344 C 594.476562 767.429688 592.742188 766.289062 591.03125 765.109375 C 589.324219 763.925781 587.648438 762.703125 586 761.4375 C 584.351562 760.171875 582.738281 758.867188 581.152344 757.523438 C 579.570312 756.179688 578.019531 754.796875 576.503906 753.375 C 574.988281 751.957031 573.507812 750.5 572.066406 749.003906 C 570.621094 747.511719 569.214844 745.984375 567.84375 744.421875 C 566.476562 742.859375 565.148438 741.265625 563.855469 739.636719 C 562.566406 738.011719 561.316406 736.351562 560.105469 734.664062 C 558.898438 732.972656 557.730469 731.257812 556.605469 729.511719 C 555.480469 727.765625 554.398438 725.992188 553.363281 724.191406 C 552.324219 722.390625 551.332031 720.570312 550.382812 718.71875 C 549.4375 716.871094 548.535156 715.003906 547.675781 713.109375 C 546.820312 711.21875 546.011719 709.304688 545.25 707.371094 C 544.488281 705.441406 543.773438 703.492188 543.105469 701.523438 C 542.441406 699.554688 541.824219 697.574219 541.253906 695.574219 C 540.683594 693.578125 540.164062 691.566406 539.695312 689.542969 C 539.226562 687.519531 538.804688 685.488281 538.433594 683.445312 C 538.0625 681.398438 537.746094 679.347656 537.476562 677.289062 C 537.207031 675.230469 536.988281 673.164062 536.820312 671.09375 C 536.648438 669.023438 536.53125 666.949219 536.46875 664.875 C 536.402344 662.796875 536.386719 660.722656 536.421875 658.644531 C 536.457031 656.566406 536.542969 654.492188 536.683594 652.421875 C 536.820312 650.347656 537.007812 648.28125 537.246094 646.21875 C 537.488281 644.152344 537.777344 642.097656 538.117188 640.046875 C 538.457031 638 538.847656 635.960938 539.289062 633.929688 C 539.730469 631.898438 540.21875 629.882812 540.757812 627.875 C 541.007812 626.945312 541.367188 626.078125 541.636719 625.15625 L 455.707031 539.226562 L 456.046875 538.886719 C 457.101562 537.832031 458.101562 536.722656 459.046875 535.570312 C 459.992188 534.414062 460.878906 533.214844 461.707031 531.972656 C 462.535156 530.730469 463.300781 529.449219 464 528.132812 C 464.703125 526.816406 465.339844 525.46875 465.910156 524.089844 C 466.480469 522.707031 466.984375 521.304688 467.414062 519.875 C 467.847656 518.445312 468.210938 517 468.5 515.535156 C 468.789062 514.070312 469.007812 512.597656 469.15625 511.109375 C 469.300781 509.625 469.375 508.136719 469.375 506.644531 C 469.375 505.148438 469.300781 503.660156 469.15625 502.175781 C 469.007812 500.6875 468.789062 499.214844 468.5 497.75 C 468.210938 496.285156 467.847656 494.839844 467.414062 493.410156 C 466.984375 491.980469 466.480469 490.578125 465.910156 489.195312 C 465.339844 487.816406 464.703125 486.46875 464 485.152344 C 463.300781 483.835938 462.535156 482.554688 461.707031 481.3125 C 460.878906 480.070312 459.992188 478.871094 459.046875 477.714844 C 458.101562 476.5625 457.101562 475.453125 456.046875 474.398438 L 436.722656 455.078125 L 490.230469 401.570312 L 627.738281 539.082031 C 630.421875 538.289062 633.132812 537.589844 635.863281 536.980469 C 638.59375 536.367188 641.339844 535.847656 644.105469 535.417969 C 646.871094 534.992188 649.648438 534.65625 652.4375 534.410156 C 655.222656 534.164062 658.015625 534.011719 660.8125 533.953125 C 663.609375 533.894531 666.40625 533.925781 669.203125 534.050781 C 672 534.179688 674.789062 534.398438 677.566406 534.707031 C 680.347656 535.019531 683.117188 535.421875 685.871094 535.914062 C 688.625 536.410156 691.359375 536.992188 694.078125 537.667969 C 696.792969 538.34375 699.480469 539.109375 702.148438 539.960938 C 704.8125 540.816406 707.445312 541.757812 710.046875 542.785156 C 712.652344 543.8125 715.214844 544.925781 717.746094 546.125 C 720.273438 547.324219 722.761719 548.605469 725.203125 549.96875 C 727.648438 551.332031 730.042969 552.773438 732.390625 554.296875 C 734.742188 555.816406 737.035156 557.417969 739.277344 559.089844 C 741.519531 560.765625 743.703125 562.511719 745.832031 564.332031 C 747.957031 566.148438 750.019531 568.035156 752.023438 569.992188 C 754.023438 571.949219 755.957031 573.96875 757.824219 576.050781 C 759.695312 578.136719 761.488281 580.28125 763.214844 582.484375 C 764.941406 584.6875 766.589844 586.945312 768.167969 589.257812 C 769.742188 591.570312 771.238281 593.929688 772.660156 596.34375 C 774.078125 598.753906 775.414062 601.210938 776.671875 603.710938 C 777.929688 606.210938 779.101562 608.75 780.1875 611.328125 C 781.277344 613.90625 782.277344 616.519531 783.191406 619.164062 C 784.109375 621.808594 784.933594 624.480469 785.671875 627.179688 C 786.410156 629.878906 787.058594 632.597656 787.613281 635.339844 C 788.171875 638.085938 788.636719 640.839844 789.011719 643.613281 C 789.386719 646.386719 789.667969 649.171875 789.859375 651.960938 C 790.050781 654.753906 790.148438 657.550781 790.152344 660.347656 C 790.15625 663.144531 790.070312 665.941406 789.886719 668.734375 C 789.707031 671.527344 789.433594 674.308594 789.070312 677.085938 C 788.707031 679.859375 788.25 682.617188 787.699219 685.363281 C 787.152344 688.105469 786.515625 690.828125 785.785156 693.53125 Z M 752.507812 636.792969 L 687.183594 571.464844 L 597.945312 595.378906 L 574.035156 684.613281 L 639.363281 749.941406 L 728.597656 726.03125 Z M 787.59375 40.78125 C 787.933594 41.125 788.246094 41.488281 788.523438 41.882812 C 788.800781 42.273438 789.046875 42.6875 789.253906 43.121094 C 789.464844 43.554688 789.636719 44.003906 789.769531 44.464844 C 789.902344 44.929688 790 45.398438 790.054688 45.878906 C 790.109375 46.355469 790.121094 46.835938 790.097656 47.316406 C 790.070312 47.796875 790.003906 48.273438 789.898438 48.742188 C 789.792969 49.210938 789.648438 49.667969 789.464844 50.113281 C 789.28125 50.558594 789.0625 50.984375 788.808594 51.394531 L 714.023438 171.25 C 713.347656 172.335938 712.480469 173.242188 711.421875 173.960938 C 710.363281 174.683594 709.207031 175.164062 707.949219 175.402344 L 664.5625 183.566406 L 393.050781 455.078125 L 434.207031 496.234375 C 434.890625 496.917969 435.5 497.660156 436.035156 498.464844 C 436.574219 499.269531 437.027344 500.117188 437.398438 501.011719 C 437.769531 501.902344 438.046875 502.824219 438.234375 503.773438 C 438.425781 504.722656 438.519531 505.679688 438.519531 506.644531 C 438.519531 507.613281 438.425781 508.570312 438.234375 509.519531 C 438.046875 510.464844 437.765625 511.386719 437.398438 512.28125 C 437.027344 513.171875 436.574219 514.023438 436.035156 514.824219 C 435.5 515.628906 434.890625 516.375 434.207031 517.058594 L 419.296875 531.964844 C 418.828125 532.410156 418.324219 532.816406 417.785156 533.179688 C 417.25 533.542969 416.6875 533.859375 416.097656 534.128906 C 415.507812 534.398438 414.902344 534.617188 414.273438 534.789062 C 413.648438 534.957031 413.015625 535.074219 412.371094 535.140625 C 411.726562 535.207031 411.078125 535.21875 410.433594 535.175781 C 409.785156 535.132812 409.144531 535.039062 408.515625 534.894531 C 407.882812 534.746094 407.269531 534.550781 406.667969 534.300781 C 406.070312 534.054688 405.496094 533.757812 404.945312 533.417969 C 403.324219 532.496094 401.636719 531.710938 399.886719 531.066406 C 398.136719 530.421875 396.34375 529.921875 394.511719 529.566406 C 392.679688 529.214844 390.832031 529.011719 388.96875 528.960938 C 387.101562 528.90625 385.246094 529.003906 383.398438 529.257812 C 381.546875 529.507812 379.734375 529.90625 377.949219 530.453125 C 376.164062 531 374.4375 531.6875 372.765625 532.515625 C 371.09375 533.34375 369.5 534.300781 367.984375 535.390625 C 366.46875 536.476562 365.050781 537.679688 363.734375 539 C 362.414062 540.320312 361.210938 541.734375 360.121094 543.25 C 359.035156 544.765625 358.074219 546.359375 357.246094 548.03125 C 356.417969 549.703125 355.730469 551.433594 355.183594 553.214844 C 354.636719 555 354.238281 556.816406 353.988281 558.664062 C 353.738281 560.511719 353.640625 562.371094 353.691406 564.234375 C 353.742188 566.101562 353.945312 567.949219 354.300781 569.78125 C 354.65625 571.613281 355.152344 573.402344 355.800781 575.152344 C 356.445312 576.902344 357.226562 578.589844 358.148438 580.210938 C 358.492188 580.761719 358.789062 581.335938 359.035156 581.9375 C 359.285156 582.535156 359.480469 583.148438 359.628906 583.78125 C 359.773438 584.414062 359.867188 585.050781 359.910156 585.699219 C 359.949219 586.34375 359.9375 586.992188 359.875 587.636719 C 359.808594 588.28125 359.691406 588.917969 359.519531 589.542969 C 359.351562 590.167969 359.128906 590.773438 358.859375 591.363281 C 358.589844 591.953125 358.273438 592.515625 357.910156 593.054688 C 357.546875 593.589844 357.144531 594.09375 356.699219 594.566406 L 193.875 757.386719 C 192.683594 758.578125 191.464844 759.742188 190.21875 760.875 C 188.96875 762.011719 187.695312 763.113281 186.390625 764.183594 C 185.089844 765.253906 183.761719 766.292969 182.410156 767.296875 C 181.054688 768.304688 179.679688 769.273438 178.277344 770.214844 C 176.878906 771.152344 175.453125 772.054688 174.007812 772.921875 C 172.5625 773.789062 171.097656 774.621094 169.609375 775.417969 C 168.125 776.214844 166.621094 776.972656 165.097656 777.695312 C 163.574219 778.417969 162.03125 779.101562 160.476562 779.746094 C 158.917969 780.394531 157.347656 781 155.757812 781.570312 C 154.171875 782.140625 152.574219 782.667969 150.960938 783.160156 C 149.347656 783.652344 147.722656 784.101562 146.085938 784.511719 C 144.453125 784.921875 142.808594 785.292969 141.15625 785.625 C 139.5 785.953125 137.839844 786.242188 136.171875 786.492188 C 134.507812 786.738281 132.832031 786.945312 131.15625 787.113281 C 129.476562 787.277344 127.796875 787.402344 126.113281 787.488281 C 124.429688 787.570312 122.746094 787.613281 121.058594 787.613281 C 119.371094 787.617188 117.6875 787.574219 116.003906 787.492188 C 114.320312 787.410156 112.640625 787.289062 110.960938 787.125 C 109.28125 786.957031 107.609375 786.753906 105.941406 786.507812 C 104.273438 786.261719 102.613281 785.972656 100.960938 785.644531 C 99.304688 785.316406 97.660156 784.945312 96.027344 784.539062 C 94.390625 784.128906 92.765625 783.679688 91.152344 783.191406 C 89.539062 782.703125 87.9375 782.175781 86.351562 781.605469 C 84.761719 781.039062 83.191406 780.433594 81.632812 779.789062 C 80.074219 779.144531 78.535156 778.460938 77.011719 777.742188 C 75.484375 777.019531 73.980469 776.261719 72.492188 775.46875 C 71.007812 774.671875 69.539062 773.84375 68.09375 772.976562 C 66.648438 772.109375 65.222656 771.207031 63.820312 770.273438 C 62.417969 769.335938 61.042969 768.363281 59.6875 767.359375 C 58.332031 766.355469 57.003906 765.320312 55.699219 764.25 C 54.398438 763.179688 53.121094 762.082031 51.871094 760.949219 C 50.621094 759.816406 49.402344 758.652344 48.210938 757.460938 C 47.015625 756.269531 45.855469 755.046875 44.722656 753.800781 C 43.589844 752.550781 42.488281 751.273438 41.421875 749.96875 C 40.351562 748.667969 39.3125 747.339844 38.308594 745.984375 C 37.304688 744.628906 36.335938 743.25 35.398438 741.851562 C 34.460938 740.449219 33.5625 739.023438 32.695312 737.578125 C 31.828125 736.132812 30.996094 734.664062 30.203125 733.179688 C 29.410156 731.691406 28.652344 730.183594 27.929688 728.660156 C 27.210938 727.136719 26.527344 725.59375 25.882812 724.039062 C 25.238281 722.480469 24.632812 720.90625 24.066406 719.320312 C 23.496094 717.730469 22.96875 716.132812 22.480469 714.519531 C 21.992188 712.90625 21.542969 711.28125 21.132812 709.644531 C 20.722656 708.007812 20.355469 706.363281 20.027344 704.710938 C 19.699219 703.058594 19.410156 701.394531 19.164062 699.730469 C 18.917969 698.0625 18.710938 696.386719 18.546875 694.710938 C 18.382812 693.03125 18.261719 691.351562 18.179688 689.667969 C 18.097656 687.984375 18.054688 686.296875 18.058594 684.613281 C 18.058594 682.925781 18.101562 681.242188 18.183594 679.558594 C 18.265625 677.875 18.390625 676.191406 18.558594 674.515625 C 18.722656 672.835938 18.933594 671.164062 19.179688 669.496094 C 19.429688 667.828125 19.71875 666.167969 20.046875 664.515625 C 20.378906 662.863281 20.75 661.21875 21.160156 659.582031 C 21.570312 657.949219 22.019531 656.324219 22.511719 654.710938 C 23 653.097656 23.53125 651.5 24.101562 649.910156 C 24.667969 648.324219 25.277344 646.753906 25.925781 645.195312 C 26.570312 643.636719 27.253906 642.097656 27.976562 640.574219 C 28.699219 639.050781 29.457031 637.546875 30.253906 636.058594 C 31.050781 634.574219 31.882812 633.109375 32.75 631.664062 C 33.617188 630.21875 34.519531 628.792969 35.457031 627.394531 C 36.398438 625.992188 37.367188 624.613281 38.375 623.261719 C 39.378906 621.910156 40.417969 620.582031 41.488281 619.277344 C 42.558594 617.976562 43.660156 616.703125 44.796875 615.453125 C 45.929688 614.207031 47.09375 612.984375 48.285156 611.792969 L 211.105469 448.972656 C 211.578125 448.527344 212.082031 448.125 212.617188 447.761719 C 213.15625 447.398438 213.71875 447.082031 214.308594 446.8125 C 214.898438 446.542969 215.503906 446.320312 216.128906 446.152344 C 216.753906 445.980469 217.390625 445.863281 218.035156 445.796875 C 218.679688 445.734375 219.324219 445.722656 219.972656 445.761719 C 220.621094 445.804688 221.257812 445.898438 221.890625 446.042969 C 222.523438 446.191406 223.136719 446.386719 223.734375 446.636719 C 224.335938 446.882812 224.910156 447.179688 225.460938 447.523438 C 227.082031 448.441406 228.769531 449.226562 230.519531 449.871094 C 232.269531 450.519531 234.058594 451.015625 235.890625 451.371094 C 237.722656 451.722656 239.570312 451.925781 241.4375 451.980469 C 243.300781 452.03125 245.160156 451.933594 247.007812 451.683594 C 248.855469 451.433594 250.671875 451.03125 252.457031 450.488281 C 254.238281 449.941406 255.96875 449.253906 257.640625 448.425781 C 259.3125 447.597656 260.902344 446.636719 262.417969 445.550781 C 263.933594 444.460938 265.351562 443.257812 266.671875 441.9375 C 267.992188 440.621094 269.195312 439.203125 270.28125 437.6875 C 271.371094 436.171875 272.328125 434.578125 273.15625 432.90625 C 273.984375 431.234375 274.671875 429.507812 275.21875 427.722656 C 275.765625 425.941406 276.164062 424.125 276.414062 422.273438 C 276.664062 420.425781 276.765625 418.570312 276.710938 416.703125 C 276.660156 414.839844 276.457031 412.992188 276.105469 411.160156 C 275.75 409.328125 275.25 407.535156 274.605469 405.785156 C 273.960938 404.035156 273.175781 402.347656 272.257812 400.726562 C 271.914062 400.175781 271.617188 399.601562 271.371094 399.003906 C 271.121094 398.402344 270.925781 397.789062 270.777344 397.15625 C 270.632812 396.527344 270.539062 395.886719 270.496094 395.238281 C 270.453125 394.59375 270.464844 393.945312 270.53125 393.300781 C 270.597656 392.65625 270.714844 392.023438 270.882812 391.398438 C 271.054688 390.769531 271.273438 390.164062 271.542969 389.574219 C 271.816406 388.984375 272.132812 388.421875 272.492188 387.886719 C 272.855469 387.347656 273.261719 386.84375 273.707031 386.375 L 288.613281 371.464844 C 289.296875 370.78125 290.042969 370.171875 290.84375 369.636719 C 291.648438 369.097656 292.496094 368.644531 293.390625 368.273438 C 294.285156 367.90625 295.203125 367.625 296.152344 367.4375 C 297.101562 367.246094 298.058594 367.152344 299.027344 367.152344 C 299.992188 367.152344 300.949219 367.246094 301.898438 367.4375 C 302.847656 367.625 303.765625 367.902344 304.660156 368.273438 C 305.554688 368.644531 306.402344 369.097656 307.207031 369.632812 C 308.011719 370.171875 308.753906 370.78125 309.4375 371.464844 L 350.59375 412.621094 L 622.105469 141.109375 L 630.269531 97.722656 C 630.507812 96.464844 630.988281 95.304688 631.707031 94.25 C 632.429688 93.191406 633.335938 92.324219 634.421875 91.648438 L 754.277344 16.863281 C 754.683594 16.609375 755.113281 16.390625 755.558594 16.207031 C 756.003906 16.023438 756.460938 15.878906 756.929688 15.773438 C 757.398438 15.667969 757.875 15.601562 758.355469 15.574219 C 758.835938 15.550781 759.316406 15.5625 759.792969 15.617188 C 760.273438 15.671875 760.742188 15.769531 761.207031 15.902344 C 761.667969 16.035156 762.117188 16.207031 762.550781 16.417969 C 762.984375 16.625 763.398438 16.871094 763.789062 17.148438 C 764.183594 17.425781 764.546875 17.738281 764.890625 18.078125 Z M 68.242188 713.171875 L 254.75 526.664062 L 224.414062 496.324219 L 78.609375 642.125 C 77.476562 643.257812 76.390625 644.4375 75.351562 645.65625 C 74.308594 646.878906 73.320312 648.140625 72.382812 649.441406 C 71.445312 650.742188 70.558594 652.078125 69.726562 653.449219 C 68.894531 654.820312 68.121094 656.222656 67.402344 657.65625 C 66.679688 659.089844 66.019531 660.550781 65.417969 662.039062 C 64.816406 663.523438 64.273438 665.03125 63.792969 666.5625 C 63.3125 668.09375 62.890625 669.640625 62.535156 671.203125 C 62.175781 672.765625 61.882812 674.339844 61.648438 675.929688 C 61.417969 677.515625 61.25 679.109375 61.144531 680.710938 C 61.042969 682.3125 61.003906 683.914062 61.027344 685.515625 C 61.050781 687.121094 61.140625 688.722656 61.292969 690.316406 C 61.445312 691.914062 61.660156 693.503906 61.941406 695.082031 C 62.21875 696.660156 62.5625 698.226562 62.96875 699.777344 C 63.371094 701.332031 63.839844 702.863281 64.367188 704.378906 C 64.894531 705.894531 65.480469 707.382812 66.128906 708.851562 C 66.777344 710.320312 67.480469 711.757812 68.242188 713.171875 Z M 309.351562 581.265625 L 279.007812 550.921875 L 92.5 737.429688 C 93.910156 738.191406 95.351562 738.898438 96.820312 739.542969 C 98.289062 740.191406 99.777344 740.777344 101.292969 741.304688 C 102.808594 741.835938 104.339844 742.300781 105.894531 742.707031 C 107.445312 743.109375 109.011719 743.453125 110.589844 743.730469 C 112.171875 744.011719 113.757812 744.226562 115.355469 744.378906 C 116.953125 744.53125 118.554688 744.621094 120.15625 744.644531 C 121.761719 744.667969 123.363281 744.628906 124.964844 744.527344 C 126.566406 744.421875 128.160156 744.253906 129.746094 744.023438 C 131.335938 743.789062 132.910156 743.496094 134.472656 743.136719 C 136.039062 742.78125 137.585938 742.359375 139.113281 741.878906 C 140.644531 741.398438 142.152344 740.855469 143.640625 740.253906 C 145.125 739.652344 146.585938 738.988281 148.019531 738.269531 C 149.453125 737.550781 150.855469 736.777344 152.230469 735.945312 C 153.601562 735.113281 154.9375 734.226562 156.238281 733.289062 C 157.539062 732.351562 158.800781 731.363281 160.023438 730.320312 C 161.242188 729.28125 162.421875 728.195312 163.554688 727.0625 Z M 309.351562 581.265625 " fill-opacity="1" fill-rule="nonzero"/></svg>