<svg xmlns="http://www.w3.org/2000/svg" xmlns:xlink="http://www.w3.org/1999/xlink" width="1080" zoomAndPan="magnify" viewBox="0 0 810 809.999993" height="1080" preserveAspectRatio="xMidYMid meet" version="1.0"><defs><clipPath id="db059897f9"><path d="M 366 262 L 754.316406 262 L 754.316406 806.140625 L 366 806.140625 Z M 366 262 " clip-rule="nonzero"/></clipPath><clipPath id="bdcab2a7e3"><path d="M 366 262 L 754.316406 262 L 754.316406 806.140625 L 366 806.140625 Z M 366 262 " clip-rule="nonzero"/></clipPath></defs><g clip-path="url(#db059897f9)"><path fill="#ffffff" d="M 751.9375 398.257812 L 622.605469 265.097656 C 618.03125 260.382812 610.042969 263.625 610.042969 270.191406 L 610.042969 359.082031 C 577.242188 359.097656 545.398438 365.542969 515.394531 378.234375 C 486.390625 390.5 460.355469 408.050781 438.007812 430.398438 C 415.660156 452.75 398.109375 478.785156 385.839844 507.785156 C 373.132812 537.832031 366.6875 569.726562 366.6875 602.582031 L 366.6875 806.1875 L 455.621094 806.1875 L 455.621094 602.582031 C 455.621094 517.402344 524.882812 448.097656 610.042969 448.015625 L 610.042969 536.519531 C 610.042969 543.089844 618.027344 546.328125 622.605469 541.613281 L 751.9375 408.453125 C 754.695312 405.613281 754.695312 401.097656 751.9375 398.257812 Z M 751.9375 398.257812 " fill-opacity="1" fill-rule="nonzero"/><path fill="#ffffff" d="M 751.9375 398.257812 L 622.605469 265.097656 C 618.03125 260.382812 610.042969 263.625 610.042969 270.191406 L 610.042969 359.082031 C 577.242188 359.097656 545.398438 365.542969 515.394531 378.234375 C 486.390625 390.5 460.355469 408.050781 438.007812 430.398438 C 415.660156 452.75 398.109375 478.785156 385.839844 507.785156 C 373.132812 537.832031 366.6875 569.726562 366.6875 602.582031 L 366.6875 806.1875 L 455.621094 806.1875 L 455.621094 602.582031 C 455.621094 517.402344 524.882812 448.097656 610.042969 448.015625 L 610.042969 536.519531 C 610.042969 543.089844 618.027344 546.328125 622.605469 541.613281 L 751.9375 408.453125 C 754.695312 405.613281 754.695312 401.097656 751.9375 398.257812 Z M 751.9375 398.257812 " fill-opacity="1" fill-rule="nonzero"/></g><path fill="#ffffff" d="M 356.871094 495.527344 C 364.503906 477.480469 373.953125 460.453125 385.117188 444.574219 C 380.949219 439.699219 376.582031 434.96875 372.007812 430.394531 C 349.660156 408.046875 323.625 390.496094 294.621094 378.230469 C 264.617188 365.539062 232.773438 359.09375 199.96875 359.074219 L 199.96875 270.1875 C 199.96875 263.621094 191.984375 260.378906 187.40625 265.09375 L 58.078125 398.253906 C 55.320312 401.09375 55.320312 405.609375 58.078125 408.445312 L 187.40625 541.609375 C 191.984375 546.320312 199.96875 543.078125 199.96875 536.511719 L 199.96875 448.011719 C 263.589844 448.066406 318.335938 486.765625 341.960938 541.847656 C 345.527344 526.0625 350.5 510.589844 356.871094 495.527344 Z M 356.871094 495.527344 " fill-opacity="1" fill-rule="nonzero"/><path fill="#ffffff" d="M 549.558594 135.902344 L 416.394531 6.574219 C 413.558594 3.816406 409.042969 3.816406 406.203125 6.574219 L 273.042969 135.902344 C 268.328125 140.480469 271.570312 148.464844 278.136719 148.464844 L 367.261719 148.464844 L 367.261719 394.640625 C 374.671875 400.621094 381.789062 407.015625 388.589844 413.816406 C 392.390625 417.617188 396.117188 421.582031 399.714844 425.636719 C 404.789062 419.609375 410.144531 413.777344 415.765625 408.15625 C 427.339844 396.578125 439.792969 386.148438 453.050781 376.902344 L 453.050781 148.464844 L 544.460938 148.464844 C 551.03125 148.464844 554.269531 140.480469 549.558594 135.902344 Z M 549.558594 135.902344 " fill-opacity="1" fill-rule="nonzero"/><path fill="#ffffff" d="M 356.871094 495.527344 C 364.503906 477.480469 373.953125 460.453125 385.117188 444.574219 C 380.949219 439.699219 376.582031 434.96875 372.007812 430.394531 C 349.660156 408.046875 323.625 390.496094 294.621094 378.230469 C 264.617188 365.539062 232.773438 359.09375 199.96875 359.074219 L 199.96875 270.1875 C 199.96875 263.621094 191.984375 260.378906 187.40625 265.09375 L 58.078125 398.253906 C 55.320312 401.09375 55.320312 405.609375 58.078125 408.445312 L 187.40625 541.609375 C 191.984375 546.320312 199.96875 543.078125 199.96875 536.511719 L 199.96875 448.011719 C 263.589844 448.066406 318.335938 486.765625 341.960938 541.847656 C 345.527344 526.0625 350.5 510.589844 356.871094 495.527344 Z M 356.871094 495.527344 " fill-opacity="1" fill-rule="nonzero"/><g clip-path="url(#bdcab2a7e3)"><path fill="#ffffff" d="M 751.9375 398.257812 L 622.605469 265.097656 C 618.03125 260.382812 610.042969 263.625 610.042969 270.191406 L 610.042969 359.082031 C 577.242188 359.097656 545.398438 365.542969 515.394531 378.234375 C 486.390625 390.5 460.355469 408.050781 438.007812 430.398438 C 415.660156 452.75 398.109375 478.785156 385.839844 507.785156 C 373.132812 537.832031 366.6875 569.726562 366.6875 602.582031 L 366.6875 806.1875 L 455.621094 806.1875 L 455.621094 602.582031 C 455.621094 517.402344 524.882812 448.097656 610.042969 448.015625 L 610.042969 536.519531 C 610.042969 543.089844 618.027344 546.328125 622.605469 541.613281 L 751.9375 408.453125 C 754.695312 405.613281 754.695312 401.097656 751.9375 398.257812 Z M 751.9375 398.257812 " fill-opacity="1" fill-rule="nonzero"/></g></svg>