<svg xmlns="http://www.w3.org/2000/svg" xmlns:xlink="http://www.w3.org/1999/xlink" width="1080" zoomAndPan="magnify" viewBox="0 0 810 809.999993" height="1080" preserveAspectRatio="xMidYMid meet" version="1.0"><defs><filter x="0%" y="0%" width="100%" height="100%" id="9397020fcc"><feColorMatrix values="0 0 0 0 1 0 0 0 0 1 0 0 0 0 1 0 0 0 1 0" color-interpolation-filters="sRGB"/></filter><mask id="a538ae4710"><g filter="url(#9397020fcc)"><rect x="-81" width="972" fill="#000000" y="-80.999999" height="971.999992" fill-opacity="0.57"/></g></mask><clipPath id="751935e2cb"><path d="M 66 0 L 69 0 L 69 810 L 66 810 Z M 66 0 " clip-rule="nonzero"/></clipPath><clipPath id="a89a45728a"><path d="M 133 0 L 137 0 L 137 810 L 133 810 Z M 133 0 " clip-rule="nonzero"/></clipPath><clipPath id="2758dda964"><path d="M 201 0 L 204 0 L 204 810 L 201 810 Z M 201 0 " clip-rule="nonzero"/></clipPath><clipPath id="88b2b25462"><path d="M 268 0 L 272 0 L 272 810 L 268 810 Z M 268 0 " clip-rule="nonzero"/></clipPath><clipPath id="df1bfe2def"><path d="M 336 0 L 339 0 L 339 810 L 336 810 Z M 336 0 " clip-rule="nonzero"/></clipPath><clipPath id="ef8f7ee34d"><path d="M 403 0 L 407 0 L 407 810 L 403 810 Z M 403 0 " clip-rule="nonzero"/></clipPath><clipPath id="29b07a06b7"><path d="M 471 0 L 474 0 L 474 810 L 471 810 Z M 471 0 " clip-rule="nonzero"/></clipPath><clipPath id="bdcc21b681"><path d="M 538 0 L 542 0 L 542 810 L 538 810 Z M 538 0 " clip-rule="nonzero"/></clipPath><clipPath id="89074aa9fb"><path d="M 606 0 L 609 0 L 609 810 L 606 810 Z M 606 0 " clip-rule="nonzero"/></clipPath><clipPath id="91f0579377"><path d="M 673 0 L 677 0 L 677 810 L 673 810 Z M 673 0 " clip-rule="nonzero"/></clipPath><clipPath id="0bcc988529"><path d="M 741 0 L 744 0 L 744 810 L 741 810 Z M 741 0 " clip-rule="nonzero"/></clipPath><clipPath id="9edf35c5ae"><path d="M 0 66 L 810 66 L 810 69 L 0 69 Z M 0 66 " clip-rule="nonzero"/></clipPath><clipPath id="03ec8376a6"><path d="M 0 133 L 810 133 L 810 137 L 0 137 Z M 0 133 " clip-rule="nonzero"/></clipPath><clipPath id="076b8cfd01"><path d="M 0 201 L 810 201 L 810 204 L 0 204 Z M 0 201 " clip-rule="nonzero"/></clipPath><clipPath id="aea1183ac4"><path d="M 0 268 L 810 268 L 810 272 L 0 272 Z M 0 268 " clip-rule="nonzero"/></clipPath><clipPath id="6da0ea90c9"><path d="M 0 336 L 810 336 L 810 339 L 0 339 Z M 0 336 " clip-rule="nonzero"/></clipPath><clipPath id="26fdd37db0"><path d="M 0 403 L 810 403 L 810 407 L 0 407 Z M 0 403 " clip-rule="nonzero"/></clipPath><clipPath id="932e6a1877"><path d="M 0 471 L 810 471 L 810 474 L 0 474 Z M 0 471 " clip-rule="nonzero"/></clipPath><clipPath id="ab3c229f02"><path d="M 0 538 L 810 538 L 810 542 L 0 542 Z M 0 538 " clip-rule="nonzero"/></clipPath><clipPath id="438e448c2e"><path d="M 0 606 L 810 606 L 810 609 L 0 609 Z M 0 606 " clip-rule="nonzero"/></clipPath><clipPath id="2059504ff7"><path d="M 0 673 L 810 673 L 810 677 L 0 677 Z M 0 673 " clip-rule="nonzero"/></clipPath><clipPath id="d7cda2590e"><path d="M 0 741 L 810 741 L 810 744 L 0 744 Z M 0 741 " clip-rule="nonzero"/></clipPath><clipPath id="97281257c4"><rect x="0" width="810" y="0" height="810"/></clipPath></defs><g mask="url(#a538ae4710)"><g transform="matrix(1, 0, 0, 1, 0, 0.000000000000039746)"><g clip-path="url(#97281257c4)"><g clip-path="url(#751935e2cb)"><path stroke-linecap="butt" transform="matrix(2.025, 0, 0, 2.025, 0.0000035, 0.00002)" fill="none" stroke-linejoin="miter" d="M 33.333333 -0.00000987654 L 33.333333 400.00001 " stroke="#ffffff" stroke-width="1" stroke-opacity="1" stroke-miterlimit="4"/></g><g clip-path="url(#a89a45728a)"><path stroke-linecap="butt" transform="matrix(2.025, 0, 0, 2.025, 0.0000035, 0.00002)" fill="none" stroke-linejoin="miter" d="M 66.666668 -0.00000987654 L 66.666668 400.00001 " stroke="#ffffff" stroke-width="1" stroke-opacity="1" stroke-miterlimit="4"/></g><g clip-path="url(#2758dda964)"><path stroke-linecap="butt" transform="matrix(2.025, 0, 0, 2.025, 0.0000035, 0.00002)" fill="none" stroke-linejoin="miter" d="M 100.000003 -0.00000987654 L 100.000003 400.00001 " stroke="#ffffff" stroke-width="1" stroke-opacity="1" stroke-miterlimit="4"/></g><g clip-path="url(#88b2b25462)"><path stroke-linecap="butt" transform="matrix(2.025, 0, 0, 2.025, 0.0000035, 0.00002)" fill="none" stroke-linejoin="miter" d="M 133.333338 -0.00000987654 L 133.333338 400.00001 " stroke="#ffffff" stroke-width="1" stroke-opacity="1" stroke-miterlimit="4"/></g><g clip-path="url(#df1bfe2def)"><path stroke-linecap="butt" transform="matrix(2.025, 0, 0, 2.025, 0.0000035, 0.00002)" fill="none" stroke-linejoin="miter" d="M 166.666673 -0.00000987654 L 166.666673 400.00001 " stroke="#ffffff" stroke-width="1" stroke-opacity="1" stroke-miterlimit="4"/></g><g clip-path="url(#ef8f7ee34d)"><path stroke-linecap="butt" transform="matrix(2.025, 0, 0, 2.025, 0.0000035, 0.00002)" fill="none" stroke-linejoin="miter" d="M 200.000008 -0.00000987654 L 200.000008 400.00001 " stroke="#ffffff" stroke-width="1" stroke-opacity="1" stroke-miterlimit="4"/></g><g clip-path="url(#29b07a06b7)"><path stroke-linecap="butt" transform="matrix(2.025, 0, 0, 2.025, 0.0000035, 0.00002)" fill="none" stroke-linejoin="miter" d="M 233.333343 -0.00000987654 L 233.333343 400.00001 " stroke="#ffffff" stroke-width="1" stroke-opacity="1" stroke-miterlimit="4"/></g><g clip-path="url(#bdcc21b681)"><path stroke-linecap="butt" transform="matrix(2.025, 0, 0, 2.025, 0.0000035, 0.00002)" fill="none" stroke-linejoin="miter" d="M 266.666678 -0.00000987654 L 266.666678 400.00001 " stroke="#ffffff" stroke-width="1" stroke-opacity="1" stroke-miterlimit="4"/></g><g clip-path="url(#89074aa9fb)"><path stroke-linecap="butt" transform="matrix(2.025, 0, 0, 2.025, 0.0000035, 0.00002)" fill="none" stroke-linejoin="miter" d="M 300.000013 -0.00000987654 L 300.000013 400.00001 " stroke="#ffffff" stroke-width="1" stroke-opacity="1" stroke-miterlimit="4"/></g><g clip-path="url(#91f0579377)"><path stroke-linecap="butt" transform="matrix(2.025, 0, 0, 2.025, 0.0000035, 0.00002)" fill="none" stroke-linejoin="miter" d="M 333.333348 -0.00000987654 L 333.333348 400.00001 " stroke="#ffffff" stroke-width="1" stroke-opacity="1" stroke-miterlimit="4"/></g><g clip-path="url(#0bcc988529)"><path stroke-linecap="butt" transform="matrix(2.025, 0, 0, 2.025, 0.0000035, 0.00002)" fill="none" stroke-linejoin="miter" d="M 366.666683 -0.00000987654 L 366.666683 400.00001 " stroke="#ffffff" stroke-width="1" stroke-opacity="1" stroke-miterlimit="4"/></g><g clip-path="url(#9edf35c5ae)"><path stroke-linecap="butt" transform="matrix(2.025, 0, 0, 2.025, 0.0000035, 0.00002)" fill="none" stroke-linejoin="miter" d="M -0.0000017284 33.333325 L 400.000018 33.333325 " stroke="#ffffff" stroke-width="1" stroke-opacity="1" stroke-miterlimit="4"/></g><g clip-path="url(#03ec8376a6)"><path stroke-linecap="butt" transform="matrix(2.025, 0, 0, 2.025, 0.0000035, 0.00002)" fill="none" stroke-linejoin="miter" d="M -0.0000017284 66.66666 L 400.000018 66.66666 " stroke="#ffffff" stroke-width="1" stroke-opacity="1" stroke-miterlimit="4"/></g><g clip-path="url(#076b8cfd01)"><path stroke-linecap="butt" transform="matrix(2.025, 0, 0, 2.025, 0.0000035, 0.00002)" fill="none" stroke-linejoin="miter" d="M -0.0000017284 99.999995 L 400.000018 99.999995 " stroke="#ffffff" stroke-width="1" stroke-opacity="1" stroke-miterlimit="4"/></g><g clip-path="url(#aea1183ac4)"><path stroke-linecap="butt" transform="matrix(2.025, 0, 0, 2.025, 0.0000035, 0.00002)" fill="none" stroke-linejoin="miter" d="M -0.0000017284 133.33333 L 400.000018 133.33333 " stroke="#ffffff" stroke-width="1" stroke-opacity="1" stroke-miterlimit="4"/></g><g clip-path="url(#6da0ea90c9)"><path stroke-linecap="butt" transform="matrix(2.025, 0, 0, 2.025, 0.0000035, 0.00002)" fill="none" stroke-linejoin="miter" d="M -0.0000017284 166.666665 L 400.000018 166.666665 " stroke="#ffffff" stroke-width="1" stroke-opacity="1" stroke-miterlimit="4"/></g><g clip-path="url(#26fdd37db0)"><path stroke-linecap="butt" transform="matrix(2.025, 0, 0, 2.025, 0.0000035, 0.00002)" fill="none" stroke-linejoin="miter" d="M -0.0000017284 200 L 400.000018 200 " stroke="#ffffff" stroke-width="1" stroke-opacity="1" stroke-miterlimit="4"/></g><g clip-path="url(#932e6a1877)"><path stroke-linecap="butt" transform="matrix(2.025, 0, 0, 2.025, 0.0000035, 0.00002)" fill="none" stroke-linejoin="miter" d="M -0.0000017284 233.333335 L 400.000018 233.333335 " stroke="#ffffff" stroke-width="1" stroke-opacity="1" stroke-miterlimit="4"/></g><g clip-path="url(#ab3c229f02)"><path stroke-linecap="butt" transform="matrix(2.025, 0, 0, 2.025, 0.0000035, 0.00002)" fill="none" stroke-linejoin="miter" d="M -0.0000017284 266.66667 L 400.000018 266.66667 " stroke="#ffffff" stroke-width="1" stroke-opacity="1" stroke-miterlimit="4"/></g><g clip-path="url(#438e448c2e)"><path stroke-linecap="butt" transform="matrix(2.025, 0, 0, 2.025, 0.0000035, 0.00002)" fill="none" stroke-linejoin="miter" d="M -0.0000017284 300.000005 L 400.000018 300.000005 " stroke="#ffffff" stroke-width="1" stroke-opacity="1" stroke-miterlimit="4"/></g><g clip-path="url(#2059504ff7)"><path stroke-linecap="butt" transform="matrix(2.025, 0, 0, 2.025, 0.0000035, 0.00002)" fill="none" stroke-linejoin="miter" d="M -0.0000017284 333.33334 L 400.000018 333.33334 " stroke="#ffffff" stroke-width="1" stroke-opacity="1" stroke-miterlimit="4"/></g><g clip-path="url(#d7cda2590e)"><path stroke-linecap="butt" transform="matrix(2.025, 0, 0, 2.025, 0.0000035, 0.00002)" fill="none" stroke-linejoin="miter" d="M -0.0000017284 366.666675 L 400.000018 366.666675 " stroke="#ffffff" stroke-width="1" stroke-opacity="1" stroke-miterlimit="4"/></g></g></g></g></svg>