<svg width="1132" height="1140" viewBox="0 0 1132 1140" fill="none" xmlns="http://www.w3.org/2000/svg">
<rect x="569.5" y="69.5" width="479" height="19" rx="9.5" transform="rotate(90 569.5 69.5)" fill="#363633" stroke="#363633"/>
<path d="M498 120.5L553.847 13.7598C556.457 8.77196 563.588 8.74841 566.23 13.719L623 120.5" stroke="#363633" stroke-width="20"/>
<rect x="926.374" y="220.782" width="479" height="19" rx="9.5" transform="rotate(135 926.374 220.782)" fill="#363633" stroke="#363633"/>
<path d="M839 204.792L953.967 168.805C959.339 167.124 964.398 172.149 962.752 177.533L927.388 293.18" stroke="#363633" stroke-width="20"/>
<rect x="1069.5" y="577.5" width="479" height="19" rx="9.5" transform="rotate(180 1069.5 577.5)" fill="#363633" stroke="#363633"/>
<path d="M1011 506L1117.74 561.847C1122.73 564.457 1122.75 571.588 1117.78 574.23L1011 631" stroke="#363633" stroke-width="20"/>
<rect x="919.13" y="931.373" width="479" height="19" rx="9.5" transform="rotate(-135 919.13 931.373)" fill="#363633" stroke="#363633"/>
<path d="M935.388 844L971.375 958.966C973.057 964.339 968.031 969.398 962.648 967.752L847 932.388" stroke="#363633" stroke-width="20"/>
<rect x="563.5" y="1077.5" width="479" height="19" rx="9.5" transform="rotate(-90 563.5 1077.5)" fill="#363633" stroke="#363633"/>
<path d="M636 1019L580.153 1125.74C577.543 1130.73 570.412 1130.75 567.77 1125.78L511 1019" stroke="#363633" stroke-width="20"/>
<rect x="206.539" y="928.131" width="479" height="19" rx="9.5" transform="rotate(-45 206.539 928.131)" fill="#363633" stroke="#363633"/>
<path d="M292.181 942.388L177.214 978.375C171.842 980.056 166.783 975.031 168.429 969.648L203.792 854" stroke="#363633" stroke-width="20"/>
<rect x="61.5" y="570.5" width="479" height="19" rx="9.5" fill="#363633" stroke="#363633"/>
<path d="M120.5 643L13.7598 587.153C8.77196 584.543 8.74841 577.412 13.719 574.77L120.5 518" stroke="#363633" stroke-width="20"/>
<rect x="211.782" y="214.539" width="479" height="19" rx="9.5" transform="rotate(45 211.782 214.539)" fill="#363633" stroke="#363633"/>
<path d="M197.792 302.181L161.805 187.214C160.124 181.842 165.149 176.783 170.533 178.429L286.18 213.792" stroke="#363633" stroke-width="20"/>
</svg>
