<svg width="1484" height="2220" viewBox="0 0 1484 2220" fill="none" xmlns="http://www.w3.org/2000/svg">
<path d="M1474 108.5C1474 112.111 1472.09 116.951 1465.5 122.997C1458.92 129.028 1448.66 135.317 1434.52 141.593C1406.31 154.115 1364.86 165.633 1312.86 175.393C1209.04 194.882 1065.19 207 906 207C746.814 207 602.961 194.882 499.137 175.393C447.143 165.633 405.693 154.115 377.479 141.593C363.337 135.317 353.077 129.028 346.503 122.997C339.911 116.951 338 112.111 338 108.5C338 104.889 339.911 100.049 346.503 94.0025C353.077 87.9722 363.337 81.6833 377.479 75.4072C405.693 62.8854 447.143 51.3674 499.137 41.6073C602.961 22.1178 746.814 10 906 10C1065.19 10 1209.04 22.1178 1312.86 41.6073C1364.86 51.3674 1406.31 62.8854 1434.52 75.4072C1448.66 81.6833 1458.92 87.9722 1465.5 94.0025C1472.09 100.049 1474 104.889 1474 108.5Z" fill="#363633" stroke="#363633" stroke-width="20"/>
<path d="M1067 129H787C787 129 542.5 1149.5 500 1256C457.5 1362.5 9 2212 9 2212C9 2212 580.001 1678 681.5 1501.5C782.999 1325 1067 129 1067 129Z" fill="#363636" stroke="#363633" stroke-width="20"/>
</svg>
