<svg width="248" height="282" viewBox="0 0 248 282" fill="none" xmlns="http://www.w3.org/2000/svg">
<path d="M103.742 109L30.0917 231.575C55.6783 256.42 71.7233 265.792 102.995 275.379L176.645 152.804L103.742 109Z" fill="#FBCA01" stroke="#FBCA01" stroke-width="7"/>
<path d="M141.28 47.1427L108.832 101.144L181.692 144.922L214.139 90.9209C190.952 65.0588 175.498 54.6439 141.28 47.1427Z" stroke="#FBCA01" stroke-width="7"/>
<path d="M53.7647 8C36.9497 48.493 25.3586 62.899 2 74.5789C33.119 83.3335 42.7704 95.5026 53.7647 123C62.3518 90.8183 74.769 82.6194 102 74.5789C72.2208 60.4258 62.3599 45.0895 53.7647 8Z" fill="#FBCA01" stroke="#FBCA01"/>
<path d="M221.882 1C213.475 28.1127 207.679 37.7585 196 45.5789C211.56 51.4407 216.385 59.5887 221.882 78C226.176 56.4523 232.384 50.9626 246 45.5789C231.11 36.1025 226.18 25.8338 221.882 1Z" fill="#FBCA01" stroke="#FBCA01"/>
<path d="M206.447 152C192.659 197.423 183.154 213.582 164 226.684C189.518 236.505 197.432 250.155 206.447 281C213.489 244.901 223.671 235.703 246 226.684C221.581 210.808 213.495 193.605 206.447 152Z" fill="#FBCA01" stroke="#FBCA01"/>
</svg>
