<svg xmlns="http://www.w3.org/2000/svg" xmlns:xlink="http://www.w3.org/1999/xlink" width="1080" zoomAndPan="magnify" viewBox="0 0 810 809.999993" height="1080" preserveAspectRatio="xMidYMid meet" version="1.0"><defs><clipPath id="e1c026e87e"><path d="M 7.441406 54.15625 L 802.441406 54.15625 L 802.441406 440 L 7.441406 440 Z M 7.441406 54.15625 " clip-rule="nonzero"/></clipPath></defs><path fill="#ffffff" d="M 376.539062 474.464844 L 376.539062 630.972656 L 354.777344 630.972656 C 347.246094 630.972656 341.386719 638.507812 343.0625 646.039062 L 367.332031 742.289062 C 369.007812 747.3125 373.191406 751.496094 379.050781 751.496094 L 430.941406 751.496094 C 436.800781 751.496094 440.984375 748.148438 442.65625 742.289062 L 466.929688 645.203125 C 468.605469 637.671875 462.746094 630.136719 455.210938 630.136719 L 433.453125 630.136719 L 433.453125 474.464844 Z M 376.539062 474.464844 " fill-opacity="1" fill-rule="nonzero"/><g clip-path="url(#e1c026e87e)"><path fill="#ffffff" d="M 770.742188 132.988281 L 664.449219 132.988281 C 658.59375 132.988281 653.570312 138.007812 653.570312 143.867188 L 653.570312 153.074219 L 591.636719 153.074219 L 591.636719 112.0625 C 591.636719 80.257812 565.691406 54.3125 533.886719 54.3125 L 276.105469 54.3125 C 244.300781 54.3125 218.355469 80.257812 218.355469 112.0625 L 218.355469 153.074219 L 156.421875 153.074219 L 156.421875 143.867188 C 156.421875 138.007812 151.398438 132.988281 145.539062 132.988281 L 39.246094 132.988281 C 21.671875 132.988281 7.441406 147.214844 7.441406 164.792969 L 7.441406 184.878906 C 7.441406 202.453125 21.671875 216.683594 39.246094 216.683594 L 145.539062 216.683594 C 151.398438 216.683594 156.421875 211.660156 156.421875 205.800781 L 156.421875 196.597656 L 218.355469 196.597656 L 218.355469 266.898438 C 218.355469 282.800781 230.910156 295.355469 246.8125 295.355469 L 297.027344 295.355469 L 317.953125 420.898438 C 319.625 431.78125 328.832031 439.3125 339.710938 439.3125 L 470.277344 439.3125 C 481.15625 439.3125 490.363281 431.78125 492.039062 420.898438 L 512.960938 295.355469 L 563.179688 295.355469 C 579.082031 295.355469 591.636719 282.800781 591.636719 266.898438 L 591.636719 196.597656 L 653.570312 196.597656 L 653.570312 205.800781 C 653.570312 211.660156 658.59375 216.683594 664.449219 216.683594 L 770.742188 216.683594 C 788.320312 216.683594 802.546875 202.453125 802.546875 184.878906 L 802.546875 164.792969 C 802.546875 147.214844 788.320312 132.988281 770.742188 132.988281 Z M 338.039062 220.867188 C 338.039062 230.910156 329.667969 239.28125 319.625 239.28125 C 309.582031 239.28125 301.214844 230.910156 301.214844 220.867188 L 301.214844 128.804688 C 301.214844 118.757812 309.582031 110.390625 319.625 110.390625 C 329.667969 110.390625 338.039062 118.757812 338.039062 128.804688 Z M 423.40625 220.867188 C 423.40625 230.910156 415.039062 239.28125 404.996094 239.28125 C 394.953125 239.28125 386.582031 230.910156 386.582031 220.867188 L 386.582031 128.804688 C 386.582031 118.757812 394.953125 110.390625 404.996094 110.390625 C 415.039062 110.390625 423.40625 118.757812 423.40625 128.804688 Z M 509.613281 220.867188 C 509.613281 230.910156 501.246094 239.28125 491.203125 239.28125 C 481.15625 239.28125 472.789062 230.910156 472.789062 220.867188 L 472.789062 128.804688 C 472.789062 118.757812 481.15625 110.390625 491.203125 110.390625 C 501.246094 110.390625 509.613281 118.757812 509.613281 128.804688 Z M 509.613281 220.867188 " fill-opacity="1" fill-rule="nonzero"/></g><path fill="#ffffff" d="M 538.90625 635.996094 C 533.886719 629.300781 523.84375 630.972656 520.496094 638.507812 L 478.648438 736.429688 C 474.460938 746.472656 486.179688 755.679688 494.550781 749.820312 L 569.875 697.09375 C 574.898438 693.746094 575.734375 687.050781 572.386719 682.027344 Z M 538.90625 635.996094 " fill-opacity="1" fill-rule="nonzero"/><path fill="#ffffff" d="M 271.082031 635.996094 C 276.105469 629.300781 286.148438 630.972656 289.496094 638.507812 L 331.34375 736.429688 C 335.527344 746.472656 323.8125 755.679688 315.441406 749.820312 L 240.117188 697.09375 C 235.09375 693.746094 234.257812 687.050781 237.605469 682.027344 Z M 271.082031 635.996094 " fill-opacity="1" fill-rule="nonzero"/></svg>