<svg xmlns="http://www.w3.org/2000/svg" xmlns:xlink="http://www.w3.org/1999/xlink" width="1080" zoomAndPan="magnify" viewBox="0 0 810 809.999993" height="1080" preserveAspectRatio="xMidYMid meet" version="1.0"><defs><clipPath id="530656dc7a"><path d="M 283.5 522.75 L 287.25 522.75 L 287.25 526.5 L 283.5 526.5 Z M 283.5 522.75 " clip-rule="nonzero"/></clipPath></defs><g clip-path="url(#530656dc7a)"><path fill="#ffffff" d="M 283.5 522.75 L 287.25 522.75 L 287.25 526.5 L 283.5 526.5 Z M 283.5 522.75 " fill-opacity="1" fill-rule="nonzero"/></g><path fill="#ffffff" d="M 130.386719 769.753906 C 118.613281 781.496094 99.441406 781.496094 87.667969 769.753906 L 23.636719 705.71875 C 11.863281 693.914062 11.890625 674.773438 23.636719 663.03125 L 346.394531 340.269531 L 453.148438 447.023438 Z M 130.386719 769.753906 " fill-opacity="1" fill-rule="nonzero"/><path fill="#ffffff" d="M 529.859375 156.6875 C 541.664062 144.941406 560.804688 144.941406 572.609375 156.6875 L 636.640625 220.71875 C 648.386719 232.523438 648.386719 251.664062 636.613281 263.4375 L 493.359375 406.71875 L 386.640625 299.96875 Z M 529.859375 156.6875 " fill-opacity="1" fill-rule="nonzero"/><path fill="#ffffff" d="M 788.074219 372.332031 L 728.84375 313.160156 C 728.84375 313.160156 720.148438 309.113281 715.890625 311.289062 C 706.5625 316.058594 679.570312 319.347656 666.226562 305.976562 C 646.785156 286.53125 626.347656 266.15625 626.347656 266.15625 L 545.4375 347.0625 C 545.4375 347.0625 564.15625 365.722656 585.289062 386.882812 C 598.511719 400.105469 596.460938 425.527344 591.78125 434.824219 C 588.972656 440.441406 591.871094 450.101562 591.871094 450.101562 L 651.101562 509.273438 C 662.878906 521.046875 682.015625 521.046875 693.820312 509.304688 L 788.042969 415.050781 C 799.789062 403.277344 799.789062 384.105469 788.074219 372.332031 Z M 788.074219 372.332031 " fill-opacity="1" fill-rule="nonzero"/><path fill="#ffffff" d="M 636.640625 220.960938 C 648.386719 232.734375 648.386719 251.90625 636.640625 263.679688 L 542.417969 357.902344 C 530.613281 369.675781 511.476562 369.644531 499.699219 357.902344 C 499.699219 357.902344 392.34375 293.507812 415.953125 270.382812 C 439.078125 247.738281 435.15625 208.582031 370.035156 140.351562 C 290.785156 57.332031 168.789062 27.019531 168.789062 27.019531 C 168.789062 27.019531 443.394531 27.746094 496.621094 81 C 512.289062 96.609375 636.640625 220.960938 636.640625 220.960938 Z M 636.640625 220.960938 " fill-opacity="1" fill-rule="nonzero"/></svg>