<svg xmlns="http://www.w3.org/2000/svg" xmlns:xlink="http://www.w3.org/1999/xlink" width="1080" zoomAndPan="magnify" viewBox="0 0 810 809.999993" height="1080" preserveAspectRatio="xMidYMid meet" version="1.0"><defs><clipPath id="87fe45c72b"><path d="M 44 7.050781 L 708 7.050781 L 708 323 L 44 323 Z M 44 7.050781 " clip-rule="nonzero"/></clipPath></defs><g clip-path="url(#87fe45c72b)"><path fill="#363633" d="M 375.507812 322.15625 C 485.804688 319.578125 586.09375 305.265625 667.804688 240.304688 C 748.753906 170.503906 693.671875 86.875 607.753906 51.382812 C 531.207031 17.570312 466.21875 8.785156 375.507812 7.054688 C -94.621094 21.714844 -37.015625 321.878906 375.507812 322.15625 Z M 375.507812 72.765625 C 479.59375 72.765625 558.191406 112.277344 558.191406 164.535156 C 555.613281 286.175781 195.460938 286.21875 192.960938 164.535156 C 192.960938 112.277344 271.414062 72.765625 375.507812 72.765625 Z M 375.507812 72.765625 " fill-opacity="1" fill-rule="nonzero"/></g><path fill="#363633" d="M 375.507812 227.980469 C 466.425781 227.980469 529.867188 194.558594 529.867188 164.535156 C 529.867188 134.511719 466.425781 101.089844 375.507812 101.089844 C 284.585938 101.089844 221.285156 134.511719 221.285156 164.535156 C 221.285156 194.558594 284.585938 227.980469 375.507812 227.980469 Z M 375.507812 227.980469 " fill-opacity="1" fill-rule="nonzero"/><path fill="#363633" d="M 146.792969 500.3125 C 165.9375 508.851562 185.625 515.886719 205.847656 521.410156 C 205.847656 502.257812 205.847656 427.394531 205.847656 406.84375 C 205.863281 405.925781 205.96875 405.015625 206.160156 404.117188 C 206.355469 403.21875 206.632812 402.347656 206.996094 401.5 C 207.359375 400.65625 207.800781 399.855469 208.320312 399.097656 C 208.839844 398.339844 209.429688 397.636719 210.082031 396.992188 C 210.738281 396.347656 211.453125 395.773438 212.21875 395.265625 C 212.988281 394.761719 213.796875 394.335938 214.648438 393.988281 C 215.5 393.640625 216.375 393.375 217.277344 393.199219 C 218.179688 393.023438 219.089844 392.933594 220.007812 392.933594 C 220.929688 392.933594 221.839844 393.023438 222.742188 393.199219 C 223.644531 393.375 224.519531 393.640625 225.371094 393.988281 C 226.222656 394.335938 227.03125 394.761719 227.800781 395.269531 C 228.566406 395.773438 229.277344 396.347656 229.933594 396.992188 C 230.589844 397.636719 231.179688 398.339844 231.695312 399.097656 C 232.214844 399.855469 232.65625 400.65625 233.019531 401.503906 C 233.382812 402.347656 233.664062 403.21875 233.855469 404.117188 C 234.050781 405.015625 234.152344 405.925781 234.171875 406.84375 C 234.167969 427.6875 234.171875 509.039062 234.171875 528.351562 C 254.953125 519.9375 274.640625 509.457031 293.226562 496.914062 L 293.226562 421.855469 C 293.226562 420.925781 293.316406 420.003906 293.496094 419.09375 C 293.679688 418.179688 293.945312 417.296875 294.304688 416.4375 C 294.660156 415.578125 295.09375 414.761719 295.613281 413.988281 C 296.128906 413.214844 296.714844 412.5 297.371094 411.839844 C 298.03125 411.183594 298.746094 410.597656 299.519531 410.082031 C 300.292969 409.5625 301.109375 409.128906 301.96875 408.773438 C 302.828125 408.417969 303.710938 408.148438 304.625 407.964844 C 305.535156 407.785156 306.457031 407.695312 307.386719 407.695312 C 308.316406 407.695312 309.238281 407.785156 310.148438 407.964844 C 311.0625 408.148438 311.945312 408.417969 312.804688 408.773438 C 313.664062 409.128906 314.480469 409.5625 315.253906 410.082031 C 316.027344 410.597656 316.742188 411.183594 317.402344 411.839844 C 318.058594 412.5 318.644531 413.214844 319.160156 413.988281 C 319.679688 414.761719 320.113281 415.578125 320.46875 416.4375 C 320.828125 417.296875 321.09375 418.179688 321.277344 419.09375 C 321.457031 420.003906 321.546875 420.925781 321.546875 421.855469 L 321.546875 477.511719 C 398.304688 423.980469 459.625 377.53125 505.792969 338.867188 C 370.242188 368.734375 152.40625 340.710938 71.878906 267.203125 C 61.417969 258.941406 51.976562 249.644531 43.554688 239.308594 L 43.554688 385.601562 C 44.4375 424.5 71.246094 458.371094 118.46875 485.867188 L 118.46875 371.015625 C 118.46875 370.085938 118.5625 369.164062 118.742188 368.25 C 118.921875 367.339844 119.191406 366.453125 119.546875 365.59375 C 119.902344 364.734375 120.339844 363.917969 120.855469 363.144531 C 121.375 362.375 121.960938 361.65625 122.617188 361 C 123.277344 360.34375 123.992188 359.753906 124.765625 359.238281 C 125.535156 358.722656 126.351562 358.285156 127.210938 357.929688 C 128.070312 357.574219 128.957031 357.304688 129.867188 357.125 C 130.78125 356.941406 131.703125 356.851562 132.632812 356.851562 C 133.5625 356.851562 134.484375 356.941406 135.394531 357.125 C 136.304688 357.304688 137.191406 357.574219 138.050781 357.929688 C 138.910156 358.285156 139.726562 358.722656 140.5 359.238281 C 141.273438 359.753906 141.988281 360.34375 142.644531 361 C 143.304688 361.65625 143.890625 362.375 144.40625 363.144531 C 144.921875 363.917969 145.359375 364.734375 145.714844 365.59375 C 146.070312 366.453125 146.339844 367.339844 146.519531 368.25 C 146.703125 369.164062 146.792969 370.085938 146.792969 371.015625 C 146.792969 393.351562 146.792969 479.648438 146.792969 500.3125 Z M 146.792969 500.3125 " fill-opacity="1" fill-rule="nonzero"/><path fill="#363633" d="M 225.105469 576.640625 C 202.34375 593.851562 165.703125 604.578125 164.777344 638.105469 C 164.695312 639.878906 164.71875 641.648438 164.847656 643.421875 C 164.980469 645.191406 165.21875 646.949219 165.5625 648.691406 C 165.902344 650.429688 166.351562 652.148438 166.902344 653.835938 C 167.449219 655.523438 168.101562 657.171875 168.851562 658.78125 C 169.601562 660.390625 170.445312 661.949219 171.382812 663.457031 C 172.320312 664.964844 173.34375 666.410156 174.457031 667.796875 C 175.570312 669.179688 176.761719 670.492188 178.03125 671.730469 C 179.304688 672.96875 180.644531 674.128906 182.054688 675.207031 L 332.171875 790.910156 C 333.132812 791.640625 334.121094 792.335938 335.140625 792.988281 C 336.160156 793.644531 337.203125 794.253906 338.269531 794.824219 C 339.339844 795.394531 340.425781 795.917969 341.539062 796.398438 C 342.648438 796.882812 343.777344 797.316406 344.921875 797.707031 C 346.066406 798.097656 347.226562 798.441406 348.398438 798.738281 C 349.574219 799.035156 350.757812 799.28125 351.949219 799.484375 C 353.144531 799.683594 354.34375 799.835938 355.546875 799.941406 C 356.753906 800.042969 357.960938 800.101562 359.171875 800.105469 C 360.382812 800.113281 361.589844 800.070312 362.796875 799.980469 C 364.003906 799.886719 365.203125 799.746094 366.398438 799.558594 C 367.59375 799.371094 368.78125 799.132812 369.957031 798.851562 C 371.132812 798.566406 372.296875 798.234375 373.445312 797.855469 C 374.59375 797.480469 375.726562 797.054688 376.84375 796.585938 C 377.957031 796.117188 379.054688 795.601562 380.125 795.042969 C 381.199219 794.484375 382.25 793.882812 383.273438 793.242188 C 384.300781 792.597656 385.296875 791.914062 386.269531 791.191406 C 403.261719 778.304688 419.6875 765.605469 435.550781 753.097656 C 430.488281 748.777344 230.363281 581.09375 225.105469 576.640625 Z M 225.105469 576.640625 " fill-opacity="1" fill-rule="nonzero"/><path fill="#363633" d="M 630.839844 455.84375 C 646.285156 470.710938 668.558594 492.074219 684.089844 506.964844 C 773.722656 380.765625 804.195312 270.445312 735.5 158.871094 C 737.527344 250.273438 644.074219 299.324219 565.699219 324.140625 C 501.484375 383.65625 391.453125 464.699219 293.226562 531.183594 C 278.636719 540.867188 264.175781 550.761719 249.605469 560.355469 C 254.445312 564.335938 446.808594 725.652344 458.070312 734.972656 C 481.859375 715.570312 504.234375 696.449219 525.195312 677.617188 C 515.214844 667.546875 460.476562 612.898438 460.476562 612.898438 C 459.820312 612.242188 459.234375 611.53125 458.71875 610.757812 C 458.203125 609.988281 457.765625 609.175781 457.410156 608.316406 C 457.054688 607.460938 456.785156 606.578125 456.605469 605.667969 C 456.425781 604.757812 456.332031 603.839844 456.332031 602.914062 C 456.332031 601.984375 456.425781 601.066406 456.605469 600.15625 C 456.785156 599.25 457.054688 598.367188 457.410156 597.507812 C 457.765625 596.652344 458.203125 595.839844 458.71875 595.066406 C 459.234375 594.296875 459.820312 593.585938 460.476562 592.929688 C 461.136719 592.273438 461.855469 591.6875 462.632812 591.167969 C 463.410156 590.652344 464.230469 590.21875 465.09375 589.863281 C 465.957031 589.507812 466.84375 589.238281 467.757812 589.058594 C 468.675781 588.878906 469.597656 588.785156 470.53125 588.785156 C 471.464844 588.785156 472.386719 588.878906 473.300781 589.058594 C 474.21875 589.238281 475.105469 589.507812 475.96875 589.863281 C 476.832031 590.21875 477.648438 590.652344 478.425781 591.167969 C 479.203125 591.6875 479.921875 592.273438 480.585938 592.929688 C 491.789062 603.945312 546.15625 658.5 546.15625 658.5 C 566.265625 639.804688 585.050781 621.347656 602.519531 603.125 C 591.507812 594.1875 535.109375 548.601562 535.109375 548.601562 C 534.378906 548.019531 533.714844 547.371094 533.113281 546.65625 C 532.515625 545.941406 531.992188 545.175781 531.542969 544.355469 C 531.09375 543.539062 530.730469 542.683594 530.449219 541.792969 C 530.171875 540.902344 529.984375 539.992188 529.882812 539.066406 C 529.785156 538.136719 529.777344 537.207031 529.859375 536.28125 C 529.945312 535.351562 530.121094 534.4375 530.386719 533.542969 C 530.648438 532.648438 531 531.789062 531.4375 530.960938 C 531.871094 530.136719 532.382812 529.363281 532.972656 528.636719 C 533.558594 527.914062 534.214844 527.253906 534.933594 526.660156 C 535.652344 526.066406 536.421875 525.546875 537.246094 525.105469 C 538.066406 524.664062 538.925781 524.304688 539.816406 524.03125 C 540.710938 523.761719 541.621094 523.578125 542.546875 523.484375 C 543.476562 523.394531 544.40625 523.390625 545.335938 523.484375 C 546.261719 523.574219 547.175781 523.757812 548.066406 524.027344 C 548.960938 524.300781 549.816406 524.65625 550.640625 525.097656 C 551.460938 525.539062 552.230469 526.058594 552.953125 526.652344 C 552.953125 526.652344 611.105469 573.523438 622.0625 582.449219 C 638.347656 564.605469 653.265625 547.046875 666.8125 529.769531 C 656.507812 519.976562 611.296875 476.378906 611.296875 476.378906 C 610.640625 475.734375 610.050781 475.03125 609.53125 474.269531 C 609.007812 473.507812 608.566406 472.703125 608.203125 471.859375 C 607.839844 471.011719 607.558594 470.136719 607.367188 469.234375 C 607.171875 468.335938 607.066406 467.421875 607.050781 466.5 C 607.035156 465.582031 607.109375 464.664062 607.273438 463.757812 C 607.433594 462.851562 607.683594 461.96875 608.019531 461.109375 C 608.351562 460.25 608.765625 459.433594 609.261719 458.652344 C 609.757812 457.875 610.320312 457.152344 610.957031 456.484375 C 611.59375 455.816406 612.285156 455.21875 613.039062 454.6875 C 613.789062 454.152344 614.585938 453.699219 615.429688 453.320312 C 616.269531 452.945312 617.140625 452.652344 618.039062 452.445312 C 618.9375 452.238281 619.847656 452.121094 620.765625 452.089844 C 621.6875 452.058594 622.605469 452.121094 623.511719 452.269531 C 624.421875 452.417969 625.308594 452.652344 626.171875 452.972656 C 627.039062 453.296875 627.863281 453.699219 628.648438 454.179688 C 629.433594 454.664062 630.164062 455.21875 630.839844 455.84375 Z M 630.839844 455.84375 " fill-opacity="1" fill-rule="nonzero"/></svg>