<svg xmlns="http://www.w3.org/2000/svg" xmlns:xlink="http://www.w3.org/1999/xlink" width="1080" zoomAndPan="magnify" viewBox="0 0 810 809.999993" height="1080" preserveAspectRatio="xMidYMid meet" version="1.0"><defs><clipPath id="f43b4b2bac"><path d="M 462 180 L 799.71875 180 L 799.71875 796 L 462 796 Z M 462 180 " clip-rule="nonzero"/></clipPath></defs><g clip-path="url(#f43b4b2bac)"><path fill="#100f0d" d="M 492.648438 312.097656 C 498.832031 311.117188 505.117188 310.746094 511.339844 309.910156 C 527.929688 307.746094 544.585938 305.453125 560.800781 301.226562 C 568.066406 299.332031 575.058594 296.683594 582.136719 294.226562 C 611.195312 284.023438 640.671875 266.109375 650.332031 235.035156 C 659.96875 204.003906 681.472656 186.132812 712.695312 181.550781 C 744.210938 176.90625 769.710938 189.445312 788.007812 215.417969 C 797.375 228.683594 798.273438 244.742188 798.4375 260.195312 C 799.1875 333.96875 799.4375 407.738281 799.605469 481.511719 C 799.644531 502.273438 792.003906 520.25 777.183594 534.851562 C 773.769531 538.203125 773.082031 541.367188 773.105469 546.011719 C 773.332031 615.828125 773.625 679.601562 773.105469 749.394531 C 772.898438 776.011719 750.289062 796.070312 723.457031 795.527344 C 696.023438 794.964844 675.414062 774.679688 675.164062 746.8125 C 674.644531 693.554688 674.601562 646.320312 674.582031 593.042969 C 674.5625 576.527344 674.957031 559.988281 675.707031 543.472656 C 675.871094 539.472656 674.0625 537.472656 671.792969 535.101562 C 655.828125 518.605469 648.351562 498.964844 648.5625 475.90625 C 648.914062 436.210938 648.664062 396.511719 648.664062 356.816406 L 648.664062 344.941406 C 648.664062 344.984375 647.144531 345.628906 647.144531 345.628906 C 599.308594 367.519531 550.121094 384.785156 496.726562 383.722656 C 477.640625 383.328125 463.589844 368.75 462.527344 349.398438 C 461.527344 331.21875 474.539062 314.992188 492.648438 312.097656 " fill-opacity="1" fill-rule="nonzero"/></g><path fill="#100f0d" d="M 694.960938 101.300781 C 695.003906 101.300781 695.042969 101.300781 695.085938 101.320312 C 699.4375 101.738281 703.765625 101.882812 707.804688 101.96875 C 710.761719 102.03125 713.464844 102.09375 716.066406 102.113281 C 718.671875 102.15625 721.167969 102.175781 723.667969 102.175781 C 730.660156 102.175781 736.820312 102.007812 742.441406 101.632812 C 750.726562 101.320312 758.199219 100.65625 765.296875 99.550781 C 768.648438 99.03125 772.230469 98.40625 775.75 96.96875 C 779.578125 118.609375 771.355469 139.789062 754.308594 152.351562 C 736.238281 165.636719 712.675781 166.179688 694.480469 153.722656 C 680.453125 144.121094 672.25 129.167969 671.398438 112.421875 C 679.347656 109.488281 687.132812 105.820312 694.710938 101.425781 C 694.898438 101.34375 694.960938 101.300781 694.960938 101.300781 " fill-opacity="1" fill-rule="nonzero"/><path fill="#100f0d" d="M 383.488281 298.621094 L 383.613281 279.042969 L 410.195312 291.832031 L 410.195312 311.179688 Z M 383.65625 326.488281 L 383.78125 306.910156 L 410.363281 319.722656 L 410.363281 339.070312 Z M 321.019531 292.207031 C 340.210938 297.769531 355.511719 311.328125 363.609375 328.738281 L 427.554688 360.8125 L 441.667969 354.023438 C 442.667969 340.921875 447.644531 328.363281 456.011719 317.972656 C 466.273438 305.246094 480.761719 296.832031 496.832031 294.269531 C 501.496094 293.539062 505.90625 293.101562 510.15625 292.644531 C 512.964844 292.351562 515.585938 292.101562 518.066406 291.769531 C 525.558594 290.792969 532.675781 289.8125 539.609375 288.75 L 539.253906 190.007812 L 427.472656 243.742188 L 392 226.164062 L 392.0625 260.632812 L 376.578125 250.636719 L 376.660156 218.601562 L 320.976562 191.007812 L 321.019531 292.207031 " fill-opacity="1" fill-rule="nonzero"/><path fill="#100f0d" d="M 327.117188 185.527344 L 426.097656 140.519531 L 481.324219 163.324219 L 379.761719 211.667969 L 327.117188 185.527344 " fill-opacity="1" fill-rule="nonzero"/><path fill="#100f0d" d="M 394.625 219.0625 L 497.164062 169.886719 L 532.71875 184.570312 L 427.285156 235.285156 L 394.625 219.0625 " fill-opacity="1" fill-rule="nonzero"/><path fill="#100f0d" d="M 10.085938 479.988281 C 10.253906 406.21875 10.503906 332.445312 11.253906 258.675781 C 11.417969 243.222656 12.3125 227.183594 21.660156 213.894531 C 39.980469 187.945312 65.480469 175.386719 96.996094 180.03125 C 128.21875 184.613281 149.722656 202.480469 159.359375 233.515625 C 169.019531 264.609375 198.496094 282.5 227.554688 292.707031 C 234.632812 295.1875 241.625 297.808594 248.890625 299.707031 C 265.105469 303.933594 281.757812 306.222656 298.351562 308.390625 C 304.574219 309.222656 310.859375 309.597656 317.042969 310.578125 C 335.152344 313.472656 348.164062 329.699219 347.164062 347.878906 C 346.101562 367.230469 332.050781 381.808594 312.960938 382.203125 C 259.570312 383.265625 210.378906 366 162.542969 344.109375 C 162.542969 344.109375 161.023438 343.464844 161.023438 343.421875 L 161.023438 355.292969 C 161.023438 394.992188 160.777344 434.710938 161.128906 474.40625 C 161.335938 497.441406 153.863281 517.082031 137.898438 533.601562 C 135.628906 535.953125 133.820312 537.953125 133.984375 541.953125 C 134.734375 558.46875 135.128906 575.003906 135.109375 591.542969 C 135.089844 644.800781 135.046875 692.035156 134.527344 745.292969 C 134.253906 773.160156 113.648438 793.445312 86.234375 794.007812 C 59.378906 794.550781 36.792969 774.511719 36.585938 747.894531 C 36.042969 678.082031 36.335938 614.308594 36.585938 544.515625 C 36.605469 539.847656 35.917969 536.683594 32.507812 533.328125 C 17.683594 518.730469 10.046875 500.753906 10.085938 479.988281 " fill-opacity="1" fill-rule="nonzero"/><path fill="#100f0d" d="M 89.585938 157.097656 C 51.824219 157.097656 21.222656 126.480469 21.222656 88.699219 C 21.222656 50.941406 51.824219 20.300781 89.585938 20.300781 C 127.324219 20.300781 157.945312 50.941406 157.945312 88.699219 C 157.945312 126.480469 127.324219 157.097656 89.585938 157.097656 " fill-opacity="1" fill-rule="nonzero"/><path fill="#100f0d" d="M 777.414062 84.785156 C 774.3125 86.054688 770.960938 86.660156 767.609375 87.179688 C 759.90625 88.367188 752.121094 89.011719 744.296875 89.304688 C 732.386719 90.074219 720.460938 89.910156 708.53125 89.636719 C 704.246094 89.554688 699.9375 89.410156 695.667969 88.972656 C 694.230469 88.824219 693.148438 89.160156 692.003906 89.824219 C 680.597656 96.425781 668.378906 101.65625 655.117188 105.113281 C 648.101562 106.925781 640.941406 108.132812 633.574219 107.945312 C 624.664062 107.738281 616.566406 105.65625 610.15625 100.09375 C 607.929688 98.15625 608.199219 96.84375 611.175781 95.679688 C 623.5625 90.867188 635.695312 85.660156 647.625 80.078125 C 649.3125 79.285156 649.914062 78.433594 650.082031 76.765625 C 651.683594 60.519531 658.386719 46.148438 673.042969 34.984375 C 683.261719 27.195312 695.355469 22.71875 709.074219 21.425781 C 709.636719 21.363281 710.21875 21.28125 710.78125 21.21875 L 710.78125 20.011719 C 710.78125 16.429688 713.675781 13.535156 717.253906 13.535156 C 720.835938 13.535156 723.730469 16.429688 723.730469 20.011719 L 723.730469 21.136719 C 736.09375 21.96875 748.144531 25.46875 757.472656 32.527344 C 774.207031 45.171875 778.371094 64.375 779.203125 82.347656 C 779.265625 83.617188 778.640625 84.265625 777.414062 84.785156 " fill-opacity="1" fill-rule="nonzero"/></svg>