<svg xmlns="http://www.w3.org/2000/svg" xmlns:xlink="http://www.w3.org/1999/xlink" width="1080" zoomAndPan="magnify" viewBox="0 0 810 809.999993" height="1080" preserveAspectRatio="xMidYMid meet" version="1.0"><defs><clipPath id="bae53c917e"><path d="M 5.238281 85 L 804 85 L 804 725 L 5.238281 725 Z M 5.238281 85 " clip-rule="nonzero"/></clipPath></defs><g clip-path="url(#bae53c917e)"><path fill="#363633" d="M 783.296875 352.078125 L 537.292969 106.074219 C 510.121094 78.898438 464.351562 78.898438 435.746094 106.074219 L 430.023438 111.796875 C 402.851562 138.96875 402.851562 184.738281 430.023438 213.34375 L 564.46875 347.789062 L 62.449219 347.789062 C 30.984375 347.789062 5.238281 373.53125 5.238281 404.996094 C 5.238281 436.464844 30.984375 462.207031 62.449219 462.207031 L 564.46875 462.207031 L 430.023438 596.652344 C 402.851562 623.828125 402.851562 669.59375 430.023438 698.199219 L 435.746094 703.921875 C 462.921875 731.09375 508.6875 731.09375 537.292969 703.921875 L 783.296875 457.917969 C 797.601562 443.613281 804.75 423.589844 803.320312 404.996094 C 804.75 386.40625 797.601562 366.378906 783.296875 352.078125 Z M 783.296875 352.078125 " fill-opacity="1" fill-rule="nonzero"/></g></svg>