<svg xmlns="http://www.w3.org/2000/svg" xmlns:xlink="http://www.w3.org/1999/xlink" width="1080" zoomAndPan="magnify" viewBox="0 0 810 374.999991" height="500" preserveAspectRatio="xMidYMid meet" version="1.0"><defs><clipPath id="271d3f79bb"><path d="M 247.988281 141.464844 L 251.738281 141.464844 L 251.738281 145.214844 L 247.988281 145.214844 Z M 247.988281 141.464844 " clip-rule="nonzero"/></clipPath></defs><path fill="#363636" d="M 771.417969 147.261719 C 779.628906 162.230469 774.070312 180.964844 759.132812 189.113281 L 419.628906 374.296875 C 415.027344 376.796875 409.9375 378.0625 404.84375 378.0625 C 399.75 378.0625 394.65625 376.765625 390.058594 374.296875 L 50.554688 189.113281 C 35.582031 180.9375 30.058594 162.203125 38.238281 147.261719 C 46.417969 132.324219 65.121094 126.769531 80.121094 134.949219 L 404.84375 312.078125 L 729.566406 134.949219 C 744.597656 126.800781 763.269531 132.324219 771.417969 147.261719 Z M 50.554688 65.691406 L 390.058594 250.875 C 394.65625 253.375 399.75 254.640625 404.84375 254.640625 C 409.9375 254.640625 415.027344 253.34375 419.628906 250.875 L 759.132812 65.691406 C 774.101562 57.511719 779.628906 38.777344 771.449219 23.839844 C 763.238281 8.871094 744.566406 3.375 729.566406 11.523438 L 404.84375 188.652344 L 80.121094 11.523438 C 65.152344 3.375 46.449219 8.898438 38.269531 23.839844 C 30.089844 38.777344 35.613281 57.511719 50.554688 65.691406 Z M 50.554688 65.691406 " fill-opacity="1" fill-rule="nonzero"/><g clip-path="url(#271d3f79bb)"><path fill="#000000" d="M 247.988281 141.464844 L 251.738281 141.464844 L 251.738281 145.214844 L 247.988281 145.214844 Z M 247.988281 141.464844 " fill-opacity="1" fill-rule="nonzero"/></g></svg>