<svg xmlns="http://www.w3.org/2000/svg" xmlns:xlink="http://www.w3.org/1999/xlink" width="1080" zoomAndPan="magnify" viewBox="0 0 810 809.999993" height="1080" preserveAspectRatio="xMidYMid meet" version="1.0"><defs><clipPath id="0207e50f11"><path d="M 15.738281 94 L 794 94 L 794 716 L 15.738281 716 Z M 15.738281 94 " clip-rule="nonzero"/></clipPath></defs><g clip-path="url(#0207e50f11)"><path fill="#ffffff" d="M 773.371094 353.464844 L 533.824219 113.917969 C 507.363281 87.457031 462.796875 87.457031 434.941406 113.917969 L 429.371094 119.488281 C 402.910156 145.949219 402.910156 190.515625 429.371094 218.371094 L 560.285156 349.285156 L 71.445312 349.285156 C 40.808594 349.285156 15.738281 374.355469 15.738281 404.996094 C 15.738281 435.632812 40.808594 460.703125 71.445312 460.703125 L 560.285156 460.703125 L 429.371094 591.617188 C 402.910156 618.078125 402.910156 662.644531 429.371094 690.5 L 434.941406 696.070312 C 461.40625 722.53125 505.972656 722.53125 533.824219 696.070312 L 773.371094 456.523438 C 787.296875 442.597656 794.261719 423.097656 792.867188 404.996094 C 794.261719 386.890625 787.296875 367.390625 773.371094 353.464844 Z M 773.371094 353.464844 " fill-opacity="1" fill-rule="nonzero"/></g></svg>