<svg xmlns="http://www.w3.org/2000/svg" xmlns:xlink="http://www.w3.org/1999/xlink" width="1080" zoomAndPan="magnify" viewBox="0 0 810 809.999993" height="1080" preserveAspectRatio="xMidYMid meet" version="1.0"><defs><clipPath id="6b3c9ebf92"><path d="M 61.964844 9 L 748.214844 9 L 748.214844 801 L 61.964844 801 Z M 61.964844 9 " clip-rule="nonzero"/></clipPath></defs><g clip-path="url(#6b3c9ebf92)"><path fill="#363633" d="M 421.65625 102.148438 C 421.65625 62.945312 441.257812 28.640625 472.621094 9.039062 L 472.621094 82.546875 C 472.621094 90.386719 476.542969 96.269531 483.402344 100.1875 L 523.585938 119.789062 C 529.46875 122.730469 535.347656 122.730469 541.230469 119.789062 L 581.414062 100.1875 C 588.273438 97.25 592.195312 90.386719 592.195312 82.546875 L 592.195312 9.039062 C 623.554688 28.640625 643.15625 63.925781 643.15625 102.148438 C 643.15625 147.234375 615.714844 188.398438 573.570312 205.058594 C 565.730469 208 561.8125 214.859375 561.8125 222.699219 L 561.8125 408.917969 L 503.003906 408.917969 L 503.003906 222.699219 C 503.003906 214.859375 498.105469 208 491.246094 205.058594 C 449.101562 188.398438 421.65625 147.234375 421.65625 102.148438 Z M 581.414062 506.925781 L 718.625 506.925781 C 735.285156 506.925781 748.027344 493.203125 748.027344 477.523438 C 748.027344 460.863281 735.285156 448.121094 718.625 448.121094 L 483.402344 448.121094 C 472.621094 448.121094 463.800781 439.300781 463.800781 428.519531 L 463.800781 350.109375 L 383.433594 350.109375 L 232.5 501.046875 C 231.519531 502.023438 230.539062 503.003906 229.558594 503.003906 C 229.558594 503.003906 228.582031 503.984375 227.601562 503.984375 C 226.621094 503.984375 226.621094 504.964844 225.640625 504.964844 C 224.660156 504.964844 224.660156 504.964844 223.679688 505.945312 C 223.679688 505.945312 222.699219 505.945312 221.71875 505.945312 C 220.738281 505.945312 218.78125 505.945312 217.800781 505.945312 L 178.597656 505.945312 L 178.597656 731.367188 L 273.664062 799.972656 L 620.617188 799.972656 C 637.277344 799.972656 650.019531 786.25 650.019531 770.570312 C 650.019531 753.90625 637.277344 741.167969 620.617188 741.167969 L 542.207031 741.167969 C 531.429688 741.167969 522.605469 732.347656 522.605469 721.566406 C 522.605469 710.785156 531.429688 701.964844 542.207031 701.964844 L 659.820312 701.964844 C 676.480469 701.964844 689.222656 688.242188 689.222656 672.5625 C 689.222656 655.898438 676.480469 643.15625 659.820312 643.15625 L 561.8125 643.15625 C 551.03125 643.15625 542.207031 634.335938 542.207031 623.554688 C 542.207031 612.773438 551.03125 603.953125 561.8125 603.953125 L 699.023438 603.953125 C 715.683594 603.953125 728.425781 590.234375 728.425781 574.550781 C 728.425781 557.890625 715.683594 545.148438 699.023438 545.148438 L 581.414062 545.148438 C 570.632812 545.148438 561.8125 536.328125 561.8125 525.546875 C 561.8125 515.746094 570.632812 506.925781 581.414062 506.925781 Z M 101.167969 428.519531 C 79.605469 428.519531 61.964844 446.160156 61.964844 467.722656 L 61.964844 761.75 C 61.964844 783.3125 79.605469 800.953125 101.167969 800.953125 C 122.730469 800.953125 140.371094 783.3125 140.371094 761.75 L 140.371094 467.722656 C 140.371094 446.160156 122.730469 428.519531 101.167969 428.519531 Z M 101.167969 428.519531 " fill-opacity="1" fill-rule="nonzero"/></g></svg>