<svg xmlns="http://www.w3.org/2000/svg" xmlns:xlink="http://www.w3.org/1999/xlink" width="1080" zoomAndPan="magnify" viewBox="0 0 810 809.999993" height="1080" preserveAspectRatio="xMidYMid meet" version="1.0"><defs><clipPath id="25bb081ffc"><path d="M 379.984375 416.734375 L 383.734375 416.734375 L 383.734375 420.484375 L 379.984375 420.484375 Z M 379.984375 416.734375 " clip-rule="nonzero"/></clipPath></defs><g clip-path="url(#25bb081ffc)"><path fill="#ffffff" d="M 379.984375 416.734375 L 383.734375 416.734375 L 383.734375 420.484375 L 379.984375 420.484375 Z M 379.984375 416.734375 " fill-opacity="1" fill-rule="nonzero"/></g><path fill="#ffffff" d="M 282.738281 599.660156 L 210.332031 527.269531 C 204.851562 521.785156 195.972656 521.785156 190.503906 527.269531 L 173.789062 543.984375 C 168.304688 549.46875 168.304688 558.34375 173.789062 563.8125 L 200.070312 590.09375 C 200.070312 590.09375 15.617188 774.546875 15.617188 774.546875 C 10.132812 780.03125 10.132812 788.894531 15.617188 794.375 C 21.097656 799.859375 29.960938 799.859375 35.445312 794.375 C 35.445312 794.375 219.898438 609.921875 219.898438 609.921875 L 246.179688 636.203125 C 251.660156 641.6875 260.539062 641.6875 266.007812 636.203125 L 282.722656 619.488281 C 288.207031 614.003906 288.207031 605.128906 282.722656 599.660156 Z M 282.738281 599.660156 " fill-opacity="1" fill-rule="nonzero"/><path fill="#ffffff" d="M 367.246094 497.171875 C 362.769531 492.222656 307.8125 438.988281 306.101562 434.726562 L 221.523438 519.304688 L 290.6875 588.46875 L 375.335938 503.820312 C 372.503906 501.816406 369.742188 499.667969 367.246094 497.171875 Z M 367.246094 497.171875 " fill-opacity="1" fill-rule="nonzero"/><path fill="#ffffff" d="M 461.328125 475.96875 L 334.023438 348.664062 L 333.964844 348.398438 L 316.898438 373.988281 C 304.613281 392.417969 307.070312 417.167969 322.734375 432.832031 L 377.160156 487.257812 C 386.148438 496.25 398.125 500.890625 410.171875 500.890625 C 427.433594 502.53125 447.824219 484.539062 461.59375 476.027344 Z M 461.328125 475.96875 " fill-opacity="1" fill-rule="nonzero"/><path fill="#ffffff" d="M 789.652344 464.890625 L 705.71875 380.960938 C 719.011719 370.289062 721.410156 350.359375 708.945312 338.074219 C 708.945312 338.074219 692.578125 321.710938 692.578125 321.710938 C 692.578125 321.710938 727.160156 287.128906 727.160156 287.128906 C 745.25 269.78125 745.25 238.535156 727.160156 221.1875 C 727.160156 221.1875 588.816406 82.84375 588.816406 82.84375 C 571.21875 65.246094 540.492188 65.230469 522.863281 82.84375 L 488.28125 117.425781 L 471.917969 101.0625 C 459.632812 88.59375 439.703125 90.992188 429.03125 104.289062 L 345.101562 20.355469 C 334.148438 9.402344 316.394531 9.402344 305.441406 20.355469 L 298.992188 26.804688 C 288.039062 37.757812 288.039062 55.511719 298.992188 66.464844 L 382.921875 150.398438 C 369.628906 161.070312 367.230469 180.996094 379.699219 193.28125 C 379.699219 193.28125 396.0625 209.648438 396.0625 209.648438 L 350.765625 254.941406 C 339.703125 265.992188 334.949219 281.742188 338.019531 297.054688 C 340.808594 307.179688 344.792969 341.652344 349.953125 344.75 C 349.953125 344.75 465.242188 460.039062 465.242188 460.039062 C 467.207031 462.003906 469.6875 463.335938 472.40625 463.867188 C 472.40625 463.867188 512.921875 471.972656 512.921875 471.972656 C 528.054688 475.042969 544 470.316406 555.050781 459.226562 C 555.050781 459.226562 600.34375 413.929688 600.34375 413.929688 L 616.710938 430.292969 C 628.996094 442.761719 648.921875 440.363281 659.59375 427.070312 L 743.527344 511 C 754.480469 521.953125 772.234375 521.953125 783.1875 511 L 789.636719 504.550781 C 800.589844 493.597656 800.589844 475.84375 789.636719 464.890625 Z M 490.835938 281.351562 L 467.765625 304.417969 C 462.28125 309.902344 453.417969 309.902344 447.9375 304.417969 C 442.453125 298.933594 442.453125 290.074219 447.9375 284.589844 L 471.003906 261.519531 C 484.019531 248.617188 503.75 268.320312 490.835938 281.351562 Z M 548.472656 338.988281 L 525.402344 362.054688 C 519.921875 367.539062 511.058594 367.539062 505.574219 362.054688 C 500.089844 356.574219 500.089844 347.710938 505.574219 342.226562 L 528.644531 319.15625 C 541.65625 306.253906 561.386719 325.957031 548.472656 338.988281 Z M 546.675781 218.679688 C 534.503906 207.011719 534.503906 185.960938 546.675781 174.292969 C 546.675781 174.292969 588.230469 132.742188 588.230469 132.742188 C 593.488281 127.480469 602.800781 127.480469 608.058594 132.742188 L 677.238281 201.917969 C 682.664062 207.136719 682.679688 216.53125 677.238281 221.75 C 677.238281 221.75 635.671875 263.300781 635.671875 263.300781 C 624.015625 275.472656 602.96875 275.472656 591.300781 263.300781 C 591.300781 263.300781 546.675781 218.679688 546.675781 218.679688 Z M 546.675781 218.679688 " fill-opacity="1" fill-rule="nonzero"/></svg>