<svg xmlns="http://www.w3.org/2000/svg" xmlns:xlink="http://www.w3.org/1999/xlink" width="1080" zoomAndPan="magnify" viewBox="0 0 810 809.999993" height="1080" preserveAspectRatio="xMidYMid meet" version="1.0"><defs><clipPath id="a599103c8c"><path d="M 379.984375 416.734375 L 383.734375 416.734375 L 383.734375 420.484375 L 379.984375 420.484375 Z M 379.984375 416.734375 " clip-rule="nonzero"/></clipPath></defs><g clip-path="url(#a599103c8c)"><path fill="#ffffff" d="M 379.984375 416.734375 L 383.734375 416.734375 L 383.734375 420.484375 L 379.984375 420.484375 Z M 379.984375 416.734375 " fill-opacity="1" fill-rule="nonzero"/></g><path fill="#000000" d="M 780.710938 675.371094 C 688.992188 549.765625 597.265625 424.164062 505.554688 298.570312 L 468.433594 247.738281 C 467.480469 246.433594 469.960938 236.710938 469.242188 233.542969 C 465.390625 216.539062 453.355469 198.128906 446.3125 182.105469 C 431.46875 148.351562 413.707031 139.777344 376.816406 142.957031 C 387.816406 152.832031 402.011719 154.953125 413.328125 162.832031 C 433.871094 177.136719 440.921875 211.90625 450.667969 233.71875 C 455.761719 245.117188 426.132812 255.925781 417.132812 261.554688 C 396.304688 274.570312 397.589844 271.183594 375.566406 265.179688 C 343.539062 256.441406 312.027344 260.570312 282.832031 276.710938 C 253.3125 293.027344 225.394531 299.929688 191.960938 292.5 C 161.542969 285.738281 145.183594 262.585938 126.03125 240.375 C 101.867188 212.355469 78.71875 182.222656 52.628906 156.132812 C 44.40625 147.910156 33.433594 130.09375 54.015625 133.023438 C 67.667969 134.96875 79.070312 142.039062 93.066406 142.039062 C 114.65625 142.039062 137.855469 116.585938 155.917969 106.449219 C 184.992188 90.132812 215 80.914062 246.492188 70.863281 C 265.980469 64.640625 287.792969 50.242188 282.078125 26.03125 C 273.46875 37.054688 272.140625 57.855469 254.808594 61.617188 C 261.421875 51.929688 263.703125 42.839844 266.363281 31.574219 C 271.023438 11.839844 273.933594 5.644531 295.019531 17.945312 C 321.875 33.609375 338.625 57.804688 347.703125 87.269531 C 352.148438 101.710938 367.3125 129.816406 376.132812 142.410156 C 387.914062 159.238281 399.507812 150.5 419.609375 148.769531 C 376.089844 128.847656 363.855469 58.960938 332.910156 26.03125 C 307.84375 -0.648438 264.125 -23.890625 251.113281 21.636719 C 248.050781 32.351562 247.949219 46.703125 239.558594 53.757812 C 227.230469 64.125 198.074219 67.558594 181.5625 75.019531 C 155.398438 86.835938 131.308594 101.054688 107.851562 117.539062 C 107.894531 117.476562 108.9375 116.53125 108.777344 116.613281 C 87.898438 138.648438 31.8125 93.214844 24.207031 134.640625 C 19.871094 158.265625 60.34375 190.402344 73.722656 205.691406 C 94.796875 229.769531 116.613281 259.753906 138.816406 280.222656 C 129.957031 286.902344 110.222656 301.28125 110.628906 314.882812 C 110.894531 323.8125 115.980469 326.726562 122.640625 330.59375 C 126.992188 333.121094 136.578125 328.882812 137.253906 334.292969 C 137.882812 339.308594 137.421875 346.753906 140.203125 351.394531 C 143.417969 356.761719 146.375 358.796875 152.222656 361.101562 C 170.453125 368.292969 170.234375 358.207031 174.632812 380.277344 C 175.511719 384.6875 181.335938 390.03125 185.726562 390.910156 C 191.738281 392.109375 197.890625 392.0625 204.007812 392.382812 C 210.523438 392.722656 206.578125 404.578125 209.0625 409.625 C 211.980469 415.550781 214.570312 418.664062 220.84375 421.183594 C 226.011719 423.253906 233.691406 422.382812 239.125 422.8125 C 245.539062 423.320312 241.804688 434.621094 244.179688 439.667969 C 246.335938 444.242188 248.660156 448.761719 253.65625 450.761719 C 256.300781 451.816406 259.28125 452.136719 262.105469 452.292969 C 281.921875 453.363281 271.265625 453.929688 278.84375 467.859375 C 281.746094 473.203125 282.199219 476.566406 287.625 480.339844 C 290.023438 482.007812 294.066406 482.183594 296.835938 482.402344 C 316.335938 483.941406 306.753906 483.878906 313.96875 497.902344 C 316.570312 502.960938 316.730469 506.328125 321.824219 510.148438 C 334.816406 519.894531 345.644531 504.554688 348.339844 526.09375 C 351.214844 549.078125 380.898438 536.390625 382.824219 551.28125 C 386.175781 577.238281 415.4375 566.976562 417.710938 581.554688 C 421.527344 606 450.992188 599.316406 452.605469 611.828125 C 455.886719 637.316406 486.023438 628.453125 487.726562 642.097656 C 488.667969 649.613281 489.296875 655.824219 495.582031 660.585938 C 501.839844 665.324219 521.023438 661.953125 521.820312 667.054688 C 522.957031 674.339844 522.925781 684.136719 528.859375 689.703125 C 534.96875 695.4375 556.261719 692.726562 556.871094 697.488281 C 557.875 705.253906 557.90625 714.0625 563.976562 719.746094 C 570.058594 725.4375 591.484375 723.546875 591.992188 727.597656 C 593.132812 736.710938 592.925781 744.070312 599.5625 750.707031 C 605.546875 756.695312 625.769531 752.089844 626.726562 758.027344 C 630.425781 780.984375 635.40625 784.457031 658.742188 785.6875 C 662.1875 785.871094 664.789062 803.382812 672.578125 806.628906 C 680.65625 809.996094 686.3125 805.683594 691.988281 801.542969 C 703.214844 793.359375 712.570312 776.972656 721.429688 766.398438 C 737.214844 747.554688 752.996094 728.707031 768.785156 709.863281 C 777 700.058594 790.050781 688.816406 780.71875 675.375 " fill-opacity="1" fill-rule="nonzero"/><path fill="#ffffff" d="M 346.152344 90.273438 C 341.867188 69.882812 330.574219 49.742188 315.886719 35.042969 C 307.683594 26.839844 280.824219 3.058594 268.976562 13.089844 C 260.523438 20.242188 260.128906 50.882812 252.800781 61.617188 C 270.128906 57.855469 271.460938 37.054688 280.066406 26.03125 C 285.148438 47.558594 266.476562 64.578125 247.71875 69.9375 C 217.34375 78.613281 188.191406 87.984375 160.25 103.03125 C 139.808594 114.042969 118.746094 136.824219 96.601562 141.574219 C 83.585938 144.367188 70.863281 137.683594 58.707031 134.644531 C 43.851562 130.925781 31.976562 137.03125 45.996094 151.046875 C 67.828125 172.886719 87.265625 197.761719 107.496094 221.214844 C 127.234375 244.105469 146.550781 275.042969 175.164062 287.621094 C 205.121094 300.792969 238.339844 297.511719 267.273438 284.011719 C 296.097656 270.5625 324.847656 254.171875 358.152344 261.414062 C 364.140625 262.71875 392.703125 275.570312 396.308594 273.316406 C 414.324219 262.054688 432.335938 250.796875 450.351562 239.535156 C 451.449219 238.851562 425.863281 173.53125 416.859375 166.765625 C 407.222656 159.519531 391.652344 152.140625 380.351562 147.585938 C 366.164062 141.859375 352.089844 145.113281 335.46875 146.6875 C 328.207031 147.378906 327.085938 166.40625 319.8125 172.773438 C 301.140625 189.117188 267.441406 184.410156 244.480469 195.648438 C 222.1875 206.5625 209.191406 239.515625 180.707031 232.394531 C 155.480469 226.082031 146.996094 199.410156 159.453125 178.089844 C 183.921875 136.195312 255.761719 106.578125 302.710938 112.921875 C 259.808594 105.40625 161.730469 128.140625 150.207031 179.472656 C 142.324219 142.097656 225.820312 110.0625 252.457031 106.164062 C 287.542969 101.027344 330.296875 100.152344 330.898438 147.121094 C 345.535156 145.734375 360.167969 144.347656 374.800781 142.964844 C 359.308594 128.191406 352.734375 109.472656 346.152344 90.273438 " fill-opacity="1" fill-rule="nonzero"/><path fill="#000000" d="M 304.71875 112.917969 C 305.945312 113.265625 307.113281 113.628906 308.414062 113.84375 C 307.113281 113.628906 305.945312 113.265625 304.71875 112.917969 " fill-opacity="1" fill-rule="nonzero"/><path fill="#000000" d="M 328.550781 124.417969 C 315.082031 57.28125 141.339844 127.984375 152.199219 179.46875 C 163.5625 128.851562 266.0625 101.652344 308.402344 113.84375 C 266.171875 102.78125 127.679688 153.441406 159.132812 214.132812 C 184.511719 263.105469 221.675781 207.785156 246.472656 195.648438 C 275.945312 181.21875 330.269531 190.839844 332.894531 147.117188 C 322.8125 145.164062 318.789062 167.746094 306.089844 172.539062 C 284.480469 180.691406 260.855469 177.390625 239.335938 189.691406 C 220.390625 200.515625 192.3125 246.019531 168.835938 214.132812 C 127.1875 157.570312 320.167969 84.441406 321.867188 154.472656 C 335.730469 157.027344 334.746094 143.136719 330.515625 135.984375 " fill-opacity="1" fill-rule="nonzero"/><path fill="#000000" d="M 128.632812 143.882812 C 131.0625 141.457031 131.0625 141.457031 128.632812 143.882812 " fill-opacity="1" fill-rule="nonzero"/><path fill="#000000" d="M 131.871094 139.722656 C 133.828125 138.441406 131.503906 139.964844 131.871094 139.722656 " fill-opacity="1" fill-rule="nonzero"/><path fill="#000000" d="M 111.535156 115.226562 C 110.808594 115.976562 110.808594 115.976562 111.535156 115.226562 " fill-opacity="1" fill-rule="nonzero"/><path fill="#000000" d="M 117.546875 113.84375 C 116.816406 114.589844 116.816406 114.589844 117.546875 113.84375 " fill-opacity="1" fill-rule="nonzero"/><path fill="#000000" d="M 114.308594 114.304688 C 113.929688 115.042969 113.929688 115.042969 114.308594 114.304688 " fill-opacity="1" fill-rule="nonzero"/><path fill="#000000" d="M 441.957031 237.234375 C 423.890625 246.644531 407.8125 260.140625 388.8125 256.648438 C 369.417969 253.082031 354.683594 245.359375 333.820312 247.40625 C 295.890625 251.121094 266.972656 279.660156 229.375 282.992188 C 188.0625 286.65625 164.902344 266.257812 139.464844 238.511719 C 112.773438 209.390625 86.8125 178.933594 61.625 148.5 C 82.957031 154.519531 107.214844 155.914062 122.167969 136.480469 C 93.285156 157.523438 77.101562 139.058594 48.226562 139.71875 C 61.691406 164.054688 88.074219 185.984375 106.394531 207.359375 C 133.679688 239.195312 157.167969 277.496094 199.925781 287.351562 C 247.101562 298.234375 277.667969 262.613281 321.199219 255.359375 C 343.535156 251.636719 364.378906 253.246094 385.496094 261.695312 C 405.003906 269.5 426.847656 248.367188 441.957031 237.234375 " fill-opacity="1" fill-rule="nonzero"/><path fill="#ffffff" d="M 259.800781 89.269531 C 275.320312 86.503906 290.46875 77.386719 297.234375 61.539062 C 300.027344 54.996094 306.84375 32.953125 294.457031 31.035156 C 284.332031 29.46875 275.78125 61.230469 266.730469 67.546875 C 272.71875 69.589844 273.582031 70.90625 272.277344 76.328125 C 285.191406 62.269531 282.609375 44.324219 288.917969 28.261719 C 289.027344 28.523438 286.945312 29.054688 287.066406 29.1875 C 329.710938 36.863281 344.765625 80.585938 357.3125 115.609375 C 365.523438 138.527344 378.007812 158.140625 399.367188 170.609375 C 409.160156 176.324219 424.980469 177.890625 430.332031 189.09375 C 375 153.703125 337.628906 118.699219 280.886719 85.546875 " fill-opacity="1" fill-rule="nonzero"/><path fill="#ffffff" d="M 423.933594 173.925781 C 424.15625 173.699219 424.140625 173.714844 423.933594 173.925781 " fill-opacity="1" fill-rule="nonzero"/><path fill="#000000" d="M 398.054688 194.722656 C 356.664062 189.976562 372.472656 264.054688 407.296875 239.089844 C 397.632812 243.394531 386.09375 240.640625 380.035156 231.695312 C 405.433594 257.8125 436.425781 201.304688 398.054688 194.722656 " fill-opacity="1" fill-rule="nonzero"/><path fill="#000000" d="M 290.851562 215.988281 C 288.039062 234.476562 304.164062 258.390625 324.585938 242.328125 C 314.921875 247.03125 303.59375 244.054688 297.316406 235.398438 C 312.570312 248.878906 339.472656 235.746094 333.363281 214.371094 C 326.6875 191.007812 295.269531 195.441406 290.851562 215.988281 " fill-opacity="1" fill-rule="nonzero"/><path fill="#000000" d="M 213.667969 246.484375 C 210.390625 266.355469 227.277344 286.636719 247.863281 272.828125 C 237.9375 276.878906 226.566406 274.382812 220.136719 265.433594 C 234.691406 279.914062 262.152344 265.71875 256.183594 244.871094 C 249.683594 222.160156 218.292969 224.472656 213.667969 246.484375 " fill-opacity="1" fill-rule="nonzero"/><path fill="#ffffff" d="M 251.5625 252.492188 C 248.523438 274.070312 215.472656 268.796875 218.75 247.410156 C 222.105469 225.5 255.835938 231.9375 251.5625 252.492188 " fill-opacity="1" fill-rule="nonzero"/><path fill="#000000" d="M 247.40625 249.726562 C 245.863281 261.589844 232.378906 265.128906 223.839844 258.046875 C 232 272.644531 258.449219 255.753906 246.480469 241.410156 C 247.496094 244.066406 247.289062 248.878906 247.40625 249.726562 " fill-opacity="1" fill-rule="nonzero"/><path fill="#000000" d="M 238.15625 238.628906 C 233.5625 241.914062 233.402344 253.445312 232.148438 261.273438 C 233.070312 261.429688 233.996094 261.582031 234.917969 261.738281 C 236 254.03125 237.078125 246.332031 238.15625 238.628906 " fill-opacity="1" fill-rule="nonzero"/><path fill="#ffffff" d="M 328.726562 221.996094 C 326.519531 243.777344 292.226562 238.640625 295.917969 216.914062 C 299.746094 194.386719 333.804688 203.214844 328.726562 221.996094 " fill-opacity="1" fill-rule="nonzero"/><path fill="#000000" d="M 324.570312 219.6875 C 322.5 231.511719 308.457031 235.398438 300.539062 227.082031 C 311.683594 243.121094 335.664062 225.292969 322.71875 210.445312 C 325.085938 213.8125 324.113281 216.304688 324.570312 219.6875 " fill-opacity="1" fill-rule="nonzero"/><path fill="#000000" d="M 306.707031 209.523438 C 307 215.648438 315.316406 222.28125 320.570312 228.007812 C 321.1875 227.546875 321.800781 227.085938 322.414062 226.621094 C 317.179688 220.921875 311.941406 215.222656 306.707031 209.523438 " fill-opacity="1" fill-rule="nonzero"/><path fill="#ffffff" d="M 411.460938 218.753906 C 408.164062 240.328125 375.027344 235.011719 378.183594 213.671875 C 381.421875 191.808594 415.476562 198.101562 411.460938 218.753906 " fill-opacity="1" fill-rule="nonzero"/><path fill="#000000" d="M 407.304688 215.988281 C 405.675781 227.828125 392.074219 231.480469 383.734375 224.304688 C 390.898438 238.359375 419.753906 223.105469 405.457031 207.203125 C 407.28125 210.292969 407.023438 214.40625 407.304688 215.988281 " fill-opacity="1" fill-rule="nonzero"/><path fill="#000000" d="M 404.519531 211.351562 C 398.886719 210.550781 390.933594 218.347656 384.648438 222.90625 C 385.109375 223.523438 385.574219 224.140625 386.035156 224.753906 C 392.195312 220.285156 398.355469 215.816406 404.519531 211.351562 " fill-opacity="1" fill-rule="nonzero"/><path fill="#ffffff" d="M 433.644531 262.660156 C 497.953125 350.695312 562.261719 438.730469 626.570312 526.757812 C 660.449219 573.136719 694.328125 619.515625 728.207031 665.890625 C 730.957031 669.65625 743.839844 682.28125 740.332031 686.464844 C 722.363281 707.878906 704.398438 729.289062 686.429688 750.703125 C 694.605469 737.636719 734.808594 690.804688 725.769531 678.414062 C 708.03125 654.089844 690.289062 629.765625 672.546875 605.441406 L 489.015625 353.796875 C 469.820312 327.476562 450.625 301.160156 431.429688 274.839844 C 425.453125 266.644531 427.042969 267.238281 417.328125 273.289062 C 396.664062 286.160156 394.128906 282.65625 371.921875 276.308594 C 340.230469 267.253906 308.660156 278.816406 281.308594 294.65625 C 252.921875 311.097656 224.496094 318.757812 191.726562 314.238281 C 178.21875 312.375 167.425781 304.066406 154.972656 301.472656 C 147.234375 299.859375 149.652344 292.46875 142.808594 299.3125 C 137.621094 304.496094 132.433594 309.6875 127.246094 314.875 C 154.195312 316.402344 151.730469 316.210938 155.230469 342.890625 C 155.734375 346.746094 176.332031 346.011719 180.261719 346.304688 C 190.949219 347.105469 188.289062 359.359375 189.734375 368.996094 C 192.242188 385.703125 219.816406 365.207031 223.160156 387.902344 C 224.53125 397.199219 221.960938 404.71875 231.816406 405.457031 C 240.9375 406.136719 256.007812 402.542969 257.375 412.804688 C 257.898438 416.707031 257.992188 434.863281 262.054688 435.164062 C 267.507812 435.570312 287.617188 433.75 291.304688 437.347656 C 294.945312 440.898438 294.453125 458.707031 295.234375 463.980469 C 295.820312 467.960938 320.140625 467.011719 324.707031 467.285156 C 328.789062 467.53125 329.179688 486.070312 329.761719 489.992188 C 331.167969 499.519531 340.46875 496.320312 349.363281 496.984375 C 374.417969 498.851562 352.335938 525.320312 375.1875 526.671875 C 378.722656 526.878906 396.386719 525.785156 396.871094 529.496094 C 397.558594 534.722656 396.804688 552.585938 400.367188 556.125 C 403.96875 559.707031 424.222656 557.90625 429.613281 558.308594 C 433.851562 558.625 434.59375 580.566406 435.257812 585.070312 C 435.828125 588.925781 456.378906 587.878906 460.316406 588.109375 C 470.210938 588.703125 467.476562 596.277344 468.695312 605.574219 C 471.710938 628.550781 500.066406 607.671875 502.304688 624.480469 C 502.828125 628.382812 502.921875 646.535156 506.988281 646.839844 C 512.441406 647.246094 532.546875 645.421875 536.234375 649.019531 C 539.875 652.574219 539.390625 670.378906 540.167969 675.652344 C 540.761719 679.683594 565.050781 679.054688 569.640625 679.398438 C 573.738281 679.703125 574.105469 697.839844 574.691406 701.757812 C 576.105469 711.175781 585.519531 708.003906 594.292969 708.660156 C 619.347656 710.527344 597.285156 736.8125 620.117188 738.492188 C 623.640625 738.75 641.3125 737.910156 641.804688 741.605469 C 642.492188 746.78125 641.769531 764.277344 645.292969 767.800781 C 648.867188 771.371094 669.175781 769.582031 674.542969 769.984375 C 678.605469 770.285156 678.859375 786.832031 679.492188 790.910156 C 693.417969 774.199219 774.347656 695.203125 763.335938 680.101562 C 728.066406 631.730469 692.800781 583.367188 657.53125 534.996094 C 609.035156 468.488281 560.539062 401.980469 512.042969 335.476562 C 495.667969 313.015625 479.289062 290.554688 462.914062 268.09375 C 449.242188 249.335938 454.535156 253.132812 433.644531 262.652344 " fill-opacity="1" fill-rule="nonzero"/></svg>