<svg xmlns="http://www.w3.org/2000/svg" xmlns:xlink="http://www.w3.org/1999/xlink" width="1080" zoomAndPan="magnify" viewBox="0 0 810 809.999993" height="1080" preserveAspectRatio="xMidYMid meet" version="1.0"><defs><clipPath id="c207c48868"><path d="M 247 736 L 563 736 L 563 799.421875 L 247 799.421875 Z M 247 736 " clip-rule="nonzero"/></clipPath><clipPath id="33b2aeb67c"><path d="M 483 73 L 799.421875 73 L 799.421875 317 L 483 317 Z M 483 73 " clip-rule="nonzero"/></clipPath><clipPath id="65b9ea6a88"><path d="M 10.421875 10.421875 L 327 10.421875 L 327 327 L 10.421875 327 Z M 10.421875 10.421875 " clip-rule="nonzero"/></clipPath></defs><g clip-path="url(#c207c48868)"><path fill="#ffffff" d="M 531.261719 736.441406 L 278.734375 736.441406 C 261.300781 736.441406 247.167969 750.574219 247.167969 768.007812 L 247.167969 783.792969 C 247.167969 792.507812 254.234375 799.574219 262.953125 799.574219 L 547.046875 799.574219 C 555.761719 799.574219 562.828125 792.507812 562.828125 783.792969 L 562.828125 768.007812 C 562.828125 750.574219 548.695312 736.441406 531.261719 736.441406 Z M 531.261719 736.441406 " fill-opacity="1" fill-rule="nonzero"/></g><path fill="#ffffff" d="M 405 673.3125 C 377.695312 673.3125 352.441406 663.210938 333.1875 646.320312 L 300.988281 704.875 L 509.007812 704.875 L 476.8125 646.480469 C 457.242188 663.367188 431.988281 673.3125 405 673.3125 Z M 405 673.3125 " fill-opacity="1" fill-rule="nonzero"/><path fill="#ffffff" d="M 752.226562 420.78125 L 531.261719 420.78125 C 522.582031 420.78125 515.480469 427.882812 515.480469 436.566406 L 515.480469 468.132812 C 515.480469 494.171875 536.785156 515.480469 562.828125 515.480469 L 625.960938 515.480469 L 625.960938 549.886719 C 614.597656 553.992188 605.285156 562.355469 599.761719 572.929688 L 483.441406 557.460938 C 480.441406 516.425781 446.667969 483.914062 405 483.914062 C 370.59375 483.914062 341.550781 506.167969 330.820312 536.945312 L 214.496094 521.476562 C 211.183594 505.222656 199.34375 492.277344 184.035156 486.753906 L 184.035156 452.347656 L 247.167969 452.347656 C 273.210938 452.347656 294.519531 431.039062 294.519531 405 L 294.519531 373.433594 C 294.519531 364.753906 287.414062 357.648438 278.734375 357.648438 L 57.773438 357.648438 C 49.089844 357.648438 41.988281 364.753906 41.988281 373.433594 L 41.988281 405 C 41.988281 431.039062 63.296875 452.347656 89.339844 452.347656 L 152.46875 452.347656 L 152.46875 486.753906 C 134.164062 493.382812 120.902344 510.746094 120.902344 531.261719 C 120.902344 557.304688 142.210938 578.613281 168.253906 578.613281 C 186.5625 578.613281 202.34375 568.039062 210.234375 552.726562 L 326.558594 568.195312 C 329.554688 609.230469 363.332031 641.746094 405 641.746094 C 439.40625 641.746094 468.445312 619.488281 479.179688 588.714844 L 595.5 604.179688 C 599.917969 625.644531 619.015625 641.746094 641.746094 641.746094 C 667.789062 641.746094 689.09375 620.4375 689.09375 594.394531 C 689.09375 573.878906 675.835938 556.515625 657.527344 549.886719 L 657.527344 515.480469 L 720.660156 515.480469 C 746.703125 515.480469 768.007812 494.171875 768.007812 468.132812 L 768.007812 436.566406 C 768.007812 427.882812 760.90625 420.78125 752.226562 420.78125 Z M 405 578.613281 C 396.320312 578.613281 389.214844 571.511719 389.214844 562.828125 C 389.214844 554.148438 396.320312 547.046875 405 547.046875 C 413.679688 547.046875 420.78125 554.148438 420.78125 562.828125 C 420.78125 571.511719 413.679688 578.613281 405 578.613281 Z M 405 578.613281 " fill-opacity="1" fill-rule="nonzero"/><g clip-path="url(#33b2aeb67c)"><path fill="#ffffff" d="M 641.746094 73.554688 C 554.722656 73.554688 483.914062 144.363281 483.914062 231.386719 C 483.914062 262.683594 493.1875 291.808594 508.964844 316.371094 C 529.40625 289.667969 557.5625 270.039062 589.207031 259.503906 C 576.757812 246.441406 568.996094 228.867188 568.996094 209.4375 C 568.996094 169.316406 601.625 136.6875 641.746094 136.6875 C 681.863281 136.6875 714.496094 169.316406 714.496094 209.4375 C 714.496094 228.867188 706.730469 246.441406 694.28125 259.503906 C 725.925781 270.039062 754.082031 289.667969 774.523438 316.371094 C 790.304688 291.808594 799.574219 262.683594 799.574219 231.386719 C 799.574219 144.363281 728.765625 73.554688 641.746094 73.554688 Z M 641.746094 73.554688 " fill-opacity="1" fill-rule="nonzero"/></g><path fill="#ffffff" d="M 682.929688 209.4375 C 682.929688 210.785156 682.863281 212.132812 682.730469 213.472656 C 682.597656 214.816406 682.398438 216.148438 682.136719 217.472656 C 681.875 218.792969 681.546875 220.101562 681.15625 221.390625 C 680.761719 222.683594 680.308594 223.953125 679.792969 225.199219 C 679.277344 226.445312 678.703125 227.660156 678.066406 228.851562 C 677.429688 230.039062 676.738281 231.195312 675.988281 232.316406 C 675.238281 233.4375 674.4375 234.519531 673.582031 235.5625 C 672.722656 236.605469 671.820312 237.605469 670.867188 238.558594 C 669.914062 239.511719 668.914062 240.417969 667.871094 241.273438 C 666.828125 242.128906 665.746094 242.929688 664.625 243.679688 C 663.503906 244.429688 662.347656 245.121094 661.160156 245.757812 C 659.96875 246.394531 658.75 246.96875 657.503906 247.484375 C 656.257812 248.003906 654.992188 248.457031 653.699219 248.847656 C 652.410156 249.238281 651.101562 249.566406 649.777344 249.828125 C 648.457031 250.09375 647.125 250.289062 645.78125 250.421875 C 644.4375 250.554688 643.09375 250.621094 641.746094 250.621094 C 640.394531 250.621094 639.050781 250.554688 637.707031 250.421875 C 636.367188 250.289062 635.03125 250.09375 633.710938 249.828125 C 632.386719 249.566406 631.082031 249.238281 629.789062 248.847656 C 628.5 248.457031 627.230469 248.003906 625.984375 247.484375 C 624.738281 246.96875 623.519531 246.394531 622.332031 245.757812 C 621.140625 245.121094 619.984375 244.429688 618.863281 243.679688 C 617.742188 242.929688 616.660156 242.128906 615.617188 241.273438 C 614.574219 240.417969 613.578125 239.511719 612.625 238.558594 C 611.667969 237.605469 610.765625 236.605469 609.910156 235.5625 C 609.054688 234.519531 608.25 233.4375 607.5 232.316406 C 606.753906 231.195312 606.058594 230.039062 605.421875 228.851562 C 604.789062 227.660156 604.210938 226.445312 603.695312 225.199219 C 603.179688 223.953125 602.726562 222.683594 602.335938 221.390625 C 601.941406 220.101562 601.617188 218.792969 601.351562 217.472656 C 601.089844 216.148438 600.890625 214.816406 600.757812 213.472656 C 600.628906 212.132812 600.5625 210.785156 600.5625 209.4375 C 600.5625 208.089844 600.628906 206.742188 600.757812 205.402344 C 600.890625 204.058594 601.089844 202.726562 601.351562 201.402344 C 601.617188 200.078125 601.941406 198.773438 602.335938 197.480469 C 602.726562 196.191406 603.179688 194.921875 603.695312 193.675781 C 604.210938 192.429688 604.789062 191.210938 605.421875 190.023438 C 606.058594 188.832031 606.753906 187.679688 607.5 186.554688 C 608.25 185.433594 609.054688 184.351562 609.910156 183.308594 C 610.765625 182.269531 611.667969 181.269531 612.625 180.316406 C 613.578125 179.363281 614.574219 178.457031 615.617188 177.601562 C 616.660156 176.746094 617.742188 175.945312 618.863281 175.195312 C 619.984375 174.445312 621.140625 173.753906 622.332031 173.117188 C 623.519531 172.480469 624.738281 171.90625 625.984375 171.386719 C 627.230469 170.871094 628.5 170.417969 629.789062 170.027344 C 631.082031 169.636719 632.386719 169.308594 633.710938 169.042969 C 635.03125 168.78125 636.367188 168.582031 637.707031 168.453125 C 639.050781 168.320312 640.394531 168.253906 641.746094 168.253906 C 643.09375 168.253906 644.4375 168.320312 645.78125 168.453125 C 647.125 168.582031 648.457031 168.78125 649.777344 169.042969 C 651.101562 169.308594 652.410156 169.636719 653.699219 170.027344 C 654.992188 170.417969 656.257812 170.871094 657.503906 171.386719 C 658.75 171.90625 659.96875 172.480469 661.160156 173.117188 C 662.347656 173.753906 663.503906 174.445312 664.625 175.195312 C 665.746094 175.945312 666.828125 176.746094 667.871094 177.601562 C 668.914062 178.457031 669.914062 179.363281 670.867188 180.316406 C 671.820312 181.269531 672.722656 182.269531 673.582031 183.308594 C 674.4375 184.351562 675.238281 185.433594 675.988281 186.554688 C 676.738281 187.679688 677.429688 188.832031 678.066406 190.023438 C 678.703125 191.210938 679.277344 192.429688 679.792969 193.675781 C 680.308594 194.921875 680.761719 196.191406 681.15625 197.480469 C 681.546875 198.773438 681.875 200.078125 682.136719 201.402344 C 682.398438 202.726562 682.597656 204.058594 682.730469 205.398438 C 682.863281 206.742188 682.929688 208.089844 682.929688 209.4375 Z M 682.929688 209.4375 " fill-opacity="1" fill-rule="nonzero"/><path fill="#ffffff" d="M 529.421875 342.082031 C 558.0625 371.140625 597.820312 389.214844 641.746094 389.214844 C 685.667969 389.214844 725.425781 371.140625 754.070312 342.082031 C 728.910156 304.5625 687.53125 282.1875 641.746094 282.1875 C 595.960938 282.1875 554.578125 304.5625 529.421875 342.082031 Z M 529.421875 342.082031 " fill-opacity="1" fill-rule="nonzero"/><g clip-path="url(#65b9ea6a88)"><path fill="#ffffff" d="M 168.253906 326.082031 C 255.21875 326.082031 326.082031 255.21875 326.082031 168.253906 C 326.082031 81.289062 255.21875 10.421875 168.253906 10.421875 C 81.289062 10.421875 10.421875 81.289062 10.421875 168.253906 C 10.421875 255.21875 81.289062 326.082031 168.253906 326.082031 Z M 179.773438 188.140625 L 147.578125 178.511719 C 131.636719 173.777344 120.902344 159.257812 120.902344 142.683594 C 120.902344 123.902344 134.636719 108.59375 152.46875 105.753906 L 152.46875 89.339844 C 152.46875 80.65625 159.574219 73.554688 168.253906 73.554688 C 176.933594 73.554688 184.035156 80.65625 184.035156 89.339844 L 184.035156 105.121094 L 199.820312 105.121094 C 208.5 105.121094 215.601562 112.222656 215.601562 120.902344 C 215.601562 129.585938 208.5 136.6875 199.820312 136.6875 L 158.46875 136.6875 C 155.152344 136.6875 152.46875 139.371094 152.46875 142.683594 C 152.46875 145.210938 154.207031 147.578125 156.730469 148.367188 L 188.929688 157.992188 C 204.871094 162.730469 215.601562 177.25 215.601562 193.820312 C 215.601562 212.605469 201.871094 227.914062 184.035156 230.753906 L 184.035156 247.167969 C 184.035156 255.847656 176.933594 262.953125 168.253906 262.953125 C 159.574219 262.953125 152.46875 255.847656 152.46875 247.167969 L 152.46875 231.386719 L 136.6875 231.386719 C 128.007812 231.386719 120.902344 224.28125 120.902344 215.601562 C 120.902344 206.921875 128.007812 199.820312 136.6875 199.820312 L 178.039062 199.820312 C 181.351562 199.820312 184.035156 197.136719 184.035156 193.820312 C 184.035156 191.296875 182.300781 188.929688 179.773438 188.140625 Z M 179.773438 188.140625 " fill-opacity="1" fill-rule="nonzero"/></g></svg>