<svg xmlns="http://www.w3.org/2000/svg" xmlns:xlink="http://www.w3.org/1999/xlink" width="1080" zoomAndPan="magnify" viewBox="0 0 810 809.999993" height="1080" preserveAspectRatio="xMidYMid meet" version="1.0"><defs><clipPath id="21ac525d7c"><path d="M 382 16.074219 L 801.605469 16.074219 L 801.605469 436 L 382 436 Z M 382 16.074219 " clip-rule="nonzero"/></clipPath></defs><g clip-path="url(#21ac525d7c)"><path fill="#ffffff" d="M 740.253906 77.515625 C 700.625 37.886719 647.910156 16.074219 591.867188 16.074219 C 535.828125 16.074219 483.160156 37.886719 443.53125 77.515625 C 403.902344 117.144531 382.089844 169.863281 382.089844 225.902344 C 382.089844 281.945312 403.902344 334.660156 443.53125 374.238281 C 483.160156 413.917969 535.828125 435.734375 591.867188 435.734375 C 647.960938 435.734375 700.625 413.867188 740.253906 374.238281 C 779.882812 334.660156 801.699219 281.945312 801.699219 225.902344 C 801.699219 169.863281 779.882812 117.144531 740.253906 77.515625 Z M 633.988281 268.023438 C 622.769531 279.242188 607.8125 285.476562 591.867188 285.476562 C 575.972656 285.476562 561.015625 279.242188 549.746094 268.023438 C 538.527344 256.753906 532.292969 241.796875 532.292969 225.902344 C 532.347656 210.011719 538.527344 195.050781 549.746094 183.78125 C 561.015625 172.511719 575.972656 166.332031 591.867188 166.332031 C 607.8125 166.332031 622.769531 172.511719 633.988281 183.78125 C 645.261719 195.050781 651.441406 210.011719 651.441406 225.902344 C 651.441406 241.796875 645.261719 256.753906 633.988281 268.023438 Z M 633.988281 268.023438 " fill-opacity="1" fill-rule="nonzero"/></g><path fill="#ffffff" d="M 591.867188 187.625 C 581.6875 187.625 572.078125 191.625 564.808594 198.84375 C 557.589844 206.0625 553.589844 215.671875 553.589844 225.902344 C 553.589844 236.136719 557.589844 245.742188 564.808594 252.964844 C 579.296875 267.453125 604.488281 267.402344 618.980469 252.964844 C 626.199219 245.742188 630.199219 236.136719 630.199219 225.902344 C 630.199219 215.671875 626.199219 206.0625 618.980469 198.84375 C 611.707031 191.625 602.097656 187.625 591.867188 187.625 Z M 591.867188 187.625 " fill-opacity="1" fill-rule="nonzero"/><path fill="#ffffff" d="M 680.265625 443.523438 C 626.769531 465.234375 568.753906 466.066406 516.402344 448.25 C 516.816406 445.082031 515.984375 441.808594 513.542969 439.371094 C 509.390625 435.214844 502.691406 435.214844 498.535156 439.371094 L 497.082031 440.824219 C 471.007812 429.292969 446.804688 412.933594 425.820312 391.949219 C 334.253906 300.382812 334.253906 151.425781 425.820312 59.804688 C 429.976562 55.648438 429.976562 48.949219 425.820312 44.796875 C 421.667969 40.640625 414.914062 40.640625 410.757812 44.796875 C 343.1875 112.367188 321.476562 208.710938 345.421875 294.878906 L 337.058594 303.238281 L 175.84375 141.972656 C 174.804688 140.933594 173.609375 140.207031 172.363281 139.6875 L 185.605469 126.441406 C 189.761719 122.285156 189.761719 115.535156 185.605469 111.378906 C 181.402344 107.226562 174.699219 107.226562 170.546875 111.378906 L 74.511719 207.464844 C 70.355469 211.621094 70.355469 218.320312 74.511719 222.476562 C 76.589844 224.554688 79.289062 225.589844 81.992188 225.589844 C 84.742188 225.589844 87.445312 224.554688 89.523438 222.476562 L 101.933594 210.113281 C 102.453125 211.359375 103.234375 212.554688 104.273438 213.542969 L 265.488281 374.808594 L 116.789062 523.507812 C 84.222656 556.074219 75.289062 603.234375 89.574219 643.953125 L 39.921875 693.660156 C 35.765625 697.8125 35.765625 704.511719 39.921875 708.71875 L 60.074219 728.871094 L 12.550781 776.449219 C 8.394531 780.601562 8.394531 787.304688 12.550781 791.457031 C 14.628906 793.535156 17.328125 794.574219 20.082031 794.574219 C 22.78125 794.574219 25.535156 793.535156 27.613281 791.457031 L 75.136719 743.933594 L 95.339844 764.136719 C 97.417969 766.164062 100.117188 767.253906 102.816406 767.253906 C 105.570312 767.253906 108.273438 766.164062 110.347656 764.136719 L 159.949219 714.539062 C 172.207031 718.898438 185.242188 721.289062 198.695312 721.289062 C 229.652344 721.289062 258.738281 709.238281 280.601562 687.375 L 502.171875 465.804688 C 530.789062 476.558594 561.121094 482.113281 591.765625 482.113281 C 624.226562 482.113281 656.945312 475.933594 688.265625 463.261719 C 693.667969 461.027344 696.316406 454.847656 694.082031 449.394531 C 691.902344 443.941406 685.667969 441.34375 680.265625 443.523438 Z M 265.59375 672.3125 C 247.726562 690.179688 223.9375 699.996094 198.695312 699.996094 C 185.761719 699.996094 173.246094 697.398438 161.664062 692.464844 C 161.457031 692.410156 161.300781 692.308594 161.09375 692.203125 C 150.289062 687.53125 140.371094 680.882812 131.800781 672.3125 C 94.921875 635.4375 94.921875 575.445312 131.800781 538.570312 L 338.148438 332.273438 L 344.589844 325.78125 L 352.898438 317.46875 C 365.367188 350.140625 384.53125 380.78125 410.757812 407.011719 C 431.636719 427.890625 455.476562 444.5625 481.03125 456.871094 Z M 265.59375 672.3125 " fill-opacity="1" fill-rule="nonzero"/><path fill="#ffffff" d="M 269.539062 468.507812 C 267.617188 462.949219 261.539062 459.988281 255.984375 461.960938 C 250.476562 463.882812 247.519531 469.910156 249.4375 475.464844 L 289.585938 590.820312 C 291.144531 595.234375 295.25 597.988281 299.613281 597.988281 C 300.804688 597.988281 301.949219 597.78125 303.144531 597.363281 C 308.648438 595.441406 311.609375 589.417969 309.6875 583.859375 Z M 269.539062 468.507812 " fill-opacity="1" fill-rule="nonzero"/><path fill="#ffffff" d="M 221.914062 516.082031 C 219.992188 510.578125 213.914062 507.617188 208.410156 509.539062 C 202.851562 511.511719 199.890625 517.535156 201.863281 523.09375 L 241.960938 638.449219 C 243.519531 642.863281 247.621094 645.617188 252.035156 645.617188 C 253.179688 645.617188 254.375 645.40625 255.515625 644.992188 C 261.074219 643.070312 263.980469 636.992188 262.058594 631.488281 Z M 221.914062 516.082031 " fill-opacity="1" fill-rule="nonzero"/><path fill="#ffffff" d="M 180.257812 557.734375 C 178.335938 552.230469 172.3125 549.269531 166.703125 551.191406 C 161.195312 553.164062 158.234375 559.191406 160.15625 564.746094 L 200.304688 680.101562 C 201.863281 684.515625 205.96875 687.269531 210.382812 687.269531 C 211.523438 687.269531 212.71875 687.0625 213.863281 686.648438 C 219.417969 684.726562 222.328125 678.648438 220.40625 673.089844 Z M 180.257812 557.734375 " fill-opacity="1" fill-rule="nonzero"/></svg>