<svg xmlns="http://www.w3.org/2000/svg" xmlns:xlink="http://www.w3.org/1999/xlink" width="1080" zoomAndPan="magnify" viewBox="0 0 810 809.999993" height="1080" preserveAspectRatio="xMidYMid meet" version="1.0"><defs><clipPath id="76fa78a3b4"><path d="M 4.210938 696 L 107 696 L 107 798.726562 L 4.210938 798.726562 Z M 4.210938 696 " clip-rule="nonzero"/></clipPath><clipPath id="ea72aea26e"><path d="M 697 11.226562 L 805 11.226562 L 805 109 L 697 109 Z M 697 11.226562 " clip-rule="nonzero"/></clipPath></defs><path fill="#ffffff" d="M 499.160156 326.34375 C 499.160156 326.34375 499.160156 326.34375 499.132812 326.34375 C 483.101562 345.414062 464.054688 363.128906 445.609375 380.273438 C 436.140625 389.089844 426.320312 398.207031 417.097656 407.347656 L 413.679688 410.738281 C 396.5625 427.746094 378.847656 445.300781 362.597656 463.664062 C 359.558594 467.085938 356.601562 470.636719 353.671875 474.164062 C 347.378906 481.734375 340.894531 489.546875 333.542969 496.058594 C 332.183594 497.222656 330.746094 497.550781 329.039062 497.007812 C 328.035156 496.789062 327.113281 496.164062 326.40625 495.160156 C 319.273438 485.667969 311.59375 477.472656 305.058594 470.71875 C 303.726562 469.363281 303.699219 466.132812 304.976562 464.695312 C 321.550781 446.332031 340.515625 429.917969 358.824219 414.074219 C 366.257812 407.644531 373.691406 401.214844 380.988281 394.625 C 396.832031 380.382812 410.207031 363.5625 423.148438 347.285156 C 436.195312 330.871094 449.679688 313.890625 465.546875 299.890625 C 466.363281 299.1875 467.71875 298.78125 468.886719 298.78125 C 469.480469 298.78125 470.050781 298.886719 470.457031 299.105469 C 479.683594 304.234375 490.261719 310.742188 499.105469 320.292969 C 500.460938 321.730469 500.488281 324.769531 499.160156 326.34375 Z M 492.785156 297.832031 C 491.808594 297.207031 490.777344 296.5 489.71875 295.742188 C 482.230469 290.613281 472.003906 283.613281 462.753906 285.730469 C 455.511719 287.414062 449.867188 295.28125 445.3125 301.574219 C 444.007812 303.417969 442.789062 305.128906 441.59375 306.566406 C 436.167969 313.210938 430.933594 320.15625 425.859375 326.882812 C 416.582031 339.199219 406.976562 351.953125 395.992188 363.128906 C 379.390625 380.082031 361.753906 394.460938 343.089844 409.679688 L 340.921875 411.417969 C 336.117188 415.324219 332.265625 419.960938 328.523438 424.4375 C 325.320312 428.261719 322.011719 432.222656 318.1875 435.589844 C 316.015625 437.542969 313.628906 439.414062 311.214844 441.339844 C 305.355469 445.976562 299.304688 450.78125 295.210938 456.828125 C 285.824219 470.800781 297 481.894531 305.980469 490.820312 C 308.71875 493.535156 311.296875 496.085938 313.140625 498.527344 C 317.753906 504.628906 323.179688 507.804688 329.253906 507.9375 C 329.390625 507.9375 329.527344 507.9375 329.664062 507.9375 C 340.242188 507.9375 349.304688 498.933594 353.78125 493.507812 C 379.578125 462.199219 408.957031 433.253906 437.363281 405.285156 C 445.554688 397.230469 453.71875 389.171875 461.804688 381.058594 C 466.769531 376.121094 472.113281 371.320312 477.785156 366.222656 C 488.011719 357.050781 498.589844 347.554688 506.59375 337.21875 C 511.125 331.386719 512.941406 325.609375 512.046875 320.101562 C 510.472656 310.582031 500.925781 303.203125 492.785156 297.832031 " fill-opacity="1" fill-rule="nonzero"/><path fill="#ffffff" d="M 468.914062 310.609375 C 464.273438 315.328125 459.714844 320.507812 455.347656 325.988281 C 450.519531 332.039062 445.746094 338.171875 440.96875 344.273438 L 434.894531 352.058594 C 424.015625 365.949219 411.96875 380.570312 397.808594 393.269531 C 389.5625 400.699219 380.933594 408.132812 372.605469 415.296875 C 353.832031 431.464844 334.4375 448.148438 317.375 466.460938 C 316.722656 467.136719 316.722656 468.195312 317.375 468.847656 C 321.929688 473.59375 326 478.179688 329.851562 482.871094 C 330.152344 483.253906 330.613281 483.496094 331.101562 483.523438 C 331.128906 483.523438 331.15625 483.523438 331.207031 483.523438 C 331.644531 483.523438 332.078125 483.332031 332.402344 483.035156 C 340 475.628906 346.96875 467.273438 353.726562 459.191406 C 359.125 452.761719 364.683594 446.113281 370.464844 440.0625 C 383.132812 426.851562 395.855469 414.101562 411.046875 399.019531 C 419.917969 390.230469 429.386719 381.441406 438.527344 372.921875 C 454.941406 357.648438 471.921875 341.832031 486.707031 325.011719 C 487.332031 324.308594 487.25 323.195312 486.546875 322.570312 C 470.8125 308.734375 470.324219 309.222656 468.914062 310.609375 " fill-opacity="1" fill-rule="nonzero"/><path fill="#ffffff" d="M 244.886719 520.851562 C 244.207031 520.878906 243.613281 521.339844 243.367188 521.992188 C 243.148438 522.644531 243.3125 523.375 243.828125 523.835938 C 256.957031 536.015625 270.222656 549.363281 283.246094 563.523438 C 283.597656 563.878906 284.058594 564.09375 284.546875 564.09375 C 284.574219 564.09375 284.601562 564.09375 284.628906 564.09375 C 285.144531 564.066406 285.632812 563.796875 285.933594 563.390625 C 286.039062 563.226562 286.148438 563.011719 286.230469 562.792969 C 286.257812 562.683594 286.285156 562.546875 286.3125 562.441406 C 287.910156 552.429688 284.683594 542.445312 277.222656 534.28125 C 268.921875 525.191406 256.523438 520.066406 244.886719 520.851562 " fill-opacity="1" fill-rule="nonzero"/><path fill="#ffffff" d="M 262.058594 557.449219 C 262.304688 556.824219 262.140625 556.09375 261.679688 555.605469 C 257.609375 551.398438 253.460938 547.25 249.253906 543.125 C 248.929688 542.800781 248.441406 542.609375 247.953125 542.636719 C 247.492188 542.664062 247.03125 542.878906 246.730469 543.261719 C 240.898438 550.257812 235.039062 556.796875 227.414062 560.054688 C 226.925781 560.242188 226.574219 560.648438 226.4375 561.136719 C 226.277344 561.625 226.359375 562.167969 226.628906 562.601562 L 228.066406 564.773438 C 231.132812 569.304688 234.6875 573.835938 238.621094 578.203125 C 238.972656 578.582031 239.433594 578.769531 239.921875 578.769531 C 240.246094 578.769531 240.601562 578.664062 240.898438 578.472656 C 241.0625 578.363281 241.222656 578.28125 241.359375 578.230469 C 250.882812 574.539062 258.234375 567.160156 262.058594 557.449219 " fill-opacity="1" fill-rule="nonzero"/><path fill="#ffffff" d="M 272.449219 566.863281 L 271.878906 566.265625 C 271.527344 565.859375 270.957031 565.640625 270.386719 565.722656 C 269.84375 565.777344 269.355469 566.128906 269.085938 566.617188 C 264.636719 574.8125 257.773438 581.59375 249.742188 585.714844 C 249.226562 585.988281 248.902344 586.503906 248.820312 587.074219 C 248.765625 587.640625 248.984375 588.210938 249.417969 588.59375 C 252.480469 591.222656 255.546875 593.554688 258.804688 595.78125 C 259.074219 595.996094 259.425781 596.105469 259.78125 596.105469 C 260.023438 596.105469 260.269531 596.050781 260.511719 595.945312 C 268.730469 592.144531 275.378906 585.851562 280.261719 577.171875 C 280.613281 576.519531 280.53125 575.707031 280.042969 575.136719 C 277.523438 572.394531 274.972656 569.628906 272.449219 566.863281 " fill-opacity="1" fill-rule="nonzero"/><path fill="#ffffff" d="M 85.261719 737.609375 C 86.160156 738.53125 87.054688 739.425781 87.949219 740.375 L 95.898438 748.378906 C 96.25 748.703125 96.683594 748.894531 97.144531 748.894531 C 97.472656 748.894531 97.824219 748.785156 98.121094 748.59375 C 98.339844 748.433594 98.527344 748.296875 98.9375 747.972656 C 100.210938 746.996094 101.730469 746.019531 103.277344 744.988281 C 105.960938 743.25 108.730469 741.433594 111.089844 739.261719 C 111.523438 738.855469 111.957031 738.421875 112.445312 738.015625 C 112.554688 737.90625 112.636719 737.796875 112.71875 737.6875 C 113.042969 737.199219 113.367188 736.738281 113.722656 736.25 C 114.480469 735.382812 114.996094 734.324219 115.511719 733.320312 L 115.972656 732.425781 C 116.488281 731.585938 116.8125 730.71875 116.921875 729.902344 C 116.976562 729.6875 117.058594 729.46875 117.113281 729.253906 C 117.300781 728.765625 117.4375 728.25 117.519531 727.515625 C 117.519531 726.890625 117.546875 726.269531 117.546875 725.835938 C 117.707031 725.019531 117.519531 724.316406 117.382812 723.800781 C 117.355469 723.609375 117.300781 723.445312 117.246094 722.984375 C 116.515625 719.8125 114.699219 716.203125 111.847656 712.242188 C 110.003906 709.558594 107.726562 706.601562 105.417969 703.644531 L 103.058594 700.550781 C 100.347656 697.105469 97.117188 693.144531 93.699219 689.890625 C 90.335938 686.578125 86.835938 684.191406 83.851562 683.132812 C 80.324219 681.859375 78.210938 682.589844 76.203125 684.03125 C 73.816406 685.628906 71.238281 687.636719 68.308594 690.1875 C 63.613281 694.472656 59.980469 698.21875 57.78125 700.929688 L 56.832031 702.097656 C 56.261719 702.746094 56.261719 703.699219 56.832031 704.347656 C 63.585938 712.1875 70.777344 720.789062 78.183594 729.875 C 80.488281 732.832031 82.902344 735.273438 85.261719 737.609375 " fill-opacity="1" fill-rule="nonzero"/><g clip-path="url(#76fa78a3b4)"><path fill="#ffffff" d="M 99.914062 769.648438 L 99.425781 769.078125 C 96.007812 764.980469 91.773438 759.90625 87.027344 754.402344 C 87.027344 754.402344 87 754.402344 87 754.375 L 79.105469 745.582031 C 78.34375 744.714844 77.53125 743.847656 76.71875 742.980469 C 74.738281 740.808594 72.648438 738.585938 70.804688 736.199219 C 60.738281 723.933594 49.996094 712.785156 40.609375 704.890625 C 37.382812 701.851562 34.398438 699.792969 32.011719 698.136719 C 31.359375 697.703125 30.761719 697.296875 30.246094 696.914062 C 30.191406 696.859375 29.8125 696.617188 29.730469 696.5625 C 29.378906 696.320312 28.917969 696.210938 28.484375 696.238281 C 27.667969 696.347656 27.617188 696.371094 17.632812 705.597656 C 15 708.011719 12.015625 710.777344 11.664062 711.050781 C 11.121094 711.402344 10.523438 711.890625 9.875 712.40625 L 8.84375 713.21875 C 8.328125 713.597656 7.839844 714.007812 7.460938 714.332031 L 6.644531 714.957031 C 6.507812 715.011719 6.375 715.0625 6.292969 715.117188 C 6.183594 715.144531 5.777344 715.390625 5.695312 715.445312 C 5.097656 715.796875 4.800781 716.691406 4.882812 717.398438 C 4.910156 717.53125 5.152344 718.15625 5.234375 718.320312 L 5.261719 718.292969 C 5.34375 718.507812 5.425781 718.699219 5.507812 718.863281 L 5.941406 719.40625 C 7.296875 721.519531 8.976562 723.582031 10.363281 725.238281 L 15.300781 731.152344 L 21.160156 737.445312 C 29.214844 746.042969 39.363281 755.378906 51.082031 766.203125 L 68.117188 782.777344 C 70.425781 785.027344 72.511719 787.414062 74.359375 789.53125 C 76.90625 792.460938 79.132812 794.957031 81.222656 796.476562 C 82.957031 797.804688 84.558594 798.566406 86.132812 798.648438 C 86.160156 798.648438 86.160156 798.648438 86.1875 798.648438 C 87.351562 798.648438 88.734375 798.265625 90.417969 797.425781 C 91.53125 796.828125 92.75 795.878906 93.945312 794.957031 L 95.21875 793.953125 C 97.417969 792.109375 99.316406 789.367188 101.160156 786.710938 C 102.789062 784.351562 104.46875 781.910156 106.316406 780.171875 C 106.964844 779.546875 107.046875 778.542969 106.476562 777.839844 C 104.742188 775.613281 102.542969 772.847656 99.914062 769.648438 " fill-opacity="1" fill-rule="nonzero"/></g><path fill="#ffffff" d="M 218.953125 550.9375 C 219.277344 551.371094 219.792969 551.644531 220.335938 551.644531 C 220.523438 551.644531 220.714844 551.617188 220.878906 551.5625 C 228.582031 549.039062 233.65625 542.933594 238.59375 537.019531 L 239.433594 535.988281 C 240.03125 535.285156 239.976562 534.253906 239.324219 533.628906 C 236.640625 531.050781 233.898438 528.503906 231.132812 526.007812 C 230.589844 525.519531 229.777344 525.410156 229.125 525.789062 C 222.398438 529.585938 216.210938 535.039062 211.707031 541.171875 C 211.164062 541.902344 211.300781 542.960938 212.035156 543.53125 C 214.503906 545.566406 216.78125 547.980469 218.953125 550.9375 " fill-opacity="1" fill-rule="nonzero"/><path fill="#ffffff" d="M 224.839844 577.6875 C 222.503906 574.917969 220.417969 571.285156 218.21875 567.457031 C 215.261719 562.304688 212.222656 556.960938 208.128906 553.214844 C 207.695312 552.808594 207.070312 552.648438 206.472656 552.808594 C 205.902344 552.972656 205.46875 553.433594 205.277344 554.003906 C 203.679688 559.511719 203.570312 564.992188 204.953125 570.308594 C 208.886719 585.253906 224.621094 597.734375 241.550781 599.308594 C 241.605469 599.308594 241.65625 599.308594 241.710938 599.308594 C 242.390625 599.308594 243.015625 598.902344 243.285156 598.277344 C 243.585938 597.570312 243.421875 596.785156 242.851562 596.269531 C 237.234375 591.277344 231.511719 585.363281 224.839844 577.6875 " fill-opacity="1" fill-rule="nonzero"/><path fill="#ffffff" d="M 534.996094 250.164062 C 534.726562 249.648438 534.210938 249.324219 533.613281 249.296875 C 533.042969 249.269531 532.472656 249.488281 532.121094 249.949219 C 529.488281 253.339844 527.265625 256.488281 525.367188 259.550781 C 525.039062 260.066406 525.015625 260.691406 525.285156 261.234375 C 529.328125 269.320312 535.890625 275.746094 544.816406 280.332031 C 545.0625 280.46875 545.332031 280.523438 545.605469 280.523438 C 546.039062 280.523438 546.472656 280.359375 546.824219 280.035156 C 549.671875 277.210938 552.523438 274.363281 555.371094 271.515625 C 555.777344 271.109375 555.941406 270.539062 555.859375 269.996094 C 555.75 269.425781 555.398438 268.964844 554.910156 268.722656 C 546.636719 264.734375 539.582031 258.140625 534.996094 250.164062 " fill-opacity="1" fill-rule="nonzero"/><path fill="#ffffff" d="M 558.191406 284.375 C 558.328125 284.945312 558.84375 285.460938 559.414062 285.648438 C 559.519531 285.675781 559.765625 285.730469 559.875 285.757812 C 561.175781 285.921875 562.476562 286.003906 563.753906 286.003906 C 572.296875 286.003906 580.519531 282.503906 587.246094 275.910156 C 596.0625 267.257812 600.785156 254.535156 599.5625 242.707031 C 599.480469 242.027344 599.019531 241.457031 598.339844 241.242188 C 597.691406 241.023438 596.984375 241.242188 596.523438 241.78125 C 584.558594 255.753906 571.78125 269.535156 558.570312 282.71875 C 558.136719 283.125 558.054688 283.777344 558.191406 284.375 " fill-opacity="1" fill-rule="nonzero"/><path fill="#ffffff" d="M 517.90625 339.445312 C 504.859375 356.320312 488.039062 371.726562 471.789062 386.648438 C 464.542969 393.296875 457.058594 400.1875 450.167969 406.96875 C 414.820312 441.773438 386.820312 471.179688 362.109375 499.53125 C 355 507.640625 341.054688 521.070312 326.921875 520.71875 C 320.140625 520.472656 314.089844 516.890625 308.9375 510.054688 C 306.167969 506.394531 302.695312 502.675781 299.007812 498.769531 C 286.285156 485.234375 273.128906 471.261719 284.277344 454.660156 C 296.265625 436.863281 313.738281 422.484375 330.667969 408.566406 C 337.148438 403.25 343.851562 397.71875 350.035156 392.183594 C 379.035156 366.195312 402.367188 337.953125 427.082031 308.085938 L 434.867188 298.671875 C 447.644531 284.183594 458.167969 277.160156 469.5625 277.160156 C 478.40625 277.160156 487.765625 281.417969 499.105469 289.71875 C 513.863281 300.515625 522.082031 311.042969 523.496094 320.972656 C 524.390625 327.265625 522.519531 333.476562 517.90625 339.445312 Z M 296.511719 563.933594 C 296.511719 563.960938 296.511719 563.988281 296.484375 564.011719 C 296.457031 564.3125 296.375 564.636719 296.1875 565.070312 C 296.132812 565.207031 296.105469 565.34375 296.078125 565.480469 C 289.484375 589.648438 268.652344 612.546875 241.441406 609.480469 C 226.113281 607.773438 210.542969 599.0625 201.699219 587.289062 C 195.105469 578.5 192.554688 568.515625 194.320312 558.398438 C 198.414062 534.605469 219.519531 510.734375 245.265625 510.734375 C 246.515625 510.734375 247.789062 510.789062 249.0625 510.894531 C 264.933594 512.335938 279.636719 519.984375 288.398438 531.351562 C 295.671875 540.738281 298.464844 551.996094 296.511719 563.933594 Z M 609.652344 244.957031 C 610.441406 259.089844 604.988281 273.007812 594.734375 283.074219 C 585.265625 292.378906 573.140625 297.015625 560.605469 296.09375 C 560.550781 296.09375 560.523438 296.09375 560.46875 296.09375 C 560.445312 296.09375 560.390625 296.09375 560.363281 296.09375 C 559.738281 296.121094 559.277344 296.121094 558.515625 295.957031 C 557.976562 295.878906 557.488281 295.742188 556.890625 295.550781 C 532.609375 289.367188 508.980469 270.59375 510.933594 242.625 C 511.992188 227.566406 519.507812 212.375 530.601562 202.988281 C 539.011719 195.855469 548.859375 192.625 559.03125 193.601562 C 586.539062 196.261719 608.296875 218.316406 609.652344 244.957031 Z M 762.710938 102.046875 C 761.355469 100.769531 760 99.523438 758.671875 98.246094 C 757.992188 97.625 756.933594 97.625 756.253906 98.273438 C 753.054688 101.394531 750.695312 105.136719 748.414062 108.773438 C 746.679688 111.539062 744.890625 114.414062 742.71875 116.910156 C 738.757812 121.46875 732.003906 125.484375 724.21875 127.925781 C 711.03125 132.050781 697.496094 123.503906 689.925781 114.929688 C 681.542969 105.515625 677.664062 94.585938 678.667969 83.328125 C 679.753906 71.527344 686.183594 60.429688 696.816406 52.101562 C 697.199219 51.804688 697.441406 51.34375 697.46875 50.855469 C 697.496094 50.367188 697.304688 49.878906 696.980469 49.523438 C 694.214844 46.703125 692.042969 44.207031 690.171875 41.710938 C 689.898438 41.304688 689.464844 41.058594 688.976562 41.007812 C 688.488281 40.953125 688.027344 41.113281 687.648438 41.414062 L 684.039062 44.585938 C 680.511719 47.597656 675.957031 51.75 670.175781 57.039062 L 663.558594 63.089844 C 646.058594 78.957031 620.476562 102.886719 589.523438 132.265625 C 521.351562 196.941406 436.710938 279.382812 351.230469 364.429688 C 260.023438 455.175781 178.179688 538.457031 117.058594 600.910156 L 95.84375 622.664062 C 88.382812 630.667969 82.632812 637.042969 77.667969 642.6875 C 74.140625 646.621094 70.804688 650.417969 67.574219 654.027344 C 60.359375 662.191406 54.121094 669.21875 48.394531 675.292969 C 45.464844 678.46875 42.808594 681.289062 40.257812 683.921875 C 39.605469 684.597656 39.605469 685.683594 40.285156 686.363281 L 41.097656 687.148438 C 42.15625 688.207031 43.378906 689.402344 44.734375 690.757812 C 45.382812 691.433594 46.414062 691.460938 47.121094 690.867188 C 49.425781 688.832031 53.117188 685.710938 58.378906 681.941406 C 60.929688 679.988281 63.914062 677.953125 67.46875 675.78125 L 70.425781 674.101562 L 72.105469 673.3125 C 72.917969 673.015625 73.734375 672.691406 74.464844 672.363281 C 76.960938 671.46875 80.378906 671.332031 83.769531 672.039062 C 90.417969 673.585938 95.21875 677.519531 99.042969 681.152344 C 103.386719 685.304688 107.210938 690.050781 110.710938 694.582031 L 112.851562 697.324219 C 113.964844 698.734375 115.023438 700.089844 116.054688 701.363281 L 117.140625 702.773438 C 118.578125 704.59375 119.960938 706.382812 121.261719 708.253906 C 124.109375 712.296875 127.503906 717.777344 128.289062 724.152344 C 128.425781 725.753906 128.453125 727.300781 128.503906 728.601562 C 128.371094 729.769531 128.152344 730.878906 127.964844 731.992188 L 127.773438 732.914062 C 127.582031 734.324219 127.148438 735.4375 126.632812 736.6875 C 126.226562 737.769531 125.820312 738.828125 125.496094 739.695312 C 124.519531 741.621094 123.351562 743.820312 122.128906 745.53125 C 121.722656 746.019531 121.316406 746.53125 120.910156 747.023438 C 120.015625 748.160156 119.121094 749.300781 118.25 750.085938 C 115.648438 752.636719 113.476562 754.535156 111.769531 756.027344 C 110.65625 756.976562 109.734375 757.792969 109.027344 758.46875 C 108.675781 758.824219 108.484375 759.257812 108.484375 759.71875 C 108.484375 760.179688 108.675781 760.640625 109 760.964844 C 109.570312 761.507812 110.113281 762.050781 110.628906 762.539062 C 112.796875 764.546875 114.699219 766.253906 116.269531 767.691406 L 116.839844 768.179688 C 117.140625 768.480469 117.574219 768.617188 117.980469 768.617188 C 118.304688 768.617188 118.632812 768.535156 118.929688 768.34375 C 118.984375 768.316406 119.226562 768.128906 119.28125 768.101562 C 119.28125 768.101562 119.796875 767.667969 120.691406 766.90625 C 121.695312 766.09375 123.132812 764.84375 124.980469 763.082031 C 126.144531 761.941406 127.503906 760.667969 129.074219 759.230469 C 132.332031 756.246094 136.375 752.5 141.011719 747.699219 L 144.132812 744.5 C 146.789062 741.785156 149.640625 738.855469 152.730469 735.683594 C 156.9375 731.097656 161.628906 726.105469 166.703125 720.679688 C 168.410156 718.835938 170.148438 716.964844 171.910156 715.039062 C 175.492188 711.128906 179.234375 707.0625 183.332031 702.828125 L 192.636719 692.925781 C 194.210938 691.382812 195.8125 689.78125 197.4375 688.179688 C 199.285156 686.363281 201.15625 684.519531 203.027344 682.644531 C 259.320312 626.761719 342.957031 543.722656 452.390625 435.101562 C 565.816406 322.328125 647.144531 241.59375 702.082031 187.769531 C 710.925781 179.089844 719.769531 170.4375 728.667969 161.808594 C 734.527344 156.085938 741.117188 150.171875 747.492188 144.445312 C 750.234375 141.976562 753 139.507812 755.6875 137.039062 C 759.320312 133.730469 762.496094 130.042969 765.535156 126.460938 C 768.382812 123.097656 771.367188 119.625 774.648438 116.585938 C 775.328125 115.933594 775.410156 114.902344 774.785156 114.171875 C 771.148438 109.859375 766.863281 105.871094 762.710938 102.046875 " fill-opacity="1" fill-rule="nonzero"/><path fill="#ffffff" d="M 702.570312 112.597656 C 707.371094 116.125 712.714844 117.96875 717.949219 117.96875 C 719.386719 117.96875 720.828125 117.832031 722.265625 117.535156 C 728.882812 116.234375 734.742188 111.839844 738.785156 105.164062 C 741.796875 100.199219 744.644531 95.480469 748.578125 91.4375 C 748.902344 91.113281 749.09375 90.652344 749.066406 90.164062 C 749.066406 89.703125 748.851562 89.242188 748.496094 88.941406 C 741.089844 82.375 733.957031 76.898438 726.6875 72.148438 C 720.230469 67.917969 713.554688 63.523438 707.316406 58.695312 C 706.691406 58.234375 705.851562 58.207031 705.226562 58.667969 C 694.917969 66.207031 688.761719 77.085938 688.761719 87.75 C 688.761719 94.476562 691.175781 104.242188 702.570312 112.597656 " fill-opacity="1" fill-rule="nonzero"/><path fill="#ffffff" d="M 564.378906 261.371094 C 564.839844 261.371094 565.300781 261.179688 565.652344 260.828125 C 569.640625 256.566406 573.601562 252.253906 577.535156 247.914062 C 577.859375 247.535156 578.023438 247.074219 577.96875 246.585938 C 577.914062 246.097656 577.671875 245.664062 577.289062 245.363281 C 570.398438 240.101562 563.347656 234.351562 559.710938 226.78125 C 559.492188 226.320312 559.085938 225.996094 558.570312 225.859375 C 558.082031 225.722656 557.566406 225.832031 557.132812 226.128906 L 556.375 226.671875 C 555.640625 227.1875 554.910156 227.703125 554.257812 228.21875 C 550.242188 231.203125 546.148438 234.757812 542.050781 238.800781 C 541.453125 239.367188 541.425781 240.398438 541.859375 241.078125 C 541.96875 241.269531 542.105469 241.457031 542.242188 241.757812 C 546.253906 250.925781 553.933594 257.84375 563.808594 261.289062 C 563.996094 261.34375 564.1875 261.371094 564.378906 261.371094 " fill-opacity="1" fill-rule="nonzero"/><g clip-path="url(#ea72aea26e)"><path fill="#ffffff" d="M 803.757812 87.289062 C 803.730469 87.207031 803.675781 87.152344 803.621094 87.070312 L 801.585938 84.546875 C 796.054688 78.144531 789.894531 71.714844 785.121094 66.859375 C 765.261719 46.675781 745.023438 29.152344 729.644531 18.789062 C 728.855469 18.246094 727.988281 17.539062 727.066406 16.808594 C 724.570312 14.828125 721.722656 12.546875 718.871094 11.953125 C 716.214844 11.328125 713.910156 12.304688 712.28125 14.691406 L 711.847656 15.289062 C 711.414062 15.886719 711.003906 16.480469 710.625 16.945312 C 710.382812 17.1875 710.082031 17.511719 709.894531 17.839844 C 709.675781 18.136719 709.539062 18.410156 709.378906 18.707031 L 709.242188 19.03125 C 707.640625 21.367188 705.417969 24.078125 702.515625 27.089844 C 701.132812 28.636719 699.53125 30.261719 697.765625 32.027344 C 697.171875 32.625 697.089844 33.601562 697.605469 34.277344 C 706.855469 47.027344 720.175781 55.683594 733.0625 64.039062 C 736.179688 66.074219 739.273438 68.082031 742.3125 70.140625 C 754.277344 78.253906 763.6875 87.9375 773.671875 98.191406 C 776.683594 101.3125 779.722656 104.40625 782.839844 107.496094 C 783.195312 107.851562 783.628906 108.011719 784.0625 108.011719 C 784.496094 108.011719 784.902344 107.851562 785.230469 107.550781 C 787.5625 105.4375 788.753906 104.296875 788.753906 104.296875 C 792.609375 100.796875 796.433594 97.625 800.121094 94.828125 C 800.203125 94.773438 800.582031 94.394531 800.664062 94.3125 L 803.730469 91.058594 C 804.328125 90.597656 804.542969 90.054688 804.625 89.648438 C 804.816406 88.617188 804.21875 87.855469 803.757812 87.289062 " fill-opacity="1" fill-rule="nonzero"/></g><path fill="#ffffff" d="M 543.785156 223.335938 C 543.8125 223.335938 543.8125 223.335938 543.8125 223.335938 C 546.066406 221.464844 548.914062 219.671875 551.925781 217.773438 C 556.890625 214.628906 562.015625 211.398438 565.597656 207.222656 C 566.003906 206.761719 566.113281 206.136719 565.921875 205.539062 C 565.761719 204.96875 565.273438 204.535156 564.675781 204.398438 C 560.117188 203.34375 555.640625 203.261719 551.355469 204.183594 C 535.429688 207.574219 521.867188 224.664062 521.082031 242.296875 C 521.027344 243.058594 521.488281 243.738281 522.191406 244.007812 C 522.410156 244.0625 522.597656 244.117188 522.816406 244.117188 C 523.332031 244.117188 523.820312 243.871094 524.171875 243.4375 C 529.898438 236.140625 536.679688 229.195312 543.785156 223.335938 " fill-opacity="1" fill-rule="nonzero"/><path fill="#ffffff" d="M 578.023438 210.3125 C 577.261719 209.796875 576.203125 209.988281 575.664062 210.75 C 573.816406 213.269531 571.484375 215.660156 568.472656 218.019531 C 567.875 218.480469 567.660156 219.292969 567.957031 220.027344 C 567.984375 220.109375 568.039062 220.1875 568.09375 220.296875 C 570.859375 227.621094 577.316406 232.53125 583.042969 236.871094 L 584.261719 237.796875 C 584.558594 238.011719 584.941406 238.148438 585.320312 238.148438 C 585.78125 238.148438 586.269531 237.929688 586.621094 237.550781 C 588.902344 234.917969 591.152344 232.261719 593.378906 229.601562 L 593.839844 229.058594 C 594.328125 228.492188 594.382812 227.675781 594 227.023438 C 589.90625 220.378906 584.234375 214.4375 578.023438 210.3125 " fill-opacity="1" fill-rule="nonzero"/></svg>