<svg xmlns="http://www.w3.org/2000/svg" xmlns:xlink="http://www.w3.org/1999/xlink" width="1080" zoomAndPan="magnify" viewBox="0 0 810 809.999993" height="1080" preserveAspectRatio="xMidYMid meet" version="1.0"><defs><clipPath id="f121ba5b54"><path d="M 379.984375 416.734375 L 383.734375 416.734375 L 383.734375 420.484375 L 379.984375 420.484375 Z M 379.984375 416.734375 " clip-rule="nonzero"/></clipPath><clipPath id="210e116fbb"><path d="M 10.035156 17.273438 L 702 17.273438 L 702 502 L 10.035156 502 Z M 10.035156 17.273438 " clip-rule="nonzero"/></clipPath><clipPath id="4347f74558"><path d="M 378 85 L 796.785156 85 L 796.785156 472 L 378 472 Z M 378 85 " clip-rule="nonzero"/></clipPath></defs><g clip-path="url(#f121ba5b54)"><path fill="#ffffff" d="M 379.984375 416.734375 L 383.734375 416.734375 L 383.734375 420.484375 L 379.984375 420.484375 Z M 379.984375 416.734375 " fill-opacity="1" fill-rule="nonzero"/></g><path fill="#ffffff" d="M 396.1875 788.992188 C 414.714844 788.992188 429.789062 773.917969 429.789062 755.390625 L 429.789062 531.457031 C 429.789062 512.929688 414.714844 497.855469 396.1875 497.855469 C 377.664062 497.855469 362.589844 512.929688 362.589844 531.457031 L 362.589844 755.390625 C 362.589844 773.917969 377.664062 788.992188 396.1875 788.992188 Z M 381.800781 643.421875 C 381.800781 635.476562 388.242188 629.035156 396.1875 629.035156 C 404.128906 629.035156 410.570312 635.476562 410.570312 643.421875 L 410.570312 692.300781 C 410.570312 700.246094 404.128906 706.6875 396.1875 706.6875 C 388.242188 706.6875 381.800781 700.246094 381.800781 692.300781 Z M 381.800781 643.421875 " fill-opacity="1" fill-rule="nonzero"/><g clip-path="url(#210e116fbb)"><path fill="#ffffff" d="M 243.84375 475.476562 L 243.84375 264.953125 C 243.84375 235.753906 267.597656 212 296.804688 212 L 662.605469 212 C 684.167969 212 701.707031 193.582031 701.707031 170.953125 L 701.707031 73.429688 L 316.078125 73.429688 C 308.132812 73.429688 301.691406 66.988281 301.691406 59.046875 C 301.691406 51.101562 308.132812 44.660156 316.078125 44.660156 L 699.097656 44.660156 C 693.519531 29.128906 679.332031 17.996094 662.605469 17.996094 L 49.789062 17.996094 C 28.234375 17.996094 10.695312 36.414062 10.695312 59.046875 L 10.695312 400.875 C 10.695312 414.992188 22.179688 426.476562 36.296875 426.476562 C 50.414062 426.476562 61.898438 414.992188 61.898438 400.875 L 61.898438 313 C 61.898438 283.019531 86.292969 258.625 116.273438 258.625 L 132.265625 258.625 C 162.246094 258.625 186.640625 283.019531 186.640625 313 L 186.640625 475.476562 C 186.640625 489.59375 198.125 501.078125 212.242188 501.078125 L 218.238281 501.078125 C 232.359375 501.078125 243.84375 489.59375 243.84375 475.476562 Z M 259.183594 48.894531 C 264.507812 43.578125 274.144531 43.578125 279.460938 48.894531 C 282.199219 51.636719 283.78125 55.230469 283.78125 59.117188 C 283.78125 62.851562 282.199219 66.589844 279.460938 69.179688 C 276.875 71.914062 273.132812 73.351562 269.25 73.351562 C 265.511719 73.351562 261.769531 71.914062 259.183594 69.179688 C 256.449219 66.589844 255.011719 62.851562 255.011719 59.117188 C 255.011719 55.230469 256.449219 51.488281 259.183594 48.894531 Z M 259.183594 48.894531 " fill-opacity="1" fill-rule="nonzero"/></g><g clip-path="url(#4347f74558)"><path fill="#ffffff" d="M 740.085938 85.984375 L 730.480469 85.984375 L 730.480469 121.1875 L 740.085938 121.1875 C 752.429688 121.1875 762.464844 131.230469 762.464844 143.574219 L 762.464844 240.1875 C 762.464844 263.457031 745.804688 283.019531 722.851562 286.699219 L 448.15625 329.574219 C 407.839844 335.839844 378.582031 370.027344 378.582031 410.855469 L 378.582031 471.925781 C 384.203125 470.257812 390.03125 469.085938 396.1875 469.085938 C 402.34375 469.085938 408.171875 470.257812 413.796875 471.925781 L 413.796875 410.855469 C 413.796875 387.570312 430.464844 368.011719 453.425781 364.34375 L 728.113281 321.460938 C 768.421875 315.195312 797.675781 281.019531 797.675781 240.1875 L 797.675781 143.574219 C 797.675781 111.816406 771.84375 85.984375 740.085938 85.984375 Z M 740.085938 85.984375 " fill-opacity="1" fill-rule="nonzero"/></g></svg>