<svg xmlns="http://www.w3.org/2000/svg" xmlns:xlink="http://www.w3.org/1999/xlink" width="1080" zoomAndPan="magnify" viewBox="0 0 810 809.999993" height="1080" preserveAspectRatio="xMidYMid meet" version="1.0"><defs><clipPath id="87a8764c91"><path d="M 443 6.597656 L 471 6.597656 L 471 103 L 443 103 Z M 443 6.597656 " clip-rule="nonzero"/></clipPath><clipPath id="300a378f71"><path d="M 14 188 L 668 188 L 668 803.097656 L 14 803.097656 Z M 14 188 " clip-rule="nonzero"/></clipPath></defs><g clip-path="url(#87a8764c91)"><path fill="#ffffff" d="M 457.0625 102.117188 C 464.542969 102.117188 470.609375 96.066406 470.609375 88.585938 L 470.609375 20.160156 C 470.609375 12.652344 464.542969 6.597656 457.0625 6.597656 C 449.570312 6.597656 443.515625 12.652344 443.515625 20.160156 L 443.515625 88.585938 C 443.515625 96.066406 449.570312 102.117188 457.0625 102.117188 Z M 457.0625 102.117188 " fill-opacity="1" fill-rule="nonzero"/></g><path fill="#ffffff" d="M 273.75 133.992188 C 276.398438 137.605469 280.496094 139.542969 284.675781 139.542969 C 287.449219 139.542969 290.265625 138.671875 292.679688 136.910156 C 298.707031 132.488281 300.007812 124.007812 295.585938 117.976562 L 255.085938 62.804688 C 250.667969 56.773438 242.195312 55.453125 236.15625 59.886719 C 230.117188 64.304688 228.832031 72.789062 233.25 78.816406 Z M 273.75 133.992188 " fill-opacity="1" fill-rule="nonzero"/><path fill="#ffffff" d="M 618.542969 117.976562 C 614.109375 124.007812 615.40625 132.488281 621.445312 136.910156 C 623.863281 138.671875 626.664062 139.542969 629.441406 139.542969 C 633.605469 139.542969 637.730469 137.617188 640.378906 133.992188 L 680.875 78.816406 C 685.308594 72.789062 684 64.304688 677.972656 59.886719 C 671.90625 55.4375 663.449219 56.773438 659.039062 62.804688 " fill-opacity="1" fill-rule="nonzero"/><path fill="#ffffff" d="M 283.335938 258.828125 C 283.402344 258.878906 283.464844 258.929688 283.542969 259.007812 L 358.589844 322.371094 C 360.347656 323.847656 361.777344 325.636719 363.332031 327.320312 C 364.449219 327.820312 365.582031 328.269531 366.558594 329.078125 C 372.121094 333.769531 379.253906 335.957031 386.542969 335.402344 C 393.867188 334.773438 400.5 331.367188 405.179688 325.816406 C 410.242188 320.699219 412.441406 314.699219 412.171875 308.066406 C 411.847656 300.109375 408.019531 292.296875 401.925781 287.179688 L 363.894531 255.0625 C 363.859375 255.035156 363.832031 255.035156 363.820312 255.011719 L 309.003906 208.691406 C 297.460938 198.949219 280.125 200.425781 270.34375 212.007812 C 260.601562 223.546875 262.078125 240.898438 273.632812 250.667969 Z M 283.335938 258.828125 " fill-opacity="1" fill-rule="nonzero"/><g clip-path="url(#300a378f71)"><path fill="#ffffff" d="M 425.5625 272.863281 C 433.710938 282.347656 438.699219 294.273438 439.226562 306.921875 C 439.828125 321.226562 434.804688 334.4375 425.085938 344.105469 C 416.527344 354.347656 403.367188 361.148438 388.816406 362.378906 C 387.25 362.507812 385.65625 362.585938 384.101562 362.585938 C 382.148438 362.585938 380.230469 362.289062 378.304688 362.085938 C 378.316406 362.316406 378.40625 362.535156 378.417969 362.765625 C 379.035156 377.046875 374.050781 390.28125 364.371094 400.011719 C 354.179688 412.066406 339.324219 418.339844 324.207031 418.496094 C 326.46875 433.480469 322.769531 449.3125 312.28125 461.792969 C 304.683594 470.753906 294.761719 476.484375 284.160156 479.195312 C 287.554688 485.621094 289.699219 492.703125 290.316406 500.183594 C 291.539062 514.71875 287.039062 528.832031 277.667969 539.898438 C 268.351562 550.964844 255.203125 557.75 240.667969 558.972656 C 239.085938 559.101562 237.503906 559.175781 235.949219 559.175781 C 223.125 559.175781 210.835938 554.703125 200.925781 546.375 L 158.769531 510.851562 L 14.117188 639.878906 L 163.179688 803.449219 L 361.53125 613.171875 C 364.707031 610.40625 369 609.25 373.046875 610.136719 C 400.820312 615.664062 424.226562 619.480469 446.214844 617.9375 C 446.449219 617.914062 446.640625 617.886719 446.871094 617.886719 C 471.84375 616.023438 494.964844 607.195312 520.453125 585.703125 L 657.550781 461.445312 C 657.550781 461.445312 675.863281 444.648438 662.675781 429.765625 C 655.621094 421.785156 647.046875 415.988281 637.578125 412.96875 C 651.996094 393.160156 651.675781 365.273438 635.1875 345.75 C 628.117188 337.34375 618.851562 331.394531 608.476562 328.476562 C 619.980469 309.09375 618.605469 283.671875 603.273438 265.449219 C 594.804688 255.410156 583.222656 248.933594 570.332031 246.851562 C 576.078125 229.433594 574.5625 207.996094 560.308594 194.539062 C 545.914062 180.980469 522.972656 194.71875 522.972656 194.71875 Z M 425.5625 272.863281 " fill-opacity="1" fill-rule="nonzero"/></g><path fill="#ffffff" d="M 538.265625 606.101562 C 517.496094 623.644531 497.765625 634.144531 478.039062 639.789062 L 664.488281 802.921875 L 795.929688 639.980469 L 647.265625 507.34375 Z M 538.265625 606.101562 " fill-opacity="1" fill-rule="nonzero"/><path fill="#ffffff" d="M 370.105469 193.164062 C 363.535156 202.984375 361.761719 217.789062 371.375 225.898438 C 371.402344 225.925781 371.414062 225.953125 371.441406 225.976562 L 405.191406 254.472656 L 460.996094 209.71875 L 409.355469 185.621094 C 386.363281 173.707031 374.253906 186.933594 370.105469 193.164062 Z M 370.105469 193.164062 " fill-opacity="1" fill-rule="nonzero"/><path fill="#ffffff" d="M 198.753906 401.863281 L 224.074219 423.222656 L 224.085938 423.222656 C 224.152344 423.273438 224.164062 423.378906 224.230469 423.429688 L 252.929688 447.628906 C 264.507812 457.320312 281.820312 455.816406 291.5625 444.316406 C 301.28125 432.773438 299.8125 415.421875 288.246094 405.65625 L 234.253906 360.015625 C 234.214844 359.988281 234.164062 359.988281 234.113281 359.964844 L 234.046875 359.886719 C 228.496094 355.222656 221.363281 353.035156 214.113281 353.613281 C 206.789062 354.21875 200.15625 357.636719 195.453125 363.203125 C 185.734375 374.757812 187.214844 392.09375 198.753906 401.863281 Z M 198.753906 401.863281 " fill-opacity="1" fill-rule="nonzero"/><path fill="#ffffff" d="M 227.390625 282.925781 C 222.710938 288.503906 220.464844 295.597656 221.082031 302.964844 C 221.695312 310.289062 225.101562 316.894531 230.65625 321.5625 L 251.296875 339 C 251.359375 339.054688 251.410156 339.054688 251.449219 339.105469 L 305.738281 384.960938 C 317.253906 394.679688 334.65625 393.226562 344.4375 381.671875 C 349.464844 376.582031 351.660156 370.554688 351.367188 363.921875 C 351.019531 355.96875 347.199219 348.179688 341.121094 343.0625 L 266.101562 279.699219 L 266.089844 279.699219 L 265.960938 279.597656 C 254.367188 269.921875 237.132812 271.410156 227.390625 282.925781 Z M 227.390625 282.925781 " fill-opacity="1" fill-rule="nonzero"/><path fill="#ffffff" d="M 171.265625 485.90625 L 218.394531 525.644531 C 223.972656 530.335938 230.976562 532.546875 238.390625 531.96875 C 245.707031 531.339844 252.296875 527.933594 256.976562 522.40625 C 261.707031 516.800781 263.957031 509.734375 263.339844 502.394531 C 262.722656 495.054688 259.316406 488.4375 253.765625 483.746094 L 235.527344 468.386719 C 235.5 468.363281 235.476562 468.363281 235.449219 468.335938 C 235.4375 468.308594 235.4375 468.308594 235.421875 468.285156 L 206.25 443.683594 C 194.71875 434.277344 177.625 435.804688 167.960938 447.246094 C 158.230469 458.773438 159.695312 476.113281 171.265625 485.90625 Z M 171.265625 485.90625 " fill-opacity="1" fill-rule="nonzero"/></svg>