<svg xmlns="http://www.w3.org/2000/svg" xmlns:xlink="http://www.w3.org/1999/xlink" width="1080" zoomAndPan="magnify" viewBox="0 0 810 809.999993" height="1080" preserveAspectRatio="xMidYMid meet" version="1.0"><defs><clipPath id="f8f1624017"><path d="M 15 44.023438 L 795.726562 44.023438 L 795.726562 766 L 15 766 Z M 15 44.023438 " clip-rule="nonzero"/></clipPath></defs><g clip-path="url(#f8f1624017)"><path fill="#000000" d="M 434.53125 44.023438 C 235.207031 44.023438 73.628906 205.601562 73.628906 404.925781 C 73.605469 426.859375 75.566406 448.617188 79.519531 470.191406 C 83.46875 491.769531 89.34375 512.808594 97.140625 533.308594 L 16.820312 683.917969 C 16.25 684.988281 15.835938 686.117188 15.582031 687.300781 C 15.328125 688.488281 15.242188 689.6875 15.320312 690.894531 C 15.402344 692.105469 15.648438 693.28125 16.058594 694.421875 C 16.46875 695.566406 17.027344 696.628906 17.738281 697.613281 C 18.445312 698.597656 19.273438 699.464844 20.226562 700.21875 C 21.179688 700.96875 22.214844 701.578125 23.335938 702.039062 C 24.457031 702.5 25.621094 702.796875 26.828125 702.933594 C 28.03125 703.070312 29.234375 703.039062 30.429688 702.835938 L 195.273438 675.144531 C 203.429688 682.386719 211.898438 689.242188 220.679688 695.714844 C 229.460938 702.183594 238.515625 708.246094 247.847656 713.890625 C 257.179688 719.539062 266.75 724.75 276.554688 729.527344 C 286.363281 734.304688 296.363281 738.625 306.5625 742.492188 C 316.761719 746.355469 327.117188 749.753906 337.625 752.675781 C 348.132812 755.601562 358.753906 758.039062 369.484375 760 C 380.214844 761.957031 391.011719 763.421875 401.875 764.398438 C 412.738281 765.371094 423.625 765.851562 434.53125 765.835938 C 633.855469 765.835938 795.445312 604.246094 795.445312 404.921875 C 795.445312 205.765625 633.691406 44.023438 434.53125 44.023438 Z M 435.605469 671.710938 C 426.910156 671.757812 418.230469 671.378906 409.574219 670.574219 C 400.914062 669.765625 392.316406 668.539062 383.777344 666.890625 C 375.238281 665.242188 366.804688 663.179688 358.46875 660.703125 C 350.132812 658.230469 341.9375 655.351562 333.882812 652.070312 C 325.828125 648.789062 317.957031 645.125 310.261719 641.070312 C 302.566406 637.019531 295.089844 632.601562 287.832031 627.8125 C 280.570312 623.027344 273.5625 617.898438 266.804688 612.425781 C 260.046875 606.953125 253.574219 601.160156 247.386719 595.050781 L 148.628906 612.890625 C 147.449219 613.089844 146.257812 613.121094 145.066406 612.992188 C 143.875 612.863281 142.722656 612.574219 141.609375 612.125 C 140.5 611.675781 139.46875 611.082031 138.519531 610.347656 C 137.570312 609.613281 136.742188 608.765625 136.027344 607.800781 C 135.316406 606.835938 134.746094 605.789062 134.324219 604.667969 C 133.898438 603.546875 133.636719 602.386719 133.535156 601.191406 C 133.429688 599.996094 133.492188 598.8125 133.71875 597.632812 C 133.945312 596.457031 134.328125 595.332031 134.863281 594.257812 L 184.738281 498.792969 C 178.917969 483.304688 174.582031 467.410156 171.726562 451.113281 C 168.875 434.816406 167.554688 418.394531 167.765625 401.851562 C 169.417969 255.359375 288.027344 138.140625 434.53125 138.140625 C 581.878906 138.140625 701.320312 257.585938 701.320312 404.925781 C 701.320312 552.148438 582.820312 671.132812 435.605469 671.710938 Z M 435.605469 671.710938 " fill-opacity="1" fill-rule="nonzero"/></g><path fill="#000000" d="M 396.820312 314.964844 L 385.171875 265.789062 C 384.839844 264.386719 384.433594 263.007812 383.957031 261.652344 C 383.480469 260.292969 382.933594 258.964844 382.316406 257.664062 C 381.699219 256.363281 381.015625 255.101562 380.265625 253.871094 C 379.515625 252.644531 378.703125 251.460938 377.828125 250.316406 C 376.953125 249.175781 376.023438 248.082031 375.03125 247.039062 C 374.042969 245.992188 373 245.003906 371.90625 244.070312 C 370.8125 243.136719 369.671875 242.261719 368.484375 241.445312 C 367.300781 240.632812 366.074219 239.882812 364.808594 239.195312 C 363.542969 238.511719 362.246094 237.894531 360.914062 237.347656 C 359.585938 236.796875 358.230469 236.320312 356.847656 235.914062 C 355.46875 235.507812 354.070312 235.175781 352.65625 234.917969 C 351.238281 234.660156 349.816406 234.476562 348.378906 234.367188 C 346.945312 234.261719 345.507812 234.226562 344.070312 234.269531 C 342.632812 234.3125 341.199219 234.433594 339.773438 234.625 C 338.347656 234.820312 336.9375 235.085938 335.539062 235.429688 C 334.140625 235.773438 332.765625 236.1875 331.414062 236.675781 L 304.550781 246.34375 C 303.464844 246.734375 302.402344 247.171875 301.351562 247.652344 C 300.304688 248.132812 299.28125 248.65625 298.277344 249.226562 C 297.273438 249.792969 296.296875 250.402344 295.34375 251.050781 C 294.390625 251.699219 293.46875 252.390625 292.574219 253.117188 C 291.683594 253.84375 290.820312 254.609375 289.992188 255.410156 C 289.160156 256.207031 288.367188 257.042969 287.609375 257.910156 C 286.847656 258.777344 286.128906 259.675781 285.445312 260.601562 C 284.761719 261.53125 284.117188 262.484375 283.515625 263.46875 C 282.910156 264.449219 282.351562 265.457031 281.832031 266.484375 C 281.316406 267.515625 280.839844 268.566406 280.410156 269.632812 C 279.980469 270.703125 279.597656 271.789062 279.257812 272.890625 C 278.921875 273.992188 278.628906 275.105469 278.386719 276.234375 C 278.140625 277.359375 277.945312 278.496094 277.796875 279.636719 C 277.648438 280.78125 277.546875 281.925781 277.496094 283.078125 C 277.445312 284.230469 277.441406 285.382812 277.488281 286.535156 C 277.53125 287.683594 277.625 288.832031 277.769531 289.976562 C 287.128906 366.039062 330.21875 550.039062 528.394531 590.46875 C 530.351562 590.867188 532.324219 591.125 534.316406 591.234375 C 536.3125 591.34375 538.300781 591.3125 540.289062 591.132812 C 542.277344 590.953125 544.242188 590.628906 546.183594 590.160156 C 548.125 589.695312 550.023438 589.089844 551.875 588.34375 C 553.726562 587.601562 555.515625 586.726562 557.242188 585.722656 C 558.964844 584.71875 560.609375 583.59375 562.167969 582.347656 C 563.730469 581.101562 565.191406 579.75 566.554688 578.292969 C 567.917969 576.832031 569.167969 575.28125 570.304688 573.640625 L 585.722656 551.367188 C 586.488281 550.261719 587.195312 549.125 587.847656 547.953125 C 588.5 546.777344 589.09375 545.578125 589.625 544.34375 C 590.160156 543.113281 590.632812 541.859375 591.042969 540.582031 C 591.453125 539.304688 591.800781 538.007812 592.085938 536.699219 C 592.367188 535.386719 592.585938 534.0625 592.738281 532.730469 C 592.894531 531.394531 592.980469 530.058594 593.003906 528.714844 C 593.027344 527.375 592.980469 526.035156 592.871094 524.695312 C 592.761719 523.359375 592.589844 522.03125 592.347656 520.710938 C 592.109375 519.390625 591.804688 518.082031 591.433594 516.792969 C 591.066406 515.503906 590.636719 514.234375 590.144531 512.984375 C 589.648438 511.738281 589.097656 510.515625 588.484375 509.320312 C 587.871094 508.128906 587.199219 506.964844 586.472656 505.839844 C 585.746094 504.710938 584.964844 503.621094 584.132812 502.570312 C 583.296875 501.519531 582.414062 500.511719 581.480469 499.546875 C 580.546875 498.582031 579.566406 497.664062 578.546875 496.796875 C 577.523438 495.925781 576.457031 495.109375 575.355469 494.347656 C 575.269531 494.285156 575.179688 494.226562 575.09375 494.167969 L 541.210938 471.097656 C 540.300781 470.480469 539.367188 469.898438 538.410156 469.355469 C 537.457031 468.808594 536.476562 468.304688 535.480469 467.839844 C 534.484375 467.375 533.46875 466.949219 532.4375 466.566406 C 531.40625 466.183594 530.363281 465.839844 529.304688 465.539062 C 528.246094 465.242188 527.175781 464.984375 526.097656 464.769531 C 525.015625 464.558594 523.929688 464.386719 522.835938 464.261719 C 521.742188 464.136719 520.648438 464.054688 519.546875 464.015625 C 518.449219 463.980469 517.347656 463.984375 516.25 464.035156 C 515.148438 464.085938 514.054688 464.183594 512.960938 464.320312 C 511.871094 464.460938 510.785156 464.644531 509.710938 464.871094 C 508.632812 465.097656 507.566406 465.367188 506.511719 465.679688 C 505.457031 465.992188 504.417969 466.347656 503.390625 466.742188 C 502.363281 467.136719 501.355469 467.574219 500.363281 468.054688 C 499.371094 468.53125 498.402344 469.046875 497.449219 469.601562 C 496.5 470.160156 495.574219 470.75 494.671875 471.382812 C 493.769531 472.011719 492.894531 472.679688 492.046875 473.378906 C 491.207031 474.078125 490.335938 474.738281 489.441406 475.367188 C 488.542969 475.996094 487.625 476.585938 486.683594 477.140625 C 485.738281 477.695312 484.777344 478.210938 483.792969 478.6875 C 482.808594 479.164062 481.804688 479.601562 480.785156 480 C 479.765625 480.394531 478.734375 480.75 477.683594 481.066406 C 476.636719 481.378906 475.578125 481.648438 474.507812 481.878906 C 473.4375 482.109375 472.359375 482.292969 471.277344 482.4375 C 470.191406 482.578125 469.101562 482.675781 468.011719 482.730469 C 466.917969 482.789062 465.824219 482.796875 464.730469 482.765625 C 463.636719 482.734375 462.546875 482.65625 461.460938 482.535156 C 460.375 482.417969 459.292969 482.253906 458.21875 482.046875 C 457.144531 481.839844 456.082031 481.589844 455.027344 481.296875 C 453.972656 481.007812 452.929688 480.671875 451.902344 480.296875 C 450.875 479.921875 449.867188 479.503906 448.871094 479.046875 C 447.878906 478.589844 446.902344 478.09375 445.949219 477.5625 C 444.996094 477.027344 444.0625 476.453125 443.15625 475.84375 C 422.542969 461.957031 394.648438 438.929688 376.527344 407.007812 C 375.511719 405.226562 374.636719 403.382812 373.894531 401.472656 C 373.15625 399.558594 372.5625 397.605469 372.117188 395.605469 C 371.667969 393.605469 371.375 391.582031 371.230469 389.539062 C 371.085938 387.496094 371.09375 385.453125 371.253906 383.410156 C 371.414062 381.367188 371.726562 379.347656 372.191406 377.351562 C 372.652344 375.355469 373.261719 373.40625 374.015625 371.5 C 374.769531 369.597656 375.664062 367.757812 376.691406 365.984375 C 377.722656 364.214844 378.878906 362.53125 380.160156 360.929688 L 388.875 350.09375 C 390.832031 347.660156 392.488281 345.039062 393.847656 342.230469 C 395.203125 339.421875 396.226562 336.492188 396.914062 333.449219 C 397.601562 330.40625 397.9375 327.324219 397.921875 324.203125 C 397.90625 321.082031 397.539062 318.003906 396.820312 314.964844 Z M 396.820312 314.964844 " fill-opacity="1" fill-rule="nonzero"/></svg>